<?xml version="1.0" encoding="UTF-8" standalone="no"?><svg xmlns="http://www.w3.org/2000/svg" xmlns:xlink="http://www.w3.org/1999/xlink" contentStyleType="text/css" height="790px" preserveAspectRatio="none" style="width:2119px;height:790px;background:#FFFFFF;" version="1.1" viewBox="0 0 2119 790" width="2119px" zoomAndPan="magnify"><defs/><g><!--MD5=[77ef20e1859233c84e064dad961bfecc]
cluster mes-tool-mock-ui--><g id="cluster_mes-tool-mock-ui"><rect fill="none" height="122" rx="2.5" ry="2.5" style="stroke:#181818;stroke-width:1.0;" width="170" x="125.5" y="7"/><polygon fill="none" points="278.5,12,278.5,26,290.5,26,290.5,18,284.5,12,278.5,12" style="stroke:#181818;stroke-width:1.0;"/><line style="stroke:#181818;stroke-width:1.0;" x1="284.5" x2="284.5" y1="12" y2="18"/><line style="stroke:#181818;stroke-width:1.0;" x1="290.5" x2="284.5" y1="18" y2="18"/><text fill="#000000" font-family="sans-serif" font-size="14" font-weight="bold" lengthAdjust="spacing" textLength="116" x="152.5" y="23.9659">mes-tool-mock-ui</text></g><!--MD5=[02421fe47f76e46ed0bd8f2e183b81d6]
cluster mes-tool-mock-srv--><g id="cluster_mes-tool-mock-srv"><rect fill="#E3664A" height="118" rx="2.5" ry="2.5" style="stroke:#181818;stroke-width:1.0;" width="379" x="119" y="153"/><polygon fill="#E3664A" points="481,158,481,172,493,172,493,164,487,158,481,158" style="stroke:#181818;stroke-width:1.0;"/><line style="stroke:#181818;stroke-width:1.0;" x1="487" x2="487" y1="158" y2="164"/><line style="stroke:#181818;stroke-width:1.0;" x1="493" x2="487" y1="164" y2="164"/><text fill="#000000" font-family="sans-serif" font-size="14" font-weight="bold" lengthAdjust="spacing" textLength="123" x="247" y="169.9659">mes-tool-mock-srv</text></g><!--MD5=[67132e078036e067a8953ba78a575813]
cluster mes-tool-status-srv--><g id="cluster_mes-tool-status-srv"><rect fill="none" height="104" rx="2.5" ry="2.5" style="stroke:#181818;stroke-width:1.0;" width="190" x="628" y="245"/><polygon fill="none" points="801,250,801,264,813,264,813,256,807,250,801,250" style="stroke:#181818;stroke-width:1.0;"/><line style="stroke:#181818;stroke-width:1.0;" x1="807" x2="807" y1="250" y2="256"/><line style="stroke:#181818;stroke-width:1.0;" x1="813" x2="807" y1="256" y2="256"/><text fill="#000000" font-family="sans-serif" font-size="14" font-weight="bold" lengthAdjust="spacing" textLength="129" x="658.5" y="261.9659">mes-tool-status-srv</text></g><!--MD5=[1b42e503c4a15105aa690150965e29f0]
cluster mes-tool-product-srv--><g id="cluster_mes-tool-product-srv"><rect fill="none" height="104" rx="2.5" ry="2.5" style="stroke:#181818;stroke-width:1.0;" width="200" x="623" y="373"/><polygon fill="none" points="806,378,806,392,818,392,818,384,812,378,806,378" style="stroke:#181818;stroke-width:1.0;"/><line style="stroke:#181818;stroke-width:1.0;" x1="812" x2="812" y1="378" y2="384"/><line style="stroke:#181818;stroke-width:1.0;" x1="818" x2="812" y1="384" y2="384"/><text fill="#000000" font-family="sans-serif" font-size="14" font-weight="bold" lengthAdjust="spacing" textLength="141" x="652.5" y="389.9659">mes-tool-product-srv</text></g><!--MD5=[ef59dd3bf1ca8bc3a976ff076fc85818]
cluster mes-tool-kpi-srv--><g id="cluster_mes-tool-kpi-srv"><rect fill="none" height="104" rx="2.5" ry="2.5" style="stroke:#181818;stroke-width:1.0;" width="170" x="1125" y="295"/><polygon fill="none" points="1278,300,1278,314,1290,314,1290,306,1284,300,1278,300" style="stroke:#181818;stroke-width:1.0;"/><line style="stroke:#181818;stroke-width:1.0;" x1="1284" x2="1284" y1="300" y2="306"/><line style="stroke:#181818;stroke-width:1.0;" x1="1290" x2="1284" y1="306" y2="306"/><text fill="#000000" font-family="sans-serif" font-size="14" font-weight="bold" lengthAdjust="spacing" textLength="108" x="1156" y="311.9659">mes-tool-kpi-srv</text></g><!--MD5=[2589e3d9044e5b7fde759eb60390e84a]
cluster mes-tool-dashboard-service--><g id="cluster_mes-tool-dashboard-service"><rect fill="none" height="118" rx="2.5" ry="2.5" style="stroke:#181818;stroke-width:1.0;" width="309" x="1798" y="334"/><polygon fill="none" points="2090,339,2090,353,2102,353,2102,345,2096,339,2090,339" style="stroke:#181818;stroke-width:1.0;"/><line style="stroke:#181818;stroke-width:1.0;" x1="2096" x2="2096" y1="339" y2="345"/><line style="stroke:#181818;stroke-width:1.0;" x1="2102" x2="2096" y1="345" y2="345"/><text fill="#000000" font-family="sans-serif" font-size="14" font-weight="bold" lengthAdjust="spacing" textLength="188" x="1858.5" y="350.9659">mes-tool-dashboard-service</text></g><!--MD5=[5992a6eb49ce4a6b5e1cc72e016a10a4]
cluster mes-tool-dashboard-ui--><g id="cluster_mes-tool-dashboard-ui"><rect fill="none" height="122" rx="2.5" ry="2.5" style="stroke:#181818;stroke-width:1.0;" width="170" x="1810" y="578"/><polygon fill="none" points="1963,583,1963,597,1975,597,1975,589,1969,583,1963,583" style="stroke:#181818;stroke-width:1.0;"/><line style="stroke:#181818;stroke-width:1.0;" x1="1969" x2="1969" y1="583" y2="589"/><line style="stroke:#181818;stroke-width:1.0;" x1="1975" x2="1969" y1="589" y2="589"/><text fill="#000000" font-family="sans-serif" font-size="14" font-weight="bold" lengthAdjust="spacing" textLength="154" x="1818" y="594.9659">mes-tool-dashboard-ui</text></g><!--MD5=[31adf453d3d3a03c36db45c6ee0cdf17]
entity ToolMockUI--><g id="elem_ToolMockUI"><rect fill="#F1F1F1" height="68.1358" rx="2.5" ry="2.5" style="stroke:#181818;stroke-width:0.5;" width="138" x="141.5" y="45"/><rect fill="#F1F1F1" height="10" style="stroke:#181818;stroke-width:0.5;" width="15" x="259.5" y="50"/><rect fill="#F1F1F1" height="2" style="stroke:#181818;stroke-width:0.5;" width="4" x="257.5" y="52"/><rect fill="#F1F1F1" height="2" style="stroke:#181818;stroke-width:0.5;" width="4" x="257.5" y="56"/><text fill="#000000" font-family="sans-serif" font-size="14" font-style="italic" lengthAdjust="spacing" textLength="98" x="156.5" y="79.9659">«SPA Frontend»</text><text fill="#000000" font-family="sans-serif" font-size="14" lengthAdjust="spacing" textLength="78" x="166.5" y="99.0339">ToolMockUI</text></g><!--MD5=[d8afd4122f5d670393abc379c384980a]
entity ToolMockService--><g id="elem_ToolMockService"><rect fill="#FEFECE" height="49.0679" rx="2.5" ry="2.5" style="stroke:#181818;stroke-width:0.5;" width="151" x="135" y="205.5"/><rect fill="#FEFECE" height="10" style="stroke:#181818;stroke-width:0.5;" width="15" x="266" y="210.5"/><rect fill="#FEFECE" height="2" style="stroke:#181818;stroke-width:0.5;" width="4" x="264" y="212.5"/><rect fill="#FEFECE" height="2" style="stroke:#181818;stroke-width:0.5;" width="4" x="264" y="216.5"/><text fill="#000000" font-family="sans-serif" font-size="14" lengthAdjust="spacing" textLength="111" x="150" y="240.4659">ToolMockService</text></g><!--MD5=[fd7328753abf7908d775959b6a79cb2d]
entity rest2--><g id="elem_rest2"><ellipse cx="455" cy="223" fill="#FEFECE" rx="8" ry="8" style="stroke:#181818;stroke-width:0.5;"/><text fill="#000000" font-family="sans-serif" font-size="14" lengthAdjust="spacing" textLength="33" x="438.5" y="254.9659">REST</text></g><!--MD5=[50fd338cac3a9fc73f988a0f0b991225]
entity ToolStatusService--><g id="elem_ToolStatusService"><rect fill="#F1F1F1" height="49.0679" rx="2.5" ry="2.5" style="stroke:#181818;stroke-width:0.5;" width="158" x="644" y="283.5"/><rect fill="#F1F1F1" height="10" style="stroke:#181818;stroke-width:0.5;" width="15" x="782" y="288.5"/><rect fill="#F1F1F1" height="2" style="stroke:#181818;stroke-width:0.5;" width="4" x="780" y="290.5"/><rect fill="#F1F1F1" height="2" style="stroke:#181818;stroke-width:0.5;" width="4" x="780" y="294.5"/><text fill="#000000" font-family="sans-serif" font-size="14" lengthAdjust="spacing" textLength="118" x="659" y="318.4659">ToolStatusService</text></g><!--MD5=[21ad93cfa47a717d3af54f3584ded3af]
entity ToolProductService--><g id="elem_ToolProductService"><rect fill="#F1F1F1" height="49.0679" rx="2.5" ry="2.5" style="stroke:#181818;stroke-width:0.5;" width="168" x="639" y="411.5"/><rect fill="#F1F1F1" height="10" style="stroke:#181818;stroke-width:0.5;" width="15" x="787" y="416.5"/><rect fill="#F1F1F1" height="2" style="stroke:#181818;stroke-width:0.5;" width="4" x="785" y="418.5"/><rect fill="#F1F1F1" height="2" style="stroke:#181818;stroke-width:0.5;" width="4" x="785" y="422.5"/><text fill="#000000" font-family="sans-serif" font-size="14" lengthAdjust="spacing" textLength="128" x="654" y="446.4659">ToolProductService</text></g><!--MD5=[6220ef2364383c332ad4ad5a015ea2b3]
entity ToolKpiService--><g id="elem_ToolKpiService"><rect fill="#F1F1F1" height="49.0679" rx="2.5" ry="2.5" style="stroke:#181818;stroke-width:0.5;" width="138" x="1141" y="333.5"/><rect fill="#F1F1F1" height="10" style="stroke:#181818;stroke-width:0.5;" width="15" x="1259" y="338.5"/><rect fill="#F1F1F1" height="2" style="stroke:#181818;stroke-width:0.5;" width="4" x="1257" y="340.5"/><rect fill="#F1F1F1" height="2" style="stroke:#181818;stroke-width:0.5;" width="4" x="1257" y="344.5"/><text fill="#000000" font-family="sans-serif" font-size="14" lengthAdjust="spacing" textLength="98" x="1156" y="368.4659">ToolKpiService</text></g><!--MD5=[c1d604df55a90fa098f4496cc3c2f734]
entity DashboardService--><g id="elem_DashboardService"><rect fill="#F1F1F1" height="49.0679" rx="2.5" ry="2.5" style="stroke:#181818;stroke-width:0.5;" width="162" x="1814" y="374.5"/><rect fill="#F1F1F1" height="10" style="stroke:#181818;stroke-width:0.5;" width="15" x="1956" y="379.5"/><rect fill="#F1F1F1" height="2" style="stroke:#181818;stroke-width:0.5;" width="4" x="1954" y="381.5"/><rect fill="#F1F1F1" height="2" style="stroke:#181818;stroke-width:0.5;" width="4" x="1954" y="385.5"/><text fill="#000000" font-family="sans-serif" font-size="14" lengthAdjust="spacing" textLength="122" x="1829" y="409.4659">DashboardService</text></g><!--MD5=[98ffb7722e6de6cdf870d33bfbb7236e]
entity rest3--><g id="elem_rest3"><ellipse cx="2064" cy="404" fill="#F1F1F1" rx="8" ry="8" style="stroke:#181818;stroke-width:0.5;"/><text fill="#000000" font-family="sans-serif" font-size="14" lengthAdjust="spacing" textLength="33" x="2047.5" y="435.9659">REST</text></g><!--MD5=[a0d7d244d60ec5bc815decbf45d658e2]
entity DashboardUI--><g id="elem_DashboardUI"><rect fill="#F1F1F1" height="68.1358" rx="2.5" ry="2.5" style="stroke:#181818;stroke-width:0.5;" width="138" x="1826" y="616"/><rect fill="#F1F1F1" height="10" style="stroke:#181818;stroke-width:0.5;" width="15" x="1944" y="621"/><rect fill="#F1F1F1" height="2" style="stroke:#181818;stroke-width:0.5;" width="4" x="1942" y="623"/><rect fill="#F1F1F1" height="2" style="stroke:#181818;stroke-width:0.5;" width="4" x="1942" y="627"/><text fill="#000000" font-family="sans-serif" font-size="14" font-style="italic" lengthAdjust="spacing" textLength="98" x="1841" y="650.9659">«SPA Frontend»</text><text fill="#000000" font-family="sans-serif" font-size="14" lengthAdjust="spacing" textLength="89" x="1845.5" y="670.0339">DashboardUI</text></g><!--MD5=[8852b909bd01658968a8bb6b4bf9803d]
entity MockUser--><g id="elem_MockUser"><ellipse cx="39" cy="48" fill="#F1F1F1" rx="8" ry="8" style="stroke:#181818;stroke-width:0.5;"/><path d="M39,56 L39,83 M26,64 L52,64 M39,83 L26,98 M39,83 L52,98 " fill="none" style="stroke:#181818;stroke-width:0.5;"/><text fill="#000000" font-family="sans-serif" font-size="14" lengthAdjust="spacing" textLength="66" x="6" y="114.4659">MockUser</text></g><!--MD5=[e341806154685f679ccc8834901128e7]
entity ToolStatusTopic--><g id="elem_ToolStatusTopic"><path d="M397,290 L513,290 C518,290 518,314.0679 518,314.0679 C518,314.0679 518,338.1358 513,338.1358 L397,338.1358 C392,338.1358 392,314.0679 392,314.0679 C392,314.0679 392,290 397,290 " fill="#F1F1F1" style="stroke:#181818;stroke-width:0.5;"/><path d="M513,290 C508,290 508,314.0679 508,314.0679 C508,338.1358 513,338.1358 513,338.1358 " fill="none" style="stroke:#181818;stroke-width:0.5;"/><text fill="#000000" font-family="sans-serif" font-size="14" font-style="italic" lengthAdjust="spacing" textLength="81" x="409.5" y="309.9659">«EventTopic»</text><text fill="#000000" font-family="sans-serif" font-size="14" lengthAdjust="spacing" textLength="106" x="397" y="329.0339">ToolStatusTopic</text></g><!--MD5=[ccd8c717cc00c7c05ad9157f8c30bca0]
entity PartsTopic--><g id="elem_PartsTopic"><path d="M409.5,395 L500.5,395 C505.5,395 505.5,419.0679 505.5,419.0679 C505.5,419.0679 505.5,443.1358 500.5,443.1358 L409.5,443.1358 C404.5,443.1358 404.5,419.0679 404.5,419.0679 C404.5,419.0679 404.5,395 409.5,395 " fill="#F1F1F1" style="stroke:#181818;stroke-width:0.5;"/><path d="M500.5,395 C495.5,395 495.5,419.0679 495.5,419.0679 C495.5,443.1358 500.5,443.1358 500.5,443.1358 " fill="none" style="stroke:#181818;stroke-width:0.5;"/><text fill="#000000" font-family="sans-serif" font-size="14" font-style="italic" lengthAdjust="spacing" textLength="81" x="409.5" y="414.9659">«EventTopic»</text><text fill="#000000" font-family="sans-serif" font-size="14" lengthAdjust="spacing" textLength="70" x="415" y="434.0339">PartsTopic</text></g><!--MD5=[1cfbc12258fe9a87ae7a75c104b0c48b]
entity UptimeTopic--><g id="elem_UptimeTopic"><path d="M920,290 L1015,290 C1020,290 1020,314.0679 1020,314.0679 C1020,314.0679 1020,338.1358 1015,338.1358 L920,338.1358 C915,338.1358 915,314.0679 915,314.0679 C915,314.0679 915,290 920,290 " fill="#F1F1F1" style="stroke:#181818;stroke-width:0.5;"/><path d="M1015,290 C1010,290 1010,314.0679 1010,314.0679 C1010,338.1358 1015,338.1358 1015,338.1358 " fill="none" style="stroke:#181818;stroke-width:0.5;"/><text fill="#000000" font-family="sans-serif" font-size="14" font-style="italic" lengthAdjust="spacing" textLength="82" x="921.5" y="309.9659">«ValueTopic»</text><text fill="#000000" font-family="sans-serif" font-size="14" lengthAdjust="spacing" textLength="85" x="920" y="329.0339">UptimeTopic</text></g><!--MD5=[07a9aad84e3bc6e1cf4b32db7cca1ef8]
entity YieldTopic--><g id="elem_YieldTopic"><path d="M921.5,379 L1013.5,379 C1018.5,379 1018.5,403.0679 1018.5,403.0679 C1018.5,403.0679 1018.5,427.1358 1013.5,427.1358 L921.5,427.1358 C916.5,427.1358 916.5,403.0679 916.5,403.0679 C916.5,403.0679 916.5,379 921.5,379 " fill="#F1F1F1" style="stroke:#181818;stroke-width:0.5;"/><path d="M1013.5,379 C1008.5,379 1008.5,403.0679 1008.5,403.0679 C1008.5,427.1358 1013.5,427.1358 1013.5,427.1358 " fill="none" style="stroke:#181818;stroke-width:0.5;"/><text fill="#000000" font-family="sans-serif" font-size="14" font-style="italic" lengthAdjust="spacing" textLength="82" x="921.5" y="398.9659">«ValueTopic»</text><text fill="#000000" font-family="sans-serif" font-size="14" lengthAdjust="spacing" textLength="69" x="928" y="418.0339">YieldTopic</text></g><!--MD5=[a4238bb1be5a3ad66c485256afd84c75]
entity MonitoringUser--><g id="elem_MonitoringUser"><ellipse cx="1540" cy="716" fill="#F1F1F1" rx="8" ry="8" style="stroke:#181818;stroke-width:0.5;"/><path d="M1540,724 L1540,751 M1527,732 L1553,732 M1540,751 L1527,766 M1540,751 L1553,766 " fill="none" style="stroke:#181818;stroke-width:0.5;"/><text fill="#000000" font-family="sans-serif" font-size="14" lengthAdjust="spacing" textLength="106" x="1487" y="782.4659">MonitoringUser</text></g><!--MD5=[4cbff527ee8c184773760964e509dc74]
entity AvailabilityTopic--><g id="elem_AvailabilityTopic"><path d="M1480.5,43 L1599.5,43 C1604.5,43 1604.5,67.0679 1604.5,67.0679 C1604.5,67.0679 1604.5,91.1358 1599.5,91.1358 L1480.5,91.1358 C1475.5,91.1358 1475.5,67.0679 1475.5,67.0679 C1475.5,67.0679 1475.5,43 1480.5,43 " fill="#F1F1F1" style="stroke:#181818;stroke-width:0.5;"/><path d="M1599.5,43 C1594.5,43 1594.5,67.0679 1594.5,67.0679 C1594.5,91.1358 1599.5,91.1358 1599.5,91.1358 " fill="none" style="stroke:#181818;stroke-width:0.5;"/><text fill="#000000" font-family="sans-serif" font-size="14" font-style="italic" lengthAdjust="spacing" textLength="82" x="1494" y="62.9659">«ValueTopic»</text><text fill="#000000" font-family="sans-serif" font-size="14" lengthAdjust="spacing" textLength="109" x="1480.5" y="82.0339">AvailabilityTopic</text></g><!--MD5=[06b4f01b7f4fe635bcad3fc8adf07976]
entity ActualCycleTimeTopic--><g id="elem_ActualCycleTimeTopic"><path d="M1462,126 L1618,126 C1623,126 1623,150.0679 1623,150.0679 C1623,150.0679 1623,174.1358 1618,174.1358 L1462,174.1358 C1457,174.1358 1457,150.0679 1457,150.0679 C1457,150.0679 1457,126 1462,126 " fill="#F1F1F1" style="stroke:#181818;stroke-width:0.5;"/><path d="M1618,126 C1613,126 1613,150.0679 1613,150.0679 C1613,174.1358 1618,174.1358 1618,174.1358 " fill="none" style="stroke:#181818;stroke-width:0.5;"/><text fill="#000000" font-family="sans-serif" font-size="14" font-style="italic" lengthAdjust="spacing" textLength="82" x="1494" y="145.9659">«ValueTopic»</text><text fill="#000000" font-family="sans-serif" font-size="14" lengthAdjust="spacing" textLength="146" x="1462" y="165.0339">ActualCycleTimeTopic</text></g><!--MD5=[dc37225742f05ed81b78bb90b3fad72b]
entity TheoreticalCycleTimeTopic--><g id="elem_TheoreticalCycleTimeTopic"><path d="M1445.5,209 L1634.5,209 C1639.5,209 1639.5,233.0679 1639.5,233.0679 C1639.5,233.0679 1639.5,257.1358 1634.5,257.1358 L1445.5,257.1358 C1440.5,257.1358 1440.5,233.0679 1440.5,233.0679 C1440.5,233.0679 1440.5,209 1445.5,209 " fill="#F1F1F1" style="stroke:#181818;stroke-width:0.5;"/><path d="M1634.5,209 C1629.5,209 1629.5,233.0679 1629.5,233.0679 C1629.5,257.1358 1634.5,257.1358 1634.5,257.1358 " fill="none" style="stroke:#181818;stroke-width:0.5;"/><text fill="#000000" font-family="sans-serif" font-size="14" font-style="italic" lengthAdjust="spacing" textLength="82" x="1494" y="228.9659">«ValueTopic»</text><text fill="#000000" font-family="sans-serif" font-size="14" lengthAdjust="spacing" textLength="179" x="1445.5" y="248.0339">TheoreticalCycleTimeTopic</text></g><!--MD5=[b4b1bfeb5a9aeb24f71210ef875c73e1]
entity PerformanceEfficiencyTopic--><g id="elem_PerformanceEfficiencyTopic"><path d="M1442,292 L1638,292 C1643,292 1643,316.0679 1643,316.0679 C1643,316.0679 1643,340.1358 1638,340.1358 L1442,340.1358 C1437,340.1358 1437,316.0679 1437,316.0679 C1437,316.0679 1437,292 1442,292 " fill="#F1F1F1" style="stroke:#181818;stroke-width:0.5;"/><path d="M1638,292 C1633,292 1633,316.0679 1633,316.0679 C1633,340.1358 1638,340.1358 1638,340.1358 " fill="none" style="stroke:#181818;stroke-width:0.5;"/><text fill="#000000" font-family="sans-serif" font-size="14" font-style="italic" lengthAdjust="spacing" textLength="82" x="1494" y="311.9659">«ValueTopic»</text><text fill="#000000" font-family="sans-serif" font-size="14" lengthAdjust="spacing" textLength="186" x="1442" y="331.0339">PerformanceEfficiencyTopic</text></g><!--MD5=[80df8831f3cb31c39188cd816949ec90]
entity OverallEquipmentEfficiencyTopic--><g id="elem_OverallEquipmentEfficiencyTopic"><path d="M1424,375 L1656,375 C1661,375 1661,399.0679 1661,399.0679 C1661,399.0679 1661,423.1358 1656,423.1358 L1424,423.1358 C1419,423.1358 1419,399.0679 1419,399.0679 C1419,399.0679 1419,375 1424,375 " fill="#F1F1F1" style="stroke:#181818;stroke-width:0.5;"/><path d="M1656,375 C1651,375 1651,399.0679 1651,399.0679 C1651,423.1358 1656,423.1358 1656,423.1358 " fill="none" style="stroke:#181818;stroke-width:0.5;"/><text fill="#000000" font-family="sans-serif" font-size="14" font-style="italic" lengthAdjust="spacing" textLength="82" x="1494" y="394.9659">«ValueTopic»</text><text fill="#000000" font-family="sans-serif" font-size="14" lengthAdjust="spacing" textLength="222" x="1424" y="414.0339">OverallEquipmentEfficiencyTopic</text></g><!--MD5=[3bc48e714c4dd38c0f2f258c5c3ae54e]
entity TotalEffectiveEquipmentPerformanceTopic--><g id="elem_TotalEffectiveEquipmentPerformanceTopic"><path d="M1392,458 L1688,458 C1693,458 1693,482.0679 1693,482.0679 C1693,482.0679 1693,506.1358 1688,506.1358 L1392,506.1358 C1387,506.1358 1387,482.0679 1387,482.0679 C1387,482.0679 1387,458 1392,458 " fill="#F1F1F1" style="stroke:#181818;stroke-width:0.5;"/><path d="M1688,458 C1683,458 1683,482.0679 1683,482.0679 C1683,506.1358 1688,506.1358 1688,506.1358 " fill="none" style="stroke:#181818;stroke-width:0.5;"/><text fill="#000000" font-family="sans-serif" font-size="14" font-style="italic" lengthAdjust="spacing" textLength="82" x="1494" y="477.9659">«ValueTopic»</text><text fill="#000000" font-family="sans-serif" font-size="14" lengthAdjust="spacing" textLength="286" x="1392" y="497.0339">TotalEffectiveEquipmentPerformanceTopic</text></g><!--MD5=[ca3f1681fc6f8d7ff21e20ef06c9249e]
entity UtilizationTopic--><g id="elem_UtilizationTopic"><path d="M1483,541 L1597,541 C1602,541 1602,565.0679 1602,565.0679 C1602,565.0679 1602,589.1358 1597,589.1358 L1483,589.1358 C1478,589.1358 1478,565.0679 1478,565.0679 C1478,565.0679 1478,541 1483,541 " fill="#F1F1F1" style="stroke:#181818;stroke-width:0.5;"/><path d="M1597,541 C1592,541 1592,565.0679 1592,565.0679 C1592,589.1358 1597,589.1358 1597,589.1358 " fill="none" style="stroke:#181818;stroke-width:0.5;"/><text fill="#000000" font-family="sans-serif" font-size="14" font-style="italic" lengthAdjust="spacing" textLength="82" x="1494" y="560.9659">«ValueTopic»</text><text fill="#000000" font-family="sans-serif" font-size="14" lengthAdjust="spacing" textLength="104" x="1483" y="580.0339">UtilizationTopic</text></g><!--MD5=[8e03c0435171a6ea5594e66bd9c54651]
entity QualityRateTopic--><g id="elem_QualityRateTopic"><path d="M1478,624 L1602,624 C1607,624 1607,648.0679 1607,648.0679 C1607,648.0679 1607,672.1358 1602,672.1358 L1478,672.1358 C1473,672.1358 1473,648.0679 1473,648.0679 C1473,648.0679 1473,624 1478,624 " fill="#F1F1F1" style="stroke:#181818;stroke-width:0.5;"/><path d="M1602,624 C1597,624 1597,648.0679 1597,648.0679 C1597,672.1358 1602,672.1358 1602,672.1358 " fill="none" style="stroke:#181818;stroke-width:0.5;"/><text fill="#000000" font-family="sans-serif" font-size="14" font-style="italic" lengthAdjust="spacing" textLength="82" x="1494" y="643.9659">«ValueTopic»</text><text fill="#000000" font-family="sans-serif" font-size="14" lengthAdjust="spacing" textLength="114" x="1478" y="663.0339">QualityRateTopic</text></g><!--MD5=[dcbddf4c40e0fec2b86893bf6e1176c0]
link ToolMockService to rest2--><g id="link_ToolMockService_rest2"><path d="M286.24,227.84 C344.96,226.15 420.85,223.96 445.72,223.24 " fill="none" id="ToolMockService-rest2" style="stroke:#181818;stroke-width:1.0;"/></g><!--MD5=[d662fe6951f9a5b88cf356973985ddc0]
link DashboardService to rest3--><g id="link_DashboardService_rest3"><path d="M1976.08,401.4 C2007.89,402.35 2040.36,403.32 2054.99,403.76 " fill="none" id="DashboardService-rest3" style="stroke:#181818;stroke-width:1.0;"/></g><!--MD5=[eb8c07c10b256b24383f408ba011e430]
link MockUser to ToolMockUI--><g id="link_MockUser_ToolMockUI"><path d="M72.28,79 C90.41,79 113.82,79 136.15,79 " fill="none" id="MockUser-to-ToolMockUI" style="stroke:#181818;stroke-width:1.0;"/><polygon fill="#181818" points="141.19,79,132.19,75,136.19,79,132.19,83,141.19,79" style="stroke:#181818;stroke-width:1.0;"/></g><!--MD5=[3a0b4b88f2a1895e2ea8ebc8b9d153c0]
link ToolMockUI to rest2--><g id="link_ToolMockUI_rest2"><path d="M268.97,113.13 C326.14,147.07 409.75,196.72 441.31,215.46 " fill="none" id="ToolMockUI-to-rest2" style="stroke:#181818;stroke-width:1.0;"/><polygon fill="#181818" points="445.92,218.2,440.229,210.1618,441.6225,215.6443,436.14,217.0378,445.92,218.2" style="stroke:#181818;stroke-width:1.0;"/></g><!--MD5=[822261c62e0d9e3666936296070feba3]
link ToolMockService to ToolStatusTopic--><g id="link_ToolMockService_ToolStatusTopic"><path d="M282.29,254.52 C315.34,265.97 354.47,279.52 387.02,290.8 " fill="none" id="ToolMockService-to-ToolStatusTopic" style="stroke:#181818;stroke-width:1.0;"/><polygon fill="#181818" points="391.78,292.45,384.5794,285.7306,387.054,290.8174,381.9672,293.2921,391.78,292.45" style="stroke:#181818;stroke-width:1.0;"/><text fill="#000000" font-family="sans-serif" font-size="13" lengthAdjust="spacing" textLength="44" x="317" y="262.897">publish</text></g><!--MD5=[627f3743afae37e010550025ccc1028c]
link ToolMockService to PartsTopic--><g id="link_ToolMockService_PartsTopic"><path d="M243.2,254.71 C288.57,290.06 371.71,354.86 418.89,391.63 " fill="none" id="ToolMockService-to-PartsTopic" style="stroke:#181818;stroke-width:1.0;"/><polygon fill="#181818" points="423.06,394.88,418.4181,386.1936,419.1155,391.8073,413.5019,392.5048,423.06,394.88" style="stroke:#181818;stroke-width:1.0;"/><text fill="#000000" font-family="sans-serif" font-size="13" lengthAdjust="spacing" textLength="44" x="317" y="309.897">publish</text></g><!--MD5=[0a82ad0bbc439950d3a736dd6fa11c26]
link ToolProductService to YieldTopic--><g id="link_ToolProductService_YieldTopic"><path d="M807.12,424.69 C841.46,420.02 880.35,414.72 911.12,410.54 " fill="none" id="ToolProductService-to-YieldTopic" style="stroke:#181818;stroke-width:1.0;"/><polygon fill="#181818" points="916.38,409.82,906.9246,407.0642,911.4252,410.4911,907.9983,414.9918,916.38,409.82" style="stroke:#181818;stroke-width:1.0;"/><text fill="#000000" font-family="sans-serif" font-size="13" lengthAdjust="spacing" textLength="44" x="840" y="410.897">publish</text></g><!--MD5=[7955fe474cb6f1049c199b8aee0a25dc]
link PartsTopic to ToolProductService--><g id="link_PartsTopic_ToolProductService"><path d="M505.72,422.18 C541.63,424.47 591.09,427.63 633.65,430.35 " fill="none" id="PartsTopic-to-ToolProductService" style="stroke:#181818;stroke-width:1.0;"/><polygon fill="#181818" points="638.8,430.68,630.0695,426.1217,633.8099,430.3654,629.5662,434.1059,638.8,430.68" style="stroke:#181818;stroke-width:1.0;"/><text fill="#000000" font-family="sans-serif" font-size="13" lengthAdjust="spacing" textLength="57" x="549" y="420.897">subscribe</text></g><!--MD5=[54a963cc4adc0bc24736aaaeb694bf46]
link ToolStatusService to UptimeTopic--><g id="link_ToolStatusService_UptimeTopic"><path d="M802.06,309.93 C837.15,310.8 877.8,311.81 909.9,312.6 " fill="none" id="ToolStatusService-to-UptimeTopic" style="stroke:#181818;stroke-width:1.0;"/><polygon fill="#181818" points="914.97,312.73,906.0758,308.5,909.9717,312.6015,905.8702,316.4973,914.97,312.73" style="stroke:#181818;stroke-width:1.0;"/><text fill="#000000" font-family="sans-serif" font-size="13" lengthAdjust="spacing" textLength="44" x="840" y="306.897">publish</text></g><!--MD5=[4bbf3590d52687ae9f2a383f93329130]
link ToolStatusTopic to ToolStatusService--><g id="link_ToolStatusTopic_ToolStatusService"><path d="M518.03,312.6 C553.88,311.79 599.46,310.76 638.43,309.89 " fill="none" id="ToolStatusTopic-to-ToolStatusService" style="stroke:#181818;stroke-width:1.0;"/><polygon fill="#181818" points="643.64,309.77,634.5509,305.9767,638.6413,309.8843,634.7338,313.9746,643.64,309.77" style="stroke:#181818;stroke-width:1.0;"/><text fill="#000000" font-family="sans-serif" font-size="13" lengthAdjust="spacing" textLength="57" x="549" y="306.897">subscribe</text></g><!--MD5=[9c14d9dc294724011db198accb7ecb64]
link UptimeTopic to ToolKpiService--><g id="link_UptimeTopic_ToolKpiService"><path d="M1020.09,323.44 C1053.78,329.6 1098.27,337.74 1135.61,344.57 " fill="none" id="UptimeTopic-to-ToolKpiService" style="stroke:#181818;stroke-width:1.0;"/><polygon fill="#181818" points="1140.6,345.49,1132.465,339.9383,1135.6813,344.5918,1131.0279,347.8082,1140.6,345.49" style="stroke:#181818;stroke-width:1.0;"/><text fill="#000000" font-family="sans-serif" font-size="13" lengthAdjust="spacing" textLength="57" x="1051" y="325.897">subscribe</text></g><!--MD5=[73dbd6af11b120b97224bed8a236c0ac]
link YieldTopic to ToolKpiService--><g id="link_YieldTopic_ToolKpiService"><path d="M1018.62,393.62 C1052.48,387.29 1097.74,378.82 1135.64,371.73 " fill="none" id="YieldTopic-to-ToolKpiService" style="stroke:#181818;stroke-width:1.0;"/><polygon fill="#181818" points="1140.7,370.78,1131.1202,368.4937,1135.7843,371.6945,1132.5835,376.3587,1140.7,370.78" style="stroke:#181818;stroke-width:1.0;"/><text fill="#000000" font-family="sans-serif" font-size="13" lengthAdjust="spacing" textLength="57" x="1051" y="373.897">subscribe</text></g><!--MD5=[b1fb73764130f4247c7134c2ffc437bd]
link ToolKpiService to AvailabilityTopic--><g id="link_ToolKpiService_AvailabilityTopic"><path d="M1220.21,333.12 C1240.93,281.06 1296.6,161.08 1387,108 C1412.29,93.15 1443.09,83.54 1470.34,77.4 " fill="none" id="ToolKpiService-to-AvailabilityTopic" style="stroke:#181818;stroke-width:1.0;"/><polygon fill="#181818" points="1475.38,76.29,1465.7321,74.3107,1470.4961,77.361,1467.4457,82.125,1475.38,76.29" style="stroke:#181818;stroke-width:1.0;"/><text fill="#000000" font-family="sans-serif" font-size="13" lengthAdjust="spacing" textLength="44" x="1312" y="127.897">publish</text></g><!--MD5=[2f501fcfcdf394618f1cc48878fd912e]
link ToolKpiService to ActualCycleTimeTopic--><g id="link_ToolKpiService_ActualCycleTimeTopic"><path d="M1229.79,333.48 C1259.23,296.81 1319.87,228.02 1387,191 C1406.92,180.02 1429.94,171.85 1451.95,165.81 " fill="none" id="ToolKpiService-to-ActualCycleTimeTopic" style="stroke:#181818;stroke-width:1.0;"/><polygon fill="#181818" points="1456.93,164.48,1447.2038,162.9304,1452.0984,165.7665,1449.2623,170.6611,1456.93,164.48" style="stroke:#181818;stroke-width:1.0;"/><text fill="#000000" font-family="sans-serif" font-size="13" lengthAdjust="spacing" textLength="44" x="1312" y="208.897">publish</text></g><!--MD5=[ce333d94e6f69a143bb383e8ad7de4ba]
link ToolKpiService to TheoreticalCycleTimeTopic--><g id="link_ToolKpiService_TheoreticalCycleTimeTopic"><path d="M1256.69,333.36 C1291.65,315.21 1341.43,290.86 1387,274 C1402.45,268.28 1419.05,262.99 1435.4,258.23 " fill="none" id="ToolKpiService-to-TheoreticalCycleTimeTopic" style="stroke:#181818;stroke-width:1.0;"/><polygon fill="#181818" points="1440.46,256.77,1430.7047,255.4155,1435.6551,258.153,1432.9176,263.1034,1440.46,256.77" style="stroke:#181818;stroke-width:1.0;"/><text fill="#000000" font-family="sans-serif" font-size="13" lengthAdjust="spacing" textLength="44" x="1312" y="283.897">publish</text></g><!--MD5=[c5a23b20c7397f99b761f001121e83f4]
link ToolKpiService to PerformanceEfficiencyTopic--><g id="link_ToolKpiService_PerformanceEfficiencyTopic"><path d="M1279.36,349.25 C1323.38,343.61 1381.52,336.16 1431.63,329.75 " fill="none" id="ToolKpiService-to-PerformanceEfficiencyTopic" style="stroke:#181818;stroke-width:1.0;"/><polygon fill="#181818" points="1436.76,329.09,1427.3203,326.2807,1431.8015,329.733,1428.3492,334.2142,1436.76,329.09" style="stroke:#181818;stroke-width:1.0;"/><text fill="#000000" font-family="sans-serif" font-size="13" lengthAdjust="spacing" textLength="44" x="1312" y="335.897">publish</text></g><!--MD5=[8c764ce0f1ac096f5b1d99c9f3eb511d]
link ToolKpiService to OverallEquipmentEfficiencyTopic--><g id="link_ToolKpiService_OverallEquipmentEfficiencyTopic"><path d="M1279.22,377.56 C1289.79,380.06 1300.64,382.33 1311,384 C1343.99,389.33 1379.96,392.77 1413.37,395 " fill="none" id="ToolKpiService-to-OverallEquipmentEfficiencyTopic" style="stroke:#181818;stroke-width:1.0;"/><polygon fill="#181818" points="1418.71,395.34,1409.9925,390.7568,1413.7208,395.0112,1409.4664,398.7395,1418.71,395.34" style="stroke:#181818;stroke-width:1.0;"/><text fill="#000000" font-family="sans-serif" font-size="13" lengthAdjust="spacing" textLength="44" x="1312" y="379.897">publish</text></g><!--MD5=[6311a5d7f3288016cdfa36935ca9869b]
link ToolKpiService to TotalEffectiveEquipmentPerformanceTopic--><g id="link_ToolKpiService_TotalEffectiveEquipmentPerformanceTopic"><path d="M1247.91,382.51 C1266.33,394.02 1289.28,407.31 1311,417 C1347.34,433.2 1388.74,446.44 1426.2,456.63 " fill="none" id="ToolKpiService-to-TotalEffectiveEquipmentPerformanceTopic" style="stroke:#181818;stroke-width:1.0;"/><polygon fill="#181818" points="1431.22,457.99,1423.5694,451.7878,1426.3919,456.6901,1421.4896,459.5127,1431.22,457.99" style="stroke:#181818;stroke-width:1.0;"/><text fill="#000000" font-family="sans-serif" font-size="13" lengthAdjust="spacing" textLength="44" x="1312" y="412.897">publish</text></g><!--MD5=[3d0e51f043f90c50eca748f396d90ef7]
link ToolKpiService to UtilizationTopic--><g id="link_ToolKpiService_UtilizationTopic"><path d="M1229.63,382.72 C1258.88,419.62 1319.25,488.59 1387,524 C1413.57,537.89 1445.27,547.4 1472.83,553.74 " fill="none" id="ToolKpiService-to-UtilizationTopic" style="stroke:#181818;stroke-width:1.0;"/><polygon fill="#181818" points="1477.92,554.89,1470.0221,549.0059,1473.0428,553.7887,1468.26,556.8094,1477.92,554.89" style="stroke:#181818;stroke-width:1.0;"/><text fill="#000000" font-family="sans-serif" font-size="13" lengthAdjust="spacing" textLength="44" x="1312" y="465.897">publish</text></g><!--MD5=[6dddac1477e3d908047b566c402fec4b]
link ToolKpiService to QualityRateTopic--><g id="link_ToolKpiService_QualityRateTopic"><path d="M1220.22,382.82 C1240.96,434.74 1296.67,554.35 1387,607 C1411.56,621.32 1441.26,630.77 1467.87,636.94 " fill="none" id="ToolKpiService-to-QualityRateTopic" style="stroke:#181818;stroke-width:1.0;"/><polygon fill="#181818" points="1472.8,638.06,1464.9021,632.1759,1467.9228,636.9587,1463.14,639.9794,1472.8,638.06" style="stroke:#181818;stroke-width:1.0;"/><text fill="#000000" font-family="sans-serif" font-size="13" lengthAdjust="spacing" textLength="44" x="1312" y="537.897">publish</text></g><!--MD5=[d21be352b903e5abad3b8f3d8ffe5e00]
link AvailabilityTopic to DashboardService--><g id="link_AvailabilityTopic_DashboardService"><path d="M1604.77,77.52 C1632.91,83.82 1665.73,93.51 1693,108 C1800.06,164.88 1861.55,307.13 1884.07,369.22 " fill="none" id="AvailabilityTopic-to-DashboardService" style="stroke:#181818;stroke-width:1.0;"/><polygon fill="#181818" points="1885.88,374.27,1886.6162,364.4487,1884.1965,369.5619,1879.0833,367.1423,1885.88,374.27" style="stroke:#181818;stroke-width:1.0;"/><text fill="#000000" font-family="sans-serif" font-size="13" lengthAdjust="spacing" textLength="57" x="1724" y="124.897">subscribe</text></g><!--MD5=[d6a15d0c9d149adaa1068fc083c44690]
link ActualCycleTimeTopic to DashboardService--><g id="link_ActualCycleTimeTopic_DashboardService"><path d="M1623.05,165.37 C1646.41,171.52 1671.37,179.87 1693,191 C1775.84,233.62 1844.17,323.7 1875.52,370.07 " fill="none" id="ActualCycleTimeTopic-to-DashboardService" style="stroke:#181818;stroke-width:1.0;"/><polygon fill="#181818" points="1878.44,374.42,1876.7374,364.7194,1875.65,370.2708,1870.0987,369.1834,1878.44,374.42" style="stroke:#181818;stroke-width:1.0;"/><text fill="#000000" font-family="sans-serif" font-size="13" lengthAdjust="spacing" textLength="57" x="1724" y="207.897">subscribe</text></g><!--MD5=[82c06fd8f35a2910b3612aa978bb1f67]
link TheoreticalCycleTimeTopic to DashboardService--><g id="link_TheoreticalCycleTimeTopic_DashboardService"><path d="M1639.75,255.11 C1657.79,260.42 1676.2,266.7 1693,274 C1753.91,300.47 1818.02,343.33 1857.02,371.35 " fill="none" id="TheoreticalCycleTimeTopic-to-DashboardService" style="stroke:#181818;stroke-width:1.0;"/><polygon fill="#181818" points="1861.18,374.35,1856.2237,365.8391,1857.1259,371.4236,1851.5414,372.3258,1861.18,374.35" style="stroke:#181818;stroke-width:1.0;"/><text fill="#000000" font-family="sans-serif" font-size="13" lengthAdjust="spacing" textLength="57" x="1724" y="286.897">subscribe</text></g><!--MD5=[6f50afabe258f88fc57686b23d649e53]
link PerformanceEfficiencyTopic to DashboardService--><g id="link_PerformanceEfficiencyTopic_DashboardService"><path d="M1643.06,339.52 C1685.98,349.46 1736.44,361.21 1782,372 C1790.7,374.06 1799.78,376.22 1808.84,378.39 " fill="none" id="PerformanceEfficiencyTopic-to-DashboardService" style="stroke:#181818;stroke-width:1.0;"/><polygon fill="#181818" points="1813.87,379.6,1806.0547,373.6066,1809.0086,378.431,1804.1842,381.3849,1813.87,379.6" style="stroke:#181818;stroke-width:1.0;"/><text fill="#000000" font-family="sans-serif" font-size="13" lengthAdjust="spacing" textLength="57" x="1724" y="355.897">subscribe</text></g><!--MD5=[025c50602ea3efcda074a1a6845ba611]
link OverallEquipmentEfficiencyTopic to DashboardService--><g id="link_OverallEquipmentEfficiencyTopic_DashboardService"><path d="M1661,399 C1709.5,399 1764.36,399 1808.66,399 " fill="none" id="OverallEquipmentEfficiencyTopic-to-DashboardService" style="stroke:#181818;stroke-width:1.0;"/><polygon fill="#181818" points="1813.74,399,1804.74,395,1808.74,399,1804.74,403,1813.74,399" style="stroke:#181818;stroke-width:1.0;"/><text fill="#000000" font-family="sans-serif" font-size="13" lengthAdjust="spacing" textLength="57" x="1724" y="394.897">subscribe</text></g><!--MD5=[871484fa769e72a272a3bdecb3de9b8b]
link TotalEffectiveEquipmentPerformanceTopic to DashboardService--><g id="link_TotalEffectiveEquipmentPerformanceTopic_DashboardService"><path d="M1645.14,458 C1687.6,448.16 1737.17,436.61 1782,426 C1790.7,423.94 1799.78,421.78 1808.84,419.61 " fill="none" id="TotalEffectiveEquipmentPerformanceTopic-to-DashboardService" style="stroke:#181818;stroke-width:1.0;"/><polygon fill="#181818" points="1813.87,418.4,1804.1842,416.6151,1809.0086,419.569,1806.0547,424.3934,1813.87,418.4" style="stroke:#181818;stroke-width:1.0;"/><text fill="#000000" font-family="sans-serif" font-size="13" lengthAdjust="spacing" textLength="57" x="1724" y="421.897">subscribe</text></g><!--MD5=[f631fdd471011aad8260cfd15318801b]
link UtilizationTopic to DashboardService--><g id="link_UtilizationTopic_DashboardService"><path d="M1602.3,552.79 C1630.57,546.07 1664.17,536.53 1693,524 C1753.91,497.53 1818.02,454.67 1857.02,426.65 " fill="none" id="UtilizationTopic-to-DashboardService" style="stroke:#181818;stroke-width:1.0;"/><polygon fill="#181818" points="1861.18,423.65,1851.5414,425.6742,1857.1259,426.5764,1856.2237,432.1609,1861.18,423.65" style="stroke:#181818;stroke-width:1.0;"/><text fill="#000000" font-family="sans-serif" font-size="13" lengthAdjust="spacing" textLength="57" x="1724" y="473.897">subscribe</text></g><!--MD5=[c3d808582db5a20cf1101e7865d86155]
link QualityRateTopic to DashboardService--><g id="link_QualityRateTopic_DashboardService"><path d="M1607.22,636.54 C1634.73,630.17 1666.39,620.69 1693,607 C1775.84,564.38 1844.17,474.3 1875.52,427.93 " fill="none" id="QualityRateTopic-to-DashboardService" style="stroke:#181818;stroke-width:1.0;"/><polygon fill="#181818" points="1878.44,423.58,1870.0987,428.8166,1875.65,427.7292,1876.7374,433.2806,1878.44,423.58" style="stroke:#181818;stroke-width:1.0;"/><text fill="#000000" font-family="sans-serif" font-size="13" lengthAdjust="spacing" textLength="57" x="1724" y="536.897">subscribe</text></g><!--MD5=[9638fe09fa7e7aa520c12ce216eeeab8]
link DashboardUI to rest3--><g id="link_DashboardUI_rest3"><path d="M1919.22,615.79 C1956.6,560.74 2028.48,454.85 2053.86,417.47 " fill="none" id="DashboardUI-to-rest3" style="stroke:#181818;stroke-width:1.0;"/><polygon fill="#181818" points="2056.71,413.26,2048.3356,418.4436,2053.8938,417.3914,2054.9459,422.9496,2056.71,413.26" style="stroke:#181818;stroke-width:1.0;"/></g><!--MD5=[14e0aaf85c2e9368b2263fe682bdd815]
link MonitoringUser to DashboardUI--><g id="link_MonitoringUser_DashboardUI"><path d="M1593.09,732.69 C1653.39,716.12 1753.13,688.71 1821.11,670.03 " fill="none" id="MonitoringUser-to-DashboardUI" style="stroke:#181818;stroke-width:1.0;"/><polygon fill="#181818" points="1825.95,668.7,1816.2143,667.2114,1821.1265,670.0168,1818.3212,674.929,1825.95,668.7" style="stroke:#181818;stroke-width:1.0;"/></g><!--MD5=[08638b45b985744e04db490300d29f55]
@startuml
left to right direction

artifact "mes-tool-mock-ui" {
    component ToolMockUI <<SPA Frontend>>

}

artifact "mes-tool-mock-srv" #E3664A {
    component ToolMockService #FEFECE
    interface REST as rest2 #FEFECE
    ToolMockService - - rest2
}

actor MockUser

queue ToolStatusTopic <<EventTopic>>
queue PartsTopic <<EventTopic>>
queue UptimeTopic <<ValueTopic>>
queue YieldTopic <<ValueTopic>>

artifact "mes-tool-status-srv" {
    component ToolStatusService
}

artifact "mes-tool-product-srv" {
    component ToolProductService
}

artifact "mes-tool-kpi-srv" {
    component ToolKpiService
}

artifact "mes-tool-dashboard-service" {
    component DashboardService

    interface REST as rest3
    DashboardService - - rest3
}

artifact "mes-tool-dashboard-ui" {
    component DashboardUI <<SPA Frontend>>
}

actor MonitoringUser

queue AvailabilityTopic <<ValueTopic>>
queue ActualCycleTimeTopic <<ValueTopic>>
queue TheoreticalCycleTimeTopic <<ValueTopic>>
queue PerformanceEfficiencyTopic <<ValueTopic>>
queue OverallEquipmentEfficiencyTopic <<ValueTopic>>
queue TotalEffectiveEquipmentPerformanceTopic <<ValueTopic>>
queue UtilizationTopic <<ValueTopic>>
queue QualityRateTopic <<ValueTopic>>

MockUser - -> ToolMockUI
ToolMockUI - -> rest2

ToolMockService - -> ToolStatusTopic: publish
ToolMockService - -> PartsTopic: publish

ToolProductService - -> YieldTopic: publish
PartsTopic - -> ToolProductService: subscribe

ToolStatusService - -> UptimeTopic: publish
ToolStatusTopic - -> ToolStatusService: subscribe

UptimeTopic - -> ToolKpiService: subscribe
YieldTopic - -> ToolKpiService: subscribe

ToolKpiService - -> AvailabilityTopic: publish
ToolKpiService - -> ActualCycleTimeTopic: publish
ToolKpiService - -> TheoreticalCycleTimeTopic: publish
ToolKpiService - -> PerformanceEfficiencyTopic: publish
ToolKpiService - -> OverallEquipmentEfficiencyTopic: publish
ToolKpiService - -> TotalEffectiveEquipmentPerformanceTopic: publish
ToolKpiService - -> UtilizationTopic: publish
ToolKpiService - -> QualityRateTopic: publish

AvailabilityTopic - -> DashboardService: subscribe
ActualCycleTimeTopic - -> DashboardService: subscribe
TheoreticalCycleTimeTopic - -> DashboardService: subscribe
PerformanceEfficiencyTopic - -> DashboardService: subscribe
OverallEquipmentEfficiencyTopic - -> DashboardService: subscribe
TotalEffectiveEquipmentPerformanceTopic - -> DashboardService: subscribe
UtilizationTopic - -> DashboardService: subscribe
QualityRateTopic - -> DashboardService: subscribe

DashboardUI - -> rest3
MonitoringUser - -> DashboardUI

@enduml

PlantUML version 1.2022.13(Sat Nov 19 14:22:17 CET 2022)
(GPL source distribution)
Java Runtime: OpenJDK Runtime Environment
JVM: OpenJDK 64-Bit Server VM
Default Encoding: UTF-8
Language: en
Country: GB
--></g></svg>