<?xml version="1.0" encoding="UTF-8" standalone="no"?><svg xmlns="http://www.w3.org/2000/svg" xmlns:xlink="http://www.w3.org/1999/xlink" contentScriptType="application/ecmascript" contentStyleType="text/css" height="752px" preserveAspectRatio="none" style="width:2227px;height:752px;background:#FFFFFF;" version="1.1" viewBox="0 0 2227 752" width="2227px" zoomAndPan="magnify"><defs><filter height="300%" id="f1mrrjpjpvaroo" width="300%" x="-1" y="-1"><feGaussianBlur result="blurOut" stdDeviation="2.0"/><feColorMatrix in="blurOut" result="blurOut2" type="matrix" values="0 0 0 0 0 0 0 0 0 0 0 0 0 0 0 0 0 0 .4 0"/><feOffset dx="4.0" dy="4.0" in="blurOut2" result="blurOut3"/><feBlend in="SourceGraphic" in2="blurOut3" mode="normal"/></filter></defs><g><!--MD5=[77ef20e1859233c84e064dad961bfecc]
cluster mes-tool-mock-ui--><rect fill="#FFFFFF" filter="url(#f1mrrjpjpvaroo)" height="115" style="stroke:#000000;stroke-width:1.5;" width="185" x="126" y="7"/><polygon fill="#FFFFFF" points="294,12,294,26,306,26,306,18,300,12,294,12" style="stroke:#000000;stroke-width:1.5;"/><line style="stroke:#000000;stroke-width:1.5;" x1="300" x2="300" y1="12" y2="18"/><line style="stroke:#000000;stroke-width:1.5;" x1="306" x2="300" y1="18" y2="18"/><text fill="#000000" font-family="sans-serif" font-size="14" font-weight="bold" lengthAdjust="spacing" textLength="140" x="148.5" y="21.9951">mes-tool-mock-ui</text><!--MD5=[02421fe47f76e46ed0bd8f2e183b81d6]
cluster mes-tool-mock-srv--><rect fill="#FFFFFF" filter="url(#f1mrrjpjpvaroo)" height="109" style="stroke:#000000;stroke-width:1.5;" width="396" x="122" y="146"/><polygon fill="#FFFFFF" points="501,151,501,165,513,165,513,157,507,151,501,151" style="stroke:#000000;stroke-width:1.5;"/><line style="stroke:#000000;stroke-width:1.5;" x1="507" x2="507" y1="151" y2="157"/><line style="stroke:#000000;stroke-width:1.5;" x1="513" x2="507" y1="157" y2="157"/><text fill="#000000" font-family="sans-serif" font-size="14" font-weight="bold" lengthAdjust="spacing" textLength="149" x="245.5" y="160.9951">mes-tool-mock-srv</text><!--MD5=[67132e078036e067a8953ba78a575813]
cluster mes-tool-status-srv--><rect fill="#FFFFFF" filter="url(#f1mrrjpjpvaroo)" height="97" style="stroke:#000000;stroke-width:1.5;" width="200" x="657" y="232"/><polygon fill="#FFFFFF" points="840,237,840,251,852,251,852,243,846,237,840,237" style="stroke:#000000;stroke-width:1.5;"/><line style="stroke:#000000;stroke-width:1.5;" x1="846" x2="846" y1="237" y2="243"/><line style="stroke:#000000;stroke-width:1.5;" x1="852" x2="846" y1="243" y2="243"/><text fill="#000000" font-family="sans-serif" font-size="14" font-weight="bold" lengthAdjust="spacing" textLength="156" x="679" y="246.9951">mes-tool-status-srv</text><!--MD5=[1b42e503c4a15105aa690150965e29f0]
cluster mes-tool-product-srv--><rect fill="#FFFFFF" filter="url(#f1mrrjpjpvaroo)" height="97" style="stroke:#000000;stroke-width:1.5;" width="210" x="652" y="353"/><polygon fill="#FFFFFF" points="845,358,845,372,857,372,857,364,851,358,845,358" style="stroke:#000000;stroke-width:1.5;"/><line style="stroke:#000000;stroke-width:1.5;" x1="851" x2="851" y1="358" y2="364"/><line style="stroke:#000000;stroke-width:1.5;" x1="857" x2="851" y1="364" y2="364"/><text fill="#000000" font-family="sans-serif" font-size="14" font-weight="bold" lengthAdjust="spacing" textLength="169" x="672.5" y="367.9951">mes-tool-product-srv</text><!--MD5=[ef59dd3bf1ca8bc3a976ff076fc85818]
cluster mes-tool-kpi-srv--><rect fill="#FFFFFF" filter="url(#f1mrrjpjpvaroo)" height="97" style="stroke:#000000;stroke-width:1.5;" width="178" x="1185" y="280"/><polygon fill="#FFFFFF" points="1346,285,1346,299,1358,299,1358,291,1352,285,1346,285" style="stroke:#000000;stroke-width:1.5;"/><line style="stroke:#000000;stroke-width:1.5;" x1="1352" x2="1352" y1="285" y2="291"/><line style="stroke:#000000;stroke-width:1.5;" x1="1358" x2="1352" y1="291" y2="291"/><text fill="#000000" font-family="sans-serif" font-size="14" font-weight="bold" lengthAdjust="spacing" textLength="131" x="1208.5" y="294.9951">mes-tool-kpi-srv</text><!--MD5=[2589e3d9044e5b7fde759eb60390e84a]
cluster mes-tool-dashboard-service--><rect fill="#FFFFFF" filter="url(#f1mrrjpjpvaroo)" height="109" style="stroke:#000000;stroke-width:1.5;" width="324" x="1891" y="316"/><polygon fill="#FFFFFF" points="2198,321,2198,335,2210,335,2210,327,2204,321,2198,321" style="stroke:#000000;stroke-width:1.5;"/><line style="stroke:#000000;stroke-width:1.5;" x1="2204" x2="2204" y1="321" y2="327"/><line style="stroke:#000000;stroke-width:1.5;" x1="2210" x2="2204" y1="327" y2="327"/><text fill="#000000" font-family="sans-serif" font-size="14" font-weight="bold" lengthAdjust="spacing" textLength="223" x="1941.5" y="330.9951">mes-tool-dashboard-service</text><!--MD5=[5992a6eb49ce4a6b5e1cc72e016a10a4]
cluster mes-tool-dashboard-ui--><rect fill="#FFFFFF" filter="url(#f1mrrjpjpvaroo)" height="115" style="stroke:#000000;stroke-width:1.5;" width="197" x="1894" y="546"/><polygon fill="#FFFFFF" points="2074,551,2074,565,2086,565,2086,557,2080,551,2074,551" style="stroke:#000000;stroke-width:1.5;"/><line style="stroke:#000000;stroke-width:1.5;" x1="2080" x2="2080" y1="551" y2="557"/><line style="stroke:#000000;stroke-width:1.5;" x1="2086" x2="2080" y1="557" y2="557"/><text fill="#000000" font-family="sans-serif" font-size="14" font-weight="bold" lengthAdjust="spacing" textLength="181" x="1902" y="560.9951">mes-tool-dashboard-ui</text><!--MD5=[31adf453d3d3a03c36db45c6ee0cdf17]
entity ToolMockUI--><rect fill="#FEFECE" filter="url(#f1mrrjpjpvaroo)" height="62.5938" style="stroke:#A80036;stroke-width:1.5;" width="153" x="142" y="42.5"/><rect fill="#FEFECE" height="10" style="stroke:#A80036;stroke-width:1.5;" width="15" x="275" y="47.5"/><rect fill="#FEFECE" height="2" style="stroke:#A80036;stroke-width:1.5;" width="4" x="273" y="49.5"/><rect fill="#FEFECE" height="2" style="stroke:#A80036;stroke-width:1.5;" width="4" x="273" y="53.5"/><text fill="#000000" font-family="sans-serif" font-size="14" font-style="italic" lengthAdjust="spacing" textLength="113" x="157" y="75.4951">«SPA Frontend»</text><text fill="#000000" font-family="sans-serif" font-size="14" lengthAdjust="spacing" textLength="82" x="172.5" y="91.792">ToolMockUI</text><!--MD5=[d8afd4122f5d670393abc379c384980a]
entity ToolMockService--><rect fill="#FEFECE" filter="url(#f1mrrjpjpvaroo)" height="46.2969" style="stroke:#A80036;stroke-width:1.5;" width="161" x="138" y="193"/><rect fill="#FEFECE" height="10" style="stroke:#A80036;stroke-width:1.5;" width="15" x="279" y="198"/><rect fill="#FEFECE" height="2" style="stroke:#A80036;stroke-width:1.5;" width="4" x="277" y="200"/><rect fill="#FEFECE" height="2" style="stroke:#A80036;stroke-width:1.5;" width="4" x="277" y="204"/><text fill="#000000" font-family="sans-serif" font-size="14" lengthAdjust="spacing" textLength="121" x="153" y="225.9951">ToolMockService</text><!--MD5=[fd7328753abf7908d775959b6a79cb2d]
entity rest2--><ellipse cx="475" cy="210" fill="#FEFECE" filter="url(#f1mrrjpjpvaroo)" rx="8" ry="8" style="stroke:#A80036;stroke-width:1.5;"/><text fill="#000000" font-family="sans-serif" font-size="14" lengthAdjust="spacing" textLength="37" x="456.5" y="239.9951">REST</text><!--MD5=[50fd338cac3a9fc73f988a0f0b991225]
entity ToolStatusService--><rect fill="#FEFECE" filter="url(#f1mrrjpjpvaroo)" height="46.2969" style="stroke:#A80036;stroke-width:1.5;" width="168" x="673" y="267"/><rect fill="#FEFECE" height="10" style="stroke:#A80036;stroke-width:1.5;" width="15" x="821" y="272"/><rect fill="#FEFECE" height="2" style="stroke:#A80036;stroke-width:1.5;" width="4" x="819" y="274"/><rect fill="#FEFECE" height="2" style="stroke:#A80036;stroke-width:1.5;" width="4" x="819" y="278"/><text fill="#000000" font-family="sans-serif" font-size="14" lengthAdjust="spacing" textLength="128" x="688" y="299.9951">ToolStatusService</text><!--MD5=[21ad93cfa47a717d3af54f3584ded3af]
entity ToolProductService--><rect fill="#FEFECE" filter="url(#f1mrrjpjpvaroo)" height="46.2969" style="stroke:#A80036;stroke-width:1.5;" width="178" x="668" y="388"/><rect fill="#FEFECE" height="10" style="stroke:#A80036;stroke-width:1.5;" width="15" x="826" y="393"/><rect fill="#FEFECE" height="2" style="stroke:#A80036;stroke-width:1.5;" width="4" x="824" y="395"/><rect fill="#FEFECE" height="2" style="stroke:#A80036;stroke-width:1.5;" width="4" x="824" y="399"/><text fill="#000000" font-family="sans-serif" font-size="14" lengthAdjust="spacing" textLength="138" x="683" y="420.9951">ToolProductService</text><!--MD5=[6220ef2364383c332ad4ad5a015ea2b3]
entity ToolKpiService--><rect fill="#FEFECE" filter="url(#f1mrrjpjpvaroo)" height="46.2969" style="stroke:#A80036;stroke-width:1.5;" width="146" x="1201" y="315"/><rect fill="#FEFECE" height="10" style="stroke:#A80036;stroke-width:1.5;" width="15" x="1327" y="320"/><rect fill="#FEFECE" height="2" style="stroke:#A80036;stroke-width:1.5;" width="4" x="1325" y="322"/><rect fill="#FEFECE" height="2" style="stroke:#A80036;stroke-width:1.5;" width="4" x="1325" y="326"/><text fill="#000000" font-family="sans-serif" font-size="14" lengthAdjust="spacing" textLength="106" x="1216" y="347.9951">ToolKpiService</text><!--MD5=[c1d604df55a90fa098f4496cc3c2f734]
entity DashboardService--><rect fill="#FEFECE" filter="url(#f1mrrjpjpvaroo)" height="46.2969" style="stroke:#A80036;stroke-width:1.5;" width="171" x="1907" y="353"/><rect fill="#FEFECE" height="10" style="stroke:#A80036;stroke-width:1.5;" width="15" x="2058" y="358"/><rect fill="#FEFECE" height="2" style="stroke:#A80036;stroke-width:1.5;" width="4" x="2056" y="360"/><rect fill="#FEFECE" height="2" style="stroke:#A80036;stroke-width:1.5;" width="4" x="2056" y="364"/><text fill="#000000" font-family="sans-serif" font-size="14" lengthAdjust="spacing" textLength="131" x="1922" y="385.9951">DashboardService</text><!--MD5=[98ffb7722e6de6cdf870d33bfbb7236e]
entity rest3--><ellipse cx="2172" cy="380" fill="#FEFECE" filter="url(#f1mrrjpjpvaroo)" rx="8" ry="8" style="stroke:#A80036;stroke-width:1.5;"/><text fill="#000000" font-family="sans-serif" font-size="14" lengthAdjust="spacing" textLength="37" x="2153.5" y="409.9951">REST</text><!--MD5=[a0d7d244d60ec5bc815decbf45d658e2]
entity DashboardUI--><rect fill="#FEFECE" filter="url(#f1mrrjpjpvaroo)" height="62.5938" style="stroke:#A80036;stroke-width:1.5;" width="153" x="1916" y="581.5"/><rect fill="#FEFECE" height="10" style="stroke:#A80036;stroke-width:1.5;" width="15" x="2049" y="586.5"/><rect fill="#FEFECE" height="2" style="stroke:#A80036;stroke-width:1.5;" width="4" x="2047" y="588.5"/><rect fill="#FEFECE" height="2" style="stroke:#A80036;stroke-width:1.5;" width="4" x="2047" y="592.5"/><text fill="#000000" font-family="sans-serif" font-size="14" font-style="italic" lengthAdjust="spacing" textLength="113" x="1931" y="614.4951">«SPA Frontend»</text><text fill="#000000" font-family="sans-serif" font-size="14" lengthAdjust="spacing" textLength="92" x="1941.5" y="630.792">DashboardUI</text><!--MD5=[8852b909bd01658968a8bb6b4bf9803d]
entity MockUser--><ellipse cx="40.5" cy="43" fill="#FEFECE" filter="url(#f1mrrjpjpvaroo)" rx="8" ry="8" style="stroke:#A80036;stroke-width:1.5;"/><path d="M40.5,51 L40.5,78 M27.5,59 L53.5,59 M40.5,78 L27.5,93 M40.5,78 L53.5,93 " fill="none" filter="url(#f1mrrjpjpvaroo)" style="stroke:#A80036;stroke-width:1.5;"/><text fill="#000000" font-family="sans-serif" font-size="14" lengthAdjust="spacing" textLength="69" x="6" y="111.4951">MockUser</text><!--MD5=[e341806154685f679ccc8834901128e7]
entity ToolStatusTopic--><path d="M413,274.5 L537,274.5 C542,274.5 542,295.7969 542,295.7969 C542,295.7969 542,317.0938 537,317.0938 L413,317.0938 C408,317.0938 408,295.7969 408,295.7969 C408,295.7969 408,274.5 413,274.5 " fill="#FEFECE" filter="url(#f1mrrjpjpvaroo)" style="stroke:#A80036;stroke-width:1.5;"/><path d="M537,274.5 C532,274.5 532,295.7969 532,295.7969 C532,317.0938 537,317.0938 537,317.0938 " fill="none" style="stroke:#A80036;stroke-width:1.5;"/><text fill="#000000" font-family="sans-serif" font-size="14" font-style="italic" lengthAdjust="spacing" textLength="97" x="421.5" y="292.4951">«EventTopic»</text><text fill="#000000" font-family="sans-serif" font-size="14" lengthAdjust="spacing" textLength="114" x="413" y="308.792">ToolStatusTopic</text><!--MD5=[ccd8c717cc00c7c05ad9157f8c30bca0]
entity PartsTopic--><path d="M421.5,373.5 L528.5,373.5 C533.5,373.5 533.5,394.7969 533.5,394.7969 C533.5,394.7969 533.5,416.0938 528.5,416.0938 L421.5,416.0938 C416.5,416.0938 416.5,394.7969 416.5,394.7969 C416.5,394.7969 416.5,373.5 421.5,373.5 " fill="#FEFECE" filter="url(#f1mrrjpjpvaroo)" style="stroke:#A80036;stroke-width:1.5;"/><path d="M528.5,373.5 C523.5,373.5 523.5,394.7969 523.5,394.7969 C523.5,416.0938 528.5,416.0938 528.5,416.0938 " fill="none" style="stroke:#A80036;stroke-width:1.5;"/><text fill="#000000" font-family="sans-serif" font-size="14" font-style="italic" lengthAdjust="spacing" textLength="97" x="421.5" y="391.4951">«EventTopic»</text><text fill="#000000" font-family="sans-serif" font-size="14" lengthAdjust="spacing" textLength="74" x="433" y="407.792">PartsTopic</text><!--MD5=[1cfbc12258fe9a87ae7a75c104b0c48b]
entity UptimeTopic--><path d="M962,274.5 L1070,274.5 C1075,274.5 1075,295.7969 1075,295.7969 C1075,295.7969 1075,317.0938 1070,317.0938 L962,317.0938 C957,317.0938 957,295.7969 957,295.7969 C957,295.7969 957,274.5 962,274.5 " fill="#FEFECE" filter="url(#f1mrrjpjpvaroo)" style="stroke:#A80036;stroke-width:1.5;"/><path d="M1070,274.5 C1065,274.5 1065,295.7969 1065,295.7969 C1065,317.0938 1070,317.0938 1070,317.0938 " fill="none" style="stroke:#A80036;stroke-width:1.5;"/><text fill="#000000" font-family="sans-serif" font-size="14" font-style="italic" lengthAdjust="spacing" textLength="98" x="962" y="292.4951">«ValueTopic»</text><text fill="#000000" font-family="sans-serif" font-size="14" lengthAdjust="spacing" textLength="90" x="966" y="308.792">UptimeTopic</text><!--MD5=[07a9aad84e3bc6e1cf4b32db7cca1ef8]
entity YieldTopic--><path d="M962,357.5 L1070,357.5 C1075,357.5 1075,378.7969 1075,378.7969 C1075,378.7969 1075,400.0938 1070,400.0938 L962,400.0938 C957,400.0938 957,378.7969 957,378.7969 C957,378.7969 957,357.5 962,357.5 " fill="#FEFECE" filter="url(#f1mrrjpjpvaroo)" style="stroke:#A80036;stroke-width:1.5;"/><path d="M1070,357.5 C1065,357.5 1065,378.7969 1065,378.7969 C1065,400.0938 1070,400.0938 1070,400.0938 " fill="none" style="stroke:#A80036;stroke-width:1.5;"/><text fill="#000000" font-family="sans-serif" font-size="14" font-style="italic" lengthAdjust="spacing" textLength="98" x="962" y="375.4951">«ValueTopic»</text><text fill="#000000" font-family="sans-serif" font-size="14" lengthAdjust="spacing" textLength="74" x="974" y="391.792">YieldTopic</text><!--MD5=[a4238bb1be5a3ad66c485256afd84c75]
entity MonitoringUser--><ellipse cx="1621" cy="676" fill="#FEFECE" filter="url(#f1mrrjpjpvaroo)" rx="8" ry="8" style="stroke:#A80036;stroke-width:1.5;"/><path d="M1621,684 L1621,711 M1608,692 L1634,692 M1621,711 L1608,726 M1621,711 L1634,726 " fill="none" filter="url(#f1mrrjpjpvaroo)" style="stroke:#A80036;stroke-width:1.5;"/><text fill="#000000" font-family="sans-serif" font-size="14" lengthAdjust="spacing" textLength="108" x="1567" y="744.4951">MonitoringUser</text><!--MD5=[4cbff527ee8c184773760964e509dc74]
entity AvailabilityTopic--><path d="M1557.5,42.5 L1684.5,42.5 C1689.5,42.5 1689.5,63.7969 1689.5,63.7969 C1689.5,63.7969 1689.5,85.0938 1684.5,85.0938 L1557.5,85.0938 C1552.5,85.0938 1552.5,63.7969 1552.5,63.7969 C1552.5,63.7969 1552.5,42.5 1557.5,42.5 " fill="#FEFECE" filter="url(#f1mrrjpjpvaroo)" style="stroke:#A80036;stroke-width:1.5;"/><path d="M1684.5,42.5 C1679.5,42.5 1679.5,63.7969 1679.5,63.7969 C1679.5,85.0938 1684.5,85.0938 1684.5,85.0938 " fill="none" style="stroke:#A80036;stroke-width:1.5;"/><text fill="#000000" font-family="sans-serif" font-size="14" font-style="italic" lengthAdjust="spacing" textLength="98" x="1567" y="60.4951">«ValueTopic»</text><text fill="#000000" font-family="sans-serif" font-size="14" lengthAdjust="spacing" textLength="117" x="1557.5" y="76.792">AvailabilityTopic</text><!--MD5=[06b4f01b7f4fe635bcad3fc8adf07976]
entity ActualCycleTimeTopic--><path d="M1536.5,120.5 L1705.5,120.5 C1710.5,120.5 1710.5,141.7969 1710.5,141.7969 C1710.5,141.7969 1710.5,163.0938 1705.5,163.0938 L1536.5,163.0938 C1531.5,163.0938 1531.5,141.7969 1531.5,141.7969 C1531.5,141.7969 1531.5,120.5 1536.5,120.5 " fill="#FEFECE" filter="url(#f1mrrjpjpvaroo)" style="stroke:#A80036;stroke-width:1.5;"/><path d="M1705.5,120.5 C1700.5,120.5 1700.5,141.7969 1700.5,141.7969 C1700.5,163.0938 1705.5,163.0938 1705.5,163.0938 " fill="none" style="stroke:#A80036;stroke-width:1.5;"/><text fill="#000000" font-family="sans-serif" font-size="14" font-style="italic" lengthAdjust="spacing" textLength="98" x="1567" y="138.4951">«ValueTopic»</text><text fill="#000000" font-family="sans-serif" font-size="14" lengthAdjust="spacing" textLength="159" x="1536.5" y="154.792">ActualCycleTimeTopic</text><!--MD5=[dc37225742f05ed81b78bb90b3fad72b]
entity TheoreticalCycleTimeTopic--><path d="M1518.5,198.5 L1723.5,198.5 C1728.5,198.5 1728.5,219.7969 1728.5,219.7969 C1728.5,219.7969 1728.5,241.0938 1723.5,241.0938 L1518.5,241.0938 C1513.5,241.0938 1513.5,219.7969 1513.5,219.7969 C1513.5,219.7969 1513.5,198.5 1518.5,198.5 " fill="#FEFECE" filter="url(#f1mrrjpjpvaroo)" style="stroke:#A80036;stroke-width:1.5;"/><path d="M1723.5,198.5 C1718.5,198.5 1718.5,219.7969 1718.5,219.7969 C1718.5,241.0938 1723.5,241.0938 1723.5,241.0938 " fill="none" style="stroke:#A80036;stroke-width:1.5;"/><text fill="#000000" font-family="sans-serif" font-size="14" font-style="italic" lengthAdjust="spacing" textLength="98" x="1567" y="216.4951">«ValueTopic»</text><text fill="#000000" font-family="sans-serif" font-size="14" lengthAdjust="spacing" textLength="195" x="1518.5" y="232.792">TheoreticalCycleTimeTopic</text><!--MD5=[b4b1bfeb5a9aeb24f71210ef875c73e1]
entity PerformanceEfficiencyTopic--><path d="M1516,276.5 L1726,276.5 C1731,276.5 1731,297.7969 1731,297.7969 C1731,297.7969 1731,319.0938 1726,319.0938 L1516,319.0938 C1511,319.0938 1511,297.7969 1511,297.7969 C1511,297.7969 1511,276.5 1516,276.5 " fill="#FEFECE" filter="url(#f1mrrjpjpvaroo)" style="stroke:#A80036;stroke-width:1.5;"/><path d="M1726,276.5 C1721,276.5 1721,297.7969 1721,297.7969 C1721,319.0938 1726,319.0938 1726,319.0938 " fill="none" style="stroke:#A80036;stroke-width:1.5;"/><text fill="#000000" font-family="sans-serif" font-size="14" font-style="italic" lengthAdjust="spacing" textLength="98" x="1567" y="294.4951">«ValueTopic»</text><text fill="#000000" font-family="sans-serif" font-size="14" lengthAdjust="spacing" textLength="200" x="1516" y="310.792">PerformanceEfficiencyTopic</text><!--MD5=[80df8831f3cb31c39188cd816949ec90]
entity OverallEquipmentEfficiencyTopic--><path d="M1498,354.5 L1744,354.5 C1749,354.5 1749,375.7969 1749,375.7969 C1749,375.7969 1749,397.0938 1744,397.0938 L1498,397.0938 C1493,397.0938 1493,375.7969 1493,375.7969 C1493,375.7969 1493,354.5 1498,354.5 " fill="#FEFECE" filter="url(#f1mrrjpjpvaroo)" style="stroke:#A80036;stroke-width:1.5;"/><path d="M1744,354.5 C1739,354.5 1739,375.7969 1739,375.7969 C1739,397.0938 1744,397.0938 1744,397.0938 " fill="none" style="stroke:#A80036;stroke-width:1.5;"/><text fill="#000000" font-family="sans-serif" font-size="14" font-style="italic" lengthAdjust="spacing" textLength="98" x="1567" y="372.4951">«ValueTopic»</text><text fill="#000000" font-family="sans-serif" font-size="14" lengthAdjust="spacing" textLength="236" x="1498" y="388.792">OverallEquipmentEfficiencyTopic</text><!--MD5=[3bc48e714c4dd38c0f2f258c5c3ae54e]
entity TotalEffectiveEquipmentPerformanceTopic--><path d="M1463,432.5 L1779,432.5 C1784,432.5 1784,453.7969 1784,453.7969 C1784,453.7969 1784,475.0938 1779,475.0938 L1463,475.0938 C1458,475.0938 1458,453.7969 1458,453.7969 C1458,453.7969 1458,432.5 1463,432.5 " fill="#FEFECE" filter="url(#f1mrrjpjpvaroo)" style="stroke:#A80036;stroke-width:1.5;"/><path d="M1779,432.5 C1774,432.5 1774,453.7969 1774,453.7969 C1774,475.0938 1779,475.0938 1779,475.0938 " fill="none" style="stroke:#A80036;stroke-width:1.5;"/><text fill="#000000" font-family="sans-serif" font-size="14" font-style="italic" lengthAdjust="spacing" textLength="98" x="1567" y="450.4951">«ValueTopic»</text><text fill="#000000" font-family="sans-serif" font-size="14" lengthAdjust="spacing" textLength="306" x="1463" y="466.792">TotalEffectiveEquipmentPerformanceTopic</text><!--MD5=[ca3f1681fc6f8d7ff21e20ef06c9249e]
entity UtilizationTopic--><path d="M1561.5,510.5 L1680.5,510.5 C1685.5,510.5 1685.5,531.7969 1685.5,531.7969 C1685.5,531.7969 1685.5,553.0938 1680.5,553.0938 L1561.5,553.0938 C1556.5,553.0938 1556.5,531.7969 1556.5,531.7969 C1556.5,531.7969 1556.5,510.5 1561.5,510.5 " fill="#FEFECE" filter="url(#f1mrrjpjpvaroo)" style="stroke:#A80036;stroke-width:1.5;"/><path d="M1680.5,510.5 C1675.5,510.5 1675.5,531.7969 1675.5,531.7969 C1675.5,553.0938 1680.5,553.0938 1680.5,553.0938 " fill="none" style="stroke:#A80036;stroke-width:1.5;"/><text fill="#000000" font-family="sans-serif" font-size="14" font-style="italic" lengthAdjust="spacing" textLength="98" x="1567" y="528.4951">«ValueTopic»</text><text fill="#000000" font-family="sans-serif" font-size="14" lengthAdjust="spacing" textLength="109" x="1561.5" y="544.792">UtilizationTopic</text><!--MD5=[8e03c0435171a6ea5594e66bd9c54651]
entity QualityRateTopic--><path d="M1555,588.5 L1687,588.5 C1692,588.5 1692,609.7969 1692,609.7969 C1692,609.7969 1692,631.0938 1687,631.0938 L1555,631.0938 C1550,631.0938 1550,609.7969 1550,609.7969 C1550,609.7969 1550,588.5 1555,588.5 " fill="#FEFECE" filter="url(#f1mrrjpjpvaroo)" style="stroke:#A80036;stroke-width:1.5;"/><path d="M1687,588.5 C1682,588.5 1682,609.7969 1682,609.7969 C1682,631.0938 1687,631.0938 1687,631.0938 " fill="none" style="stroke:#A80036;stroke-width:1.5;"/><text fill="#000000" font-family="sans-serif" font-size="14" font-style="italic" lengthAdjust="spacing" textLength="98" x="1567" y="606.4951">«ValueTopic»</text><text fill="#000000" font-family="sans-serif" font-size="14" lengthAdjust="spacing" textLength="122" x="1555" y="622.792">QualityRateTopic</text><!--MD5=[dcbddf4c40e0fec2b86893bf6e1176c0]
link ToolMockService to rest2--><path d="M299.33,214.12 C361.14,212.66 440.36,210.79 465.77,210.19 " fill="none" id="ToolMockService-rest2" style="stroke:#A80036;stroke-width:1.0;"/><!--MD5=[d662fe6951f9a5b88cf356973985ddc0]
link DashboardService to rest3--><path d="M2078.09,377.91 C2112.38,378.68 2147.5,379.47 2162.91,379.82 " fill="none" id="DashboardService-rest3" style="stroke:#A80036;stroke-width:1.0;"/><!--MD5=[eb8c07c10b256b24383f408ba011e430]
link MockUser to ToolMockUI--><path d="M75.02,74 C92.56,74 114.87,74 136.59,74 " fill="none" id="MockUser-to-ToolMockUI" style="stroke:#A80036;stroke-width:1.0;"/><polygon fill="#A80036" points="141.8,74,132.8,70,136.8,74,132.8,78,141.8,74" style="stroke:#A80036;stroke-width:1.0;"/><!--MD5=[3a0b4b88f2a1895e2ea8ebc8b9d153c0]
link ToolMockUI to rest2--><path d="M278.53,105.54 C338.99,137.85 428.62,185.75 461.41,203.27 " fill="none" id="ToolMockUI-to-rest2" style="stroke:#A80036;stroke-width:1.0;"/><polygon fill="#A80036" points="465.82,205.63,459.7651,197.8622,461.4094,203.2748,455.9968,204.9192,465.82,205.63" style="stroke:#A80036;stroke-width:1.0;"/><!--MD5=[822261c62e0d9e3666936296070feba3]
link ToolMockService to ToolStatusTopic--><path d="M292.77,239.03 C327.34,249.9 368.44,262.82 402.75,273.6 " fill="none" id="ToolMockService-to-ToolStatusTopic" style="stroke:#A80036;stroke-width:1.0;"/><polygon fill="#A80036" points="407.76,275.18,400.3739,268.665,402.9901,273.6805,397.9747,276.2968,407.76,275.18" style="stroke:#A80036;stroke-width:1.0;"/><text fill="#000000" font-family="sans-serif" font-size="13" lengthAdjust="spacing" textLength="47" x="330" y="248.0669">publish</text><!--MD5=[627f3743afae37e010550025ccc1028c]
link ToolMockService to PartsTopic--><path d="M252.25,239.03 C300.34,272.86 389.67,335.69 439.01,370.39 " fill="none" id="ToolMockService-to-PartsTopic" style="stroke:#A80036;stroke-width:1.0;"/><polygon fill="#A80036" points="443.36,373.45,438.2827,365.0107,439.2645,370.5817,433.6935,371.5635,443.36,373.45" style="stroke:#A80036;stroke-width:1.0;"/><text fill="#000000" font-family="sans-serif" font-size="13" lengthAdjust="spacing" textLength="47" x="330" y="291.0669">publish</text><!--MD5=[0a82ad0bbc439950d3a736dd6fa11c26]
link ToolProductService to YieldTopic--><path d="M846.09,400.03 C880.84,395.7 919.99,390.83 951.84,386.86 " fill="none" id="ToolProductService-to-YieldTopic" style="stroke:#A80036;stroke-width:1.0;"/><polygon fill="#A80036" points="956.89,386.24,947.4583,383.4039,951.9297,386.869,948.4647,391.3404,956.89,386.24" style="stroke:#A80036;stroke-width:1.0;"/><text fill="#000000" font-family="sans-serif" font-size="13" lengthAdjust="spacing" textLength="47" x="879" y="387.0669">publish</text><!--MD5=[7955fe474cb6f1049c199b8aee0a25dc]
link PartsTopic to ToolProductService--><path d="M533.68,398.3 C570.83,400.42 619.98,403.23 662.61,405.66 " fill="none" id="PartsTopic-to-ToolProductService" style="stroke:#A80036;stroke-width:1.0;"/><polygon fill="#A80036" points="667.78,405.96,659.0236,401.4516,662.7882,405.6739,658.5659,409.4385,667.78,405.96" style="stroke:#A80036;stroke-width:1.0;"/><text fill="#000000" font-family="sans-serif" font-size="13" lengthAdjust="spacing" textLength="62" x="573" y="397.0669">subscribe</text><!--MD5=[54a963cc4adc0bc24736aaaeb694bf46]
link ToolStatusService to UptimeTopic--><path d="M841.09,291.94 C877,292.78 918.35,293.74 951.71,294.52 " fill="none" id="ToolStatusService-to-UptimeTopic" style="stroke:#A80036;stroke-width:1.0;"/><polygon fill="#A80036" points="957,294.65,948.0938,290.4454,952.0013,294.5357,947.9109,298.4433,957,294.65" style="stroke:#A80036;stroke-width:1.0;"/><text fill="#000000" font-family="sans-serif" font-size="13" lengthAdjust="spacing" textLength="47" x="879" y="289.0669">publish</text><!--MD5=[4bbf3590d52687ae9f2a383f93329130]
link ToolStatusTopic to ToolStatusService--><path d="M542,294.59 C579.45,293.78 626.8,292.77 667.44,291.9 " fill="none" id="ToolStatusTopic-to-ToolStatusService" style="stroke:#A80036;stroke-width:1.0;"/><polygon fill="#A80036" points="672.87,291.78,663.7918,287.9608,667.871,291.88,663.9518,295.9592,672.87,291.78" style="stroke:#A80036;stroke-width:1.0;"/><text fill="#000000" font-family="sans-serif" font-size="13" lengthAdjust="spacing" textLength="62" x="573" y="289.0669">subscribe</text><!--MD5=[9c14d9dc294724011db198accb7ecb64]
link UptimeTopic to ToolKpiService--><path d="M1075.09,305.53 C1110.81,311.39 1157.01,318.97 1195.78,325.33 " fill="none" id="UptimeTopic-to-ToolKpiService" style="stroke:#A80036;stroke-width:1.0;"/><polygon fill="#A80036" points="1200.96,326.18,1192.7299,320.7703,1196.0265,325.3673,1191.4295,328.6639,1200.96,326.18" style="stroke:#A80036;stroke-width:1.0;"/><text fill="#000000" font-family="sans-serif" font-size="13" lengthAdjust="spacing" textLength="62" x="1106" y="307.0669">subscribe</text><!--MD5=[73dbd6af11b120b97224bed8a236c0ac]
link YieldTopic to ToolKpiService--><path d="M1075.08,377.05 C1103.55,375.42 1138.24,372.45 1169,367 C1177.8,365.44 1186.93,363.46 1195.96,361.26 " fill="none" id="YieldTopic-to-ToolKpiService" style="stroke:#A80036;stroke-width:1.0;"/><polygon fill="#A80036" points="1200.96,360.02,1191.2633,358.2954,1196.1059,361.2192,1193.1821,366.0619,1200.96,360.02" style="stroke:#A80036;stroke-width:1.0;"/><text fill="#000000" font-family="sans-serif" font-size="13" lengthAdjust="spacing" textLength="62" x="1106" y="363.0669">subscribe</text><!--MD5=[b1fb73764130f4247c7134c2ffc437bd]
link ToolKpiService to AvailabilityTopic--><path d="M1285.02,314.71 C1307.62,265.46 1367.71,151.28 1458,103 C1485.37,88.36 1518.25,79.14 1547.22,73.37 " fill="none" id="ToolKpiService-to-AvailabilityTopic" style="stroke:#A80036;stroke-width:1.0;"/><polygon fill="#A80036" points="1552.21,72.41,1542.6175,70.1775,1547.2996,73.3521,1544.1249,78.0342,1552.21,72.41" style="stroke:#A80036;stroke-width:1.0;"/><text fill="#000000" font-family="sans-serif" font-size="13" lengthAdjust="spacing" textLength="47" x="1380" y="121.0669">publish</text><!--MD5=[2f501fcfcdf394618f1cc48878fd912e]
link ToolKpiService to ActualCycleTimeTopic--><path d="M1294.65,314.97 C1325.66,280.21 1389.5,214.82 1458,181 C1479.19,170.54 1503.35,162.78 1526.43,157.07 " fill="none" id="ToolKpiService-to-ActualCycleTimeTopic" style="stroke:#A80036;stroke-width:1.0;"/><polygon fill="#A80036" points="1531.34,155.88,1521.653,154.1016,1526.4794,157.0523,1523.5287,161.8786,1531.34,155.88" style="stroke:#A80036;stroke-width:1.0;"/><text fill="#000000" font-family="sans-serif" font-size="13" lengthAdjust="spacing" textLength="47" x="1380" y="197.0669">publish</text><!--MD5=[ce333d94e6f69a143bb383e8ad7de4ba]
link ToolKpiService to TheoreticalCycleTimeTopic--><path d="M1322.29,314.92 C1358.73,297.79 1410.73,274.76 1458,259 C1475.68,253.1 1494.73,247.7 1513.33,242.92 " fill="none" id="ToolKpiService-to-TheoreticalCycleTimeTopic" style="stroke:#A80036;stroke-width:1.0;"/><polygon fill="#A80036" points="1518.57,241.59,1508.8627,239.9259,1513.7235,242.8195,1510.8299,247.6803,1518.57,241.59" style="stroke:#A80036;stroke-width:1.0;"/><text fill="#000000" font-family="sans-serif" font-size="13" lengthAdjust="spacing" textLength="47" x="1380" y="266.0669">publish</text><!--MD5=[c5a23b20c7397f99b761f001121e83f4]
link ToolKpiService to PerformanceEfficiencyTopic--><path d="M1347.32,329.61 C1393.17,324.3 1453.46,317.31 1505.68,311.25 " fill="none" id="ToolKpiService-to-PerformanceEfficiencyTopic" style="stroke:#A80036;stroke-width:1.0;"/><polygon fill="#A80036" points="1510.71,310.67,1501.3038,307.7505,1505.7443,311.255,1502.2398,315.6956,1510.71,310.67" style="stroke:#A80036;stroke-width:1.0;"/><text fill="#000000" font-family="sans-serif" font-size="13" lengthAdjust="spacing" textLength="47" x="1380" y="317.0669">publish</text><!--MD5=[8c764ce0f1ac096f5b1d99c9f3eb511d]
link ToolKpiService to OverallEquipmentEfficiencyTopic--><path d="M1347.09,357.95 C1357.72,360.33 1368.6,362.46 1379,364 C1414.05,369.2 1452.25,372.28 1487.69,374.06 " fill="none" id="ToolKpiService-to-OverallEquipmentEfficiencyTopic" style="stroke:#A80036;stroke-width:1.0;"/><polygon fill="#A80036" points="1492.9,374.32,1484.1053,369.8869,1487.9059,374.0767,1483.716,377.8774,1492.9,374.32" style="stroke:#A80036;stroke-width:1.0;"/><text fill="#000000" font-family="sans-serif" font-size="13" lengthAdjust="spacing" textLength="47" x="1380" y="360.0669">publish</text><!--MD5=[6311a5d7f3288016cdfa36935ca9869b]
link ToolKpiService to TotalEffectiveEquipmentPerformanceTopic--><path d="M1311.92,361.23 C1331.31,372.65 1355.81,385.88 1379,395 C1417.27,410.05 1460.51,422.08 1499.69,431.25 " fill="none" id="ToolKpiService-to-TotalEffectiveEquipmentPerformanceTopic" style="stroke:#A80036;stroke-width:1.0;"/><polygon fill="#A80036" points="1504.95,432.47,1497.085,426.542,1500.079,431.3415,1495.2794,434.3355,1504.95,432.47" style="stroke:#A80036;stroke-width:1.0;"/><text fill="#000000" font-family="sans-serif" font-size="13" lengthAdjust="spacing" textLength="47" x="1380" y="391.0669">publish</text><!--MD5=[3d0e51f043f90c50eca748f396d90ef7]
link ToolKpiService to UtilizationTopic--><path d="M1294.55,361.08 C1325.42,395.85 1389.08,460.99 1458,493 C1487.14,506.53 1521.49,515.67 1551.05,521.67 " fill="none" id="ToolKpiService-to-UtilizationTopic" style="stroke:#A80036;stroke-width:1.0;"/><polygon fill="#A80036" points="1556.13,522.68,1548.0797,517.0062,1551.2255,521.7077,1546.524,524.8534,1556.13,522.68" style="stroke:#A80036;stroke-width:1.0;"/><text fill="#000000" font-family="sans-serif" font-size="13" lengthAdjust="spacing" textLength="47" x="1380" y="439.0669">publish</text><!--MD5=[6dddac1477e3d908047b566c402fec4b]
link ToolKpiService to QualityRateTopic--><path d="M1285.07,361.11 C1307.76,409.99 1368.03,523.28 1458,571 C1484.59,585.1 1516.31,594.18 1544.62,599.99 " fill="none" id="ToolKpiService-to-QualityRateTopic" style="stroke:#A80036;stroke-width:1.0;"/><polygon fill="#A80036" points="1549.86,601.04,1541.8256,595.3436,1544.9582,600.0539,1540.2479,603.1865,1549.86,601.04" style="stroke:#A80036;stroke-width:1.0;"/><text fill="#000000" font-family="sans-serif" font-size="13" lengthAdjust="spacing" textLength="47" x="1380" y="507.0669">publish</text><!--MD5=[d21be352b903e5abad3b8f3d8ffe5e00]
link AvailabilityTopic to DashboardService--><path d="M1689.55,73.74 C1719.47,79.68 1754.49,88.93 1784,103 C1831.5,125.65 1843.47,135.28 1878,175 C1925.37,229.49 1962.28,306.85 1979.99,347.89 " fill="none" id="AvailabilityTopic-to-DashboardService" style="stroke:#A80036;stroke-width:1.0;"/><polygon fill="#A80036" points="1982.06,352.71,1982.1913,342.862,1980.0904,348.1143,1974.8381,346.0134,1982.06,352.71" style="stroke:#A80036;stroke-width:1.0;"/><text fill="#000000" font-family="sans-serif" font-size="13" lengthAdjust="spacing" textLength="62" x="1815" y="115.0669">subscribe</text><!--MD5=[d6a15d0c9d149adaa1068fc083c44690]
link ActualCycleTimeTopic to DashboardService--><path d="M1710.69,156.79 C1735.1,162.61 1761.14,170.48 1784,181 C1867.53,219.44 1939.22,304.96 1972.18,348.86 " fill="none" id="ActualCycleTimeTopic-to-DashboardService" style="stroke:#A80036;stroke-width:1.0;"/><polygon fill="#A80036" points="1975.25,352.97,1973.0884,343.3613,1972.266,348.958,1966.6693,348.1357,1975.25,352.97" style="stroke:#A80036;stroke-width:1.0;"/><text fill="#000000" font-family="sans-serif" font-size="13" lengthAdjust="spacing" textLength="62" x="1815" y="196.0669">subscribe</text><!--MD5=[82c06fd8f35a2910b3612aa978bb1f67]
link TheoreticalCycleTimeTopic to DashboardService--><path d="M1728.75,241.24 C1747.45,246.21 1766.5,252.12 1784,259 C1846.2,283.47 1912.56,323.67 1953.04,349.99 " fill="none" id="TheoreticalCycleTimeTopic-to-DashboardService" style="stroke:#A80036;stroke-width:1.0;"/><polygon fill="#A80036" points="1957.36,352.81,1952.0049,344.5443,1953.1714,350.0795,1947.6361,351.2461,1957.36,352.81" style="stroke:#A80036;stroke-width:1.0;"/><text fill="#000000" font-family="sans-serif" font-size="13" lengthAdjust="spacing" textLength="62" x="1815" y="270.0669">subscribe</text><!--MD5=[6f50afabe258f88fc57686b23d649e53]
link PerformanceEfficiencyTopic to DashboardService--><path d="M1727.62,319.55 C1773.81,329.06 1828.62,340.45 1878,351 C1885.76,352.66 1893.82,354.4 1901.89,356.15 " fill="none" id="PerformanceEfficiencyTopic-to-DashboardService" style="stroke:#A80036;stroke-width:1.0;"/><polygon fill="#A80036" points="1906.92,357.25,1898.9695,351.4371,1902.0331,356.1926,1897.2776,359.2562,1906.92,357.25" style="stroke:#A80036;stroke-width:1.0;"/><text fill="#000000" font-family="sans-serif" font-size="13" lengthAdjust="spacing" textLength="62" x="1815" y="334.0669">subscribe</text><!--MD5=[025c50602ea3efcda074a1a6845ba611]
link OverallEquipmentEfficiencyTopic to DashboardService--><path d="M1749.16,376 C1799.31,376 1855.76,376 1901.54,376 " fill="none" id="OverallEquipmentEfficiencyTopic-to-DashboardService" style="stroke:#A80036;stroke-width:1.0;"/><polygon fill="#A80036" points="1906.79,376,1897.79,372,1901.79,376,1897.79,380,1906.79,376" style="stroke:#A80036;stroke-width:1.0;"/><text fill="#000000" font-family="sans-serif" font-size="13" lengthAdjust="spacing" textLength="62" x="1815" y="372.0669">subscribe</text><!--MD5=[871484fa769e72a272a3bdecb3de9b8b]
link TotalEffectiveEquipmentPerformanceTopic to DashboardService--><path d="M1727.62,432.45 C1773.81,422.94 1828.62,411.55 1878,401 C1885.76,399.34 1893.82,397.6 1901.89,395.85 " fill="none" id="TotalEffectiveEquipmentPerformanceTopic-to-DashboardService" style="stroke:#A80036;stroke-width:1.0;"/><polygon fill="#A80036" points="1906.92,394.75,1897.2776,392.7438,1902.0331,395.8074,1898.9695,400.5629,1906.92,394.75" style="stroke:#A80036;stroke-width:1.0;"/><text fill="#000000" font-family="sans-serif" font-size="13" lengthAdjust="spacing" textLength="62" x="1815" y="397.0669">subscribe</text><!--MD5=[f631fdd471011aad8260cfd15318801b]
link UtilizationTopic to DashboardService--><path d="M1685.56,520.95 C1715.96,514.6 1752.5,505.39 1784,493 C1846.2,468.53 1912.56,428.33 1953.04,402.01 " fill="none" id="UtilizationTopic-to-DashboardService" style="stroke:#A80036;stroke-width:1.0;"/><polygon fill="#A80036" points="1957.36,399.19,1947.6361,400.7539,1953.1714,401.9205,1952.0049,407.4557,1957.36,399.19" style="stroke:#A80036;stroke-width:1.0;"/><text fill="#000000" font-family="sans-serif" font-size="13" lengthAdjust="spacing" textLength="62" x="1815" y="443.0669">subscribe</text><!--MD5=[c3d808582db5a20cf1101e7865d86155]
link QualityRateTopic to DashboardService--><path d="M1692.17,599.31 C1721.43,593.29 1755.22,584.24 1784,571 C1867.53,532.56 1939.22,447.04 1972.18,403.14 " fill="none" id="QualityRateTopic-to-DashboardService" style="stroke:#A80036;stroke-width:1.0;"/><polygon fill="#A80036" points="1975.25,399.03,1966.6693,403.8643,1972.266,403.042,1973.0884,408.6387,1975.25,399.03" style="stroke:#A80036;stroke-width:1.0;"/><text fill="#000000" font-family="sans-serif" font-size="13" lengthAdjust="spacing" textLength="62" x="1815" y="506.0669">subscribe</text><!--MD5=[9638fe09fa7e7aa520c12ce216eeeab8]
link DashboardUI to rest3--><path d="M2017.81,581.09 C2057.22,529.35 2133.43,429.32 2160.86,393.32 " fill="none" id="DashboardUI-to-rest3" style="stroke:#A80036;stroke-width:1.0;"/><polygon fill="#A80036" points="2163.95,389.25,2155.3118,393.981,2160.9181,393.2258,2161.6732,398.8321,2163.95,389.25" style="stroke:#A80036;stroke-width:1.0;"/><!--MD5=[14e0aaf85c2e9368b2263fe682bdd815]
link MonitoringUser to DashboardUI--><path d="M1675.33,693.43 C1737.01,677.74 1839.19,651.75 1910.65,633.57 " fill="none" id="MonitoringUser-to-DashboardUI" style="stroke:#A80036;stroke-width:1.0;"/><polygon fill="#A80036" points="1915.74,632.27,1906.0282,630.6328,1910.8969,633.5129,1908.0168,638.3817,1915.74,632.27" style="stroke:#A80036;stroke-width:1.0;"/><!--MD5=[6a2e9d07c1c26f141b17b931ef71a6db]
@startuml
left to right direction

artifact "mes-tool-mock-ui" {
    component ToolMockUI <<SPA Frontend>>

}

artifact "mes-tool-mock-srv" {
    component ToolMockService
    interface REST as rest2
    ToolMockService - - rest2
}

actor MockUser

queue ToolStatusTopic <<EventTopic>>
queue PartsTopic <<EventTopic>>
queue UptimeTopic <<ValueTopic>>
queue YieldTopic <<ValueTopic>>

artifact "mes-tool-status-srv" {
    component ToolStatusService
}

artifact "mes-tool-product-srv" {
    component ToolProductService
}

artifact "mes-tool-kpi-srv" {
    component ToolKpiService
}

artifact "mes-tool-dashboard-service" {
    component DashboardService

    interface REST as rest3
    DashboardService - - rest3
}

artifact "mes-tool-dashboard-ui" {
    component DashboardUI <<SPA Frontend>>
}

actor MonitoringUser

queue AvailabilityTopic <<ValueTopic>>
queue ActualCycleTimeTopic <<ValueTopic>>
queue TheoreticalCycleTimeTopic <<ValueTopic>>
queue PerformanceEfficiencyTopic <<ValueTopic>>
queue OverallEquipmentEfficiencyTopic <<ValueTopic>>
queue TotalEffectiveEquipmentPerformanceTopic <<ValueTopic>>
queue UtilizationTopic <<ValueTopic>>
queue QualityRateTopic <<ValueTopic>>

MockUser - -> ToolMockUI
ToolMockUI - -> rest2

ToolMockService - -> ToolStatusTopic: publish
ToolMockService - -> PartsTopic: publish

ToolProductService - -> YieldTopic: publish
PartsTopic - -> ToolProductService: subscribe

ToolStatusService - -> UptimeTopic: publish
ToolStatusTopic - -> ToolStatusService: subscribe

UptimeTopic - -> ToolKpiService: subscribe
YieldTopic - -> ToolKpiService: subscribe

ToolKpiService - -> AvailabilityTopic: publish
ToolKpiService - -> ActualCycleTimeTopic: publish
ToolKpiService - -> TheoreticalCycleTimeTopic: publish
ToolKpiService - -> PerformanceEfficiencyTopic: publish
ToolKpiService - -> OverallEquipmentEfficiencyTopic: publish
ToolKpiService - -> TotalEffectiveEquipmentPerformanceTopic: publish
ToolKpiService - -> UtilizationTopic: publish
ToolKpiService - -> QualityRateTopic: publish

AvailabilityTopic - -> DashboardService: subscribe
ActualCycleTimeTopic - -> DashboardService: subscribe
TheoreticalCycleTimeTopic - -> DashboardService: subscribe
PerformanceEfficiencyTopic - -> DashboardService: subscribe
OverallEquipmentEfficiencyTopic - -> DashboardService: subscribe
TotalEffectiveEquipmentPerformanceTopic - -> DashboardService: subscribe
UtilizationTopic - -> DashboardService: subscribe
QualityRateTopic - -> DashboardService: subscribe

DashboardUI - -> rest3
MonitoringUser - -> DashboardUI

@enduml

PlantUML version 1.2022.1(Tue Feb 01 19:19:58 CET 2022)
(GPL source distribution)
Java Runtime: OpenJDK Runtime Environment
JVM: OpenJDK 64-Bit Server VM
Default Encoding: UTF-8
Language: en
Country: GB
--></g></svg>