<?xml version="1.0" encoding="UTF-8" standalone="no"?><svg xmlns="http://www.w3.org/2000/svg" xmlns:xlink="http://www.w3.org/1999/xlink" contentStyleType="text/css" height="686.2287px" preserveAspectRatio="none" style="width:352px;height:686px;background:#FFFFFF;" version="1.1" viewBox="0 0 352 686" width="352.6507px" zoomAndPan="magnify"><defs/><g><ellipse cx="175.1576" cy="6.2278" fill="#222222" rx="3.8924" ry="3.8924" style="stroke:none;stroke-width:0.3892392041726443;"/><g id="DOWN"><rect fill="#F1F1F1" height="21.5685" rx="4.8655" ry="4.8655" style="stroke:#181818;stroke-width:0.19461960208632215;" width="68.1169" x="141.0992" y="662.4851"/><line style="stroke:#181818;stroke-width:0.19461960208632215;" x1="141.0992" x2="209.2161" y1="673.7995" y2="673.7995"/><text fill="#000000" font-family="sans-serif" font-size="5.4493" lengthAdjust="spacing" textLength="17.5158" x="166.3998" y="670.2567">DOWN</text><text fill="#000000" font-family="sans-serif" font-size="4.6709" lengthAdjust="spacing" textLength="60.3321" x="143.0454" y="680.7389">entry/ issue ToolDownEvent</text></g><path d="M7.5902,33.8638 L342.7991,33.8638 A4.8655,4.8655 0 0 1 347.6646,38.7293 L347.6646,66.2097 L2.7247,66.2097 L2.7247,38.7293 A4.8655,4.8655 0 0 1 7.5902,33.8638 " fill="#F1F1F1" style="stroke:#F1F1F1;stroke-width:0.3892392041726443;"/><rect fill="none" height="597.6816" rx="4.8655" ry="4.8655" style="stroke:#181818;stroke-width:0.19461960208632215;" width="344.9399" x="2.7247" y="33.8638"/><line style="stroke:#181818;stroke-width:0.19461960208632215;" x1="2.7247" x2="347.6646" y1="66.2097" y2="66.2097"/><line style="stroke:#181818;stroke-width:0.19461960208632215;" x1="2.7247" x2="347.6646" y1="45.1782" y2="45.1782"/><text fill="#000000" font-family="sans-serif" font-size="5.4493" lengthAdjust="spacing" textLength="7.0063" x="171.6915" y="41.6353">UP</text><text fill="#000000" font-family="sans-serif" font-size="4.6709" lengthAdjust="spacing" textLength="96.5313" x="4.6709" y="50.1714">entry/ ToolUpEventAction, ToolUpEvent(tool)</text><text fill="#000000" font-family="sans-serif" font-size="4.6709" lengthAdjust="spacing" textLength="127.6705" x="4.6709" y="56.5331">PART_LOADING / LoadPartAction, PartLoadedEvt(tool, part)</text><text fill="#000000" font-family="sans-serif" font-size="4.6709" lengthAdjust="spacing" textLength="144.797" x="4.6709" y="62.8949">PART_UNLOADING / UnloadPartAction, PartUnloadedEvt(tool, part)</text><g id="UP.STOPPED"><rect fill="#F1F1F1" height="21.5685" rx="4.8655" ry="4.8655" style="stroke:#181818;stroke-width:0.19461960208632215;" width="73.5662" x="173.6046" y="92.678"/><line style="stroke:#181818;stroke-width:0.19461960208632215;" x1="173.6046" x2="247.1708" y1="103.9923" y2="103.9923"/><text fill="#000000" font-family="sans-serif" font-size="5.4493" lengthAdjust="spacing" textLength="23.7436" x="198.5159" y="100.4495">STOPPED</text><text fill="#000000" font-family="sans-serif" font-size="4.6709" lengthAdjust="spacing" textLength="65.7814" x="175.5508" y="110.9317">entry / ToolStoppedEvent(tool)</text></g><g id="elem_CHOICE_START"><polygon fill="#F1F1F1" points="169.9068,135.4943,174.5777,140.1651,169.9068,144.836,165.2359,140.1651,169.9068,135.4943" style="stroke:#181818;stroke-width:0.19461960208632215;"/></g><ellipse cx="210.3877" cy="74.3837" fill="#222222" rx="3.8924" ry="3.8924" style="stroke:none;stroke-width:0.3892392041726443;"/><path d="M84.2742,180.2568 L296.0359,180.2568 A4.8655,4.8655 0 0 1 300.9014,185.1223 L300.9014,191.5711 L79.4087,191.5711 L79.4087,185.1223 A4.8655,4.8655 0 0 1 84.2742,180.2568 " fill="#F1F1F1" style="stroke:#F1F1F1;stroke-width:0.3892392041726443;"/><rect fill="none" height="196.9815" rx="4.8655" ry="4.8655" style="stroke:#181818;stroke-width:0.19461960208632215;" width="221.4927" x="79.4087" y="180.2568"/><line style="stroke:#181818;stroke-width:0.19461960208632215;" x1="79.4087" x2="300.9014" y1="191.5711" y2="191.5711"/><text fill="#000000" font-family="sans-serif" font-size="5.4493" lengthAdjust="spacing" textLength="11.6772" x="184.3164" y="188.0283">IDLE</text><g id="UP.IDLE.BLOCKED_UPSTREAM"><rect fill="#F1F1F1" height="21.5685" rx="4.8655" ry="4.8655" style="stroke:#181818;stroke-width:0.19461960208632215;" width="80.1833" x="104.7248" y="225.0457"/><line style="stroke:#181818;stroke-width:0.19461960208632215;" x1="104.7248" x2="184.9081" y1="236.3601" y2="236.3601"/><text fill="#000000" font-family="sans-serif" font-size="5.4493" lengthAdjust="spacing" textLength="55.272" x="117.1805" y="232.8172">BLOCKED_UPSTREAM</text><text fill="#000000" font-family="sans-serif" font-size="4.6709" lengthAdjust="spacing" textLength="72.3985" x="106.671" y="243.2995">entry / ToolIdleEvent(UPSTREAM)</text></g><g id="UP.IDLE.BLOCKED_DOWNSTREAM"><rect fill="#F1F1F1" height="21.5685" rx="4.8655" ry="4.8655" style="stroke:#181818;stroke-width:0.19461960208632215;" width="88.7465" x="121.0729" y="322.7448"/><line style="stroke:#181818;stroke-width:0.19461960208632215;" x1="121.0729" x2="209.8194" y1="334.0591" y2="334.0591"/><text fill="#000000" font-family="sans-serif" font-size="5.4493" lengthAdjust="spacing" textLength="65.7814" x="132.5554" y="330.5163">BLOCKED_DOWNSTREAM</text><text fill="#000000" font-family="sans-serif" font-size="4.6709" lengthAdjust="spacing" textLength="80.9618" x="123.0191" y="340.9985">entry / ToolIdleEvent(DOWNSTREAM)</text></g><ellipse cx="221.1073" cy="199.7452" fill="#222222" rx="3.8924" ry="3.8924" style="stroke:none;stroke-width:0.3892392041726443;"/><g id="UP.IDLE.BLOCKED_UP_AND_DOWNSTREAM"><rect fill="#F1F1F1" height="19.462" rx="4.8655" ry="4.8655" style="stroke:#181818;stroke-width:0.19461960208632215;" width="96.9206" x="104.9194" y="274.8683"/><line style="stroke:#181818;stroke-width:0.19461960208632215;" x1="104.9194" x2="201.84" y1="286.1827" y2="286.1827"/><text fill="#000000" font-family="sans-serif" font-size="5.4493" lengthAdjust="spacing" textLength="89.1358" x="108.8118" y="282.6399">BLOCKED_UP_AND_DOWNSTREAM</text></g><ellipse cx="91.1014" cy="369.4535" fill="none" rx="3.8924" ry="3.8924" style="stroke:#222222;stroke-width:0.3892392041726443;"/><ellipse cx="91.2961" cy="369.6481" fill="#222222" rx="2.3354" ry="2.3354" style="stroke:none;stroke-width:0.3892392041726443;"/><!--MD5=[147625339abc90ad358d23e273e4b1d2]
link *start*IDLE to BLOCKED_UPSTREAM--><g id="link_*start*IDLE_BLOCKED_UPSTREAM"><path d="M217.7287,201.6953 C209.3095,205.5799 186.7803,215.9842 168.9726,224.205 " fill="none" id="*start*IDLE-to-BLOCKED_UPSTREAM" style="stroke:#181818;stroke-width:0.3892392041726443;"/><polygon fill="#181818" points="167.1549,225.0457,170.988,224.9891,168.9215,224.2291,169.6814,222.1625,167.1549,225.0457" style="stroke:#181818;stroke-width:0.3892392041726443;"/><text fill="#000000" font-family="sans-serif" font-size="5.0601" lengthAdjust="spacing" textLength="35.4208" x="196.5853" y="216.4424">[ InportEmpty ]</text></g><!--MD5=[149e47f3fb36691036e88b78347784bc]
link *start*IDLE to BLOCKED_DOWNSTREAM--><g id="link_*start*IDLE_BLOCKED_DOWNSTREAM"><path d="M224.3964,201.9288 C227.3741,203.731 231.6401,206.7904 233.9522,210.6439 C258.3108,251.2843 281.887,279.0916 251.8572,315.7385 C246.4624,322.3205 229.4487,326.4503 211.9252,329.0193 " fill="none" id="*start*IDLE-to-BLOCKED_DOWNSTREAM" style="stroke:#181818;stroke-width:0.3892392041726443;"/><polygon fill="#181818" points="209.8972,329.3112,213.5841,330.3616,211.8242,329.0383,213.1475,327.2784,209.8972,329.3112" style="stroke:#181818;stroke-width:0.3892392041726443;"/><text fill="#000000" font-family="sans-serif" font-size="5.0601" lengthAdjust="spacing" textLength="32.6961" x="264.3129" y="262.7618">[ OutportFull ]</text></g><!--MD5=[bdca1cce17b5ba7f3d573cedc153eede]
link BLOCKED_DOWNSTREAM to BLOCKED_UP_AND_DOWNSTREAM--><g id="link_BLOCKED_DOWNSTREAM_BLOCKED_UP_AND_DOWNSTREAM"><path d="M178.1587,322.6708 C179.957,320.5767 181.5412,318.2413 182.5726,315.7385 C185.0054,309.8181 185.8072,306.8599 182.5726,301.3366 C181.331,299.223 179.7078,297.3625 177.8629,295.7277 " fill="none" id="BLOCKED_DOWNSTREAM-to-BLOCKED_UP_AND_DOWNSTREAM" style="stroke:#181818;stroke-width:0.3892392041726443;"/><polygon fill="#181818" points="176.2592,294.4081,177.9763,297.8357,177.7625,295.6442,179.9539,295.4304,176.2592,294.4081" style="stroke:#181818;stroke-width:0.3892392041726443;"/><text fill="#000000" font-family="sans-serif" font-size="5.0601" lengthAdjust="spacing" textLength="38.5347" x="184.9081" y="307.1351">[ InportEmpty ] /</text><text fill="#000000" font-family="sans-serif" font-size="5.0601" lengthAdjust="spacing" textLength="63.8352" x="186.0758" y="314.027">ToolIdleEvent(UPSTREAM) ]</text></g><!--MD5=[bcaaea87ab6ead7ecc4dcc556f88c6d4]
link BLOCKED_UPSTREAM to BLOCKED_UP_AND_DOWNSTREAM--><g id="link_BLOCKED_UPSTREAM_BLOCKED_UP_AND_DOWNSTREAM"><path d="M157.529,246.5278 C159.3273,248.6219 160.9115,250.9574 161.943,253.4602 C164.5197,259.7308 162.6786,267.033 160.0513,272.9455 " fill="none" id="BLOCKED_UPSTREAM-to-BLOCKED_UP_AND_DOWNSTREAM" style="stroke:#181818;stroke-width:0.3892392041726443;"/><polygon fill="#181818" points="159.2144,274.7321,162.1041,272.213,160.0356,272.9676,159.281,270.8991,159.2144,274.7321" style="stroke:#181818;stroke-width:0.3892392041726443;"/><text fill="#000000" font-family="sans-serif" font-size="5.0601" lengthAdjust="spacing" textLength="35.81" x="163.4999" y="259.2587">[ OutportFull ] /</text><text fill="#000000" font-family="sans-serif" font-size="5.0601" lengthAdjust="spacing" textLength="72.7877" x="164.6676" y="266.1506">ToolIdleEvent(DOWNSTREAM) ]</text></g><!--MD5=[5831f531a5755528ebda51ce494508b2]
link BLOCKED_UP_AND_DOWNSTREAM to BLOCKED_UPSTREAM--><g id="link_BLOCKED_UP_AND_DOWNSTREAM_BLOCKED_UPSTREAM"><path d="M124.6967,274.7944 C122.0498,272.8871 119.7105,270.6023 117.9589,267.862 C114.5064,262.4711 114.8956,259.0808 117.9589,253.4602 C119.0799,251.405 120.5591,249.5561 122.2484,247.9018 " fill="none" id="BLOCKED_UP_AND_DOWNSTREAM-to-BLOCKED_UPSTREAM" style="stroke:#181818;stroke-width:0.3892392041726443;"/><polygon fill="#181818" points="123.7158,246.559,120.0826,247.7822,122.2825,247.8756,122.1892,250.0755,123.7158,246.559" style="stroke:#181818;stroke-width:0.3892392041726443;"/><text fill="#000000" font-family="sans-serif" font-size="5.0601" lengthAdjust="spacing" textLength="41.6486" x="118.3482" y="262.7618">[ OutportNotFull ]</text></g><!--MD5=[301e495d33da8f81c678eae304747ef1]
link BLOCKED_UP_AND_DOWNSTREAM to BLOCKED_DOWNSTREAM--><g id="link_BLOCKED_UP_AND_DOWNSTREAM_BLOCKED_DOWNSTREAM"><path d="M140.5621,294.4743 C138.6509,296.5139 136.9577,298.8182 135.8639,301.3366 C133.3105,307.2063 132.68,310.184 135.8639,315.7385 C137.0667,317.8365 138.6314,319.7048 140.4142,321.363 " fill="none" id="BLOCKED_UP_AND_DOWNSTREAM-to-BLOCKED_DOWNSTREAM" style="stroke:#181818;stroke-width:0.3892392041726443;"/><polygon fill="#181818" points="141.9594,322.7058,140.3408,319.2307,140.492,321.4274,138.2953,321.5786,141.9594,322.7058" style="stroke:#181818;stroke-width:0.3892392041726443;"/><text fill="#000000" font-family="sans-serif" font-size="5.0601" lengthAdjust="spacing" textLength="44.3733" x="136.2532" y="310.6383">[ InportNotEmpty ]</text></g><!--MD5=[306929e53be6d4806fc8853a7e46da29]
link BLOCKED_DOWNSTREAM to *end*IDLE--><g id="link_BLOCKED_DOWNSTREAM_*end*IDLE"><path d="M143.6409,344.1685 C127.254,351.9338 106.0288,361.9918 96.3367,366.5809 " fill="none" id="BLOCKED_DOWNSTREAM-to-*end*IDLE" style="stroke:#181818;stroke-width:0.3892392041726443;"/><polygon fill="#181818" points="94.5579,367.4255,98.3902,367.3298,96.3161,366.591,97.0549,364.5168,94.5579,367.4255" style="stroke:#181818;stroke-width:0.3892392041726443;"/><text fill="#000000" font-family="sans-serif" font-size="5.0601" lengthAdjust="spacing" textLength="41.6486" x="128.4684" y="356.9577">[ OutportNotFull ]</text></g><!--MD5=[61f54ccb3bbb3f6f3562a96d8b41887d]
link BLOCKED_UPSTREAM to *end*IDLE--><g id="link_BLOCKED_UPSTREAM_*end*IDLE"><path d="M122.6648,246.4811 C119.4458,248.5285 116.328,250.8601 113.6773,253.4602 C96.5508,270.2559 93.9974,277.9278 88.766,301.3366 C83.6903,324.037 87.8474,352.0662 90.0038,363.6577 " fill="none" id="BLOCKED_UPSTREAM-to-*end*IDLE" style="stroke:#181818;stroke-width:0.3892392041726443;"/><polygon fill="#181818" points="90.3775,365.6272,91.2549,361.8955,90.0151,363.7151,88.1955,362.4752,90.3775,365.6272" style="stroke:#181818;stroke-width:0.3892392041726443;"/><text fill="#000000" font-family="sans-serif" font-size="5.0601" lengthAdjust="spacing" textLength="42.4271" x="89.1552" y="310.6383">[ InputNotEmpty ]</text></g><path d="M106.4608,391.6137 L273.8337,391.6137 A4.8655,4.8655 0 0 1 278.6992,396.4792 L278.6992,411.236 L101.5953,411.236 L101.5953,396.4792 A4.8655,4.8655 0 0 1 106.4608,391.6137 " fill="#F1F1F1" style="stroke:#F1F1F1;stroke-width:0.3892392041726443;"/><rect fill="none" height="236.0393" rx="4.8655" ry="4.8655" style="stroke:#181818;stroke-width:0.19461960208632215;" width="177.1038" x="101.5953" y="391.6137"/><line style="stroke:#181818;stroke-width:0.19461960208632215;" x1="101.5953" x2="278.6992" y1="411.236" y2="411.236"/><line style="stroke:#181818;stroke-width:0.19461960208632215;" x1="101.5953" x2="278.6992" y1="402.928" y2="402.928"/><text fill="#000000" font-family="sans-serif" font-size="5.4493" lengthAdjust="spacing" textLength="30.7499" x="174.7723" y="399.3852">OPERATING</text><text fill="#000000" font-family="sans-serif" font-size="4.6709" lengthAdjust="spacing" textLength="69.6738" x="103.5415" y="407.9212">entry / ToolOperatingEvent(tool)</text><g id="UP.OPERATING.LOADING_PROCESS"><rect fill="#F1F1F1" height="21.5685" rx="4.8655" ry="4.8655" style="stroke:#181818;stroke-width:0.19461960208632215;" width="72.7877" x="124.3658" y="444.7106"/><line style="stroke:#181818;stroke-width:0.19461960208632215;" x1="124.3658" x2="197.1535" y1="456.0249" y2="456.0249"/><text fill="#000000" font-family="sans-serif" font-size="5.4493" lengthAdjust="spacing" textLength="50.6011" x="135.4591" y="452.4821">LOADING_PROCESS</text><text fill="#000000" font-family="sans-serif" font-size="4.6709" lengthAdjust="spacing" textLength="65.0029" x="126.312" y="462.9643">PartInProcessEvent(tool, part)</text></g><g id="UP.OPERATING.UNLOADING_PROCESS"><rect fill="#F1F1F1" height="21.5685" rx="4.8655" ry="4.8655" style="stroke:#181818;stroke-width:0.19461960208632215;" width="73.9554" x="123.782" y="542.4096"/><line style="stroke:#181818;stroke-width:0.19461960208632215;" x1="123.782" x2="197.7374" y1="553.724" y2="553.724"/><text fill="#000000" font-family="sans-serif" font-size="5.4493" lengthAdjust="spacing" textLength="58.7751" x="131.3721" y="550.1811">UNLOADING_PROCESS</text><text fill="#000000" font-family="sans-serif" font-size="4.6709" lengthAdjust="spacing" textLength="66.1707" x="125.7282" y="560.6634">PartProcessedEvent(tool, part)</text></g><g id="elem_CHOICE_UNLOADING"><polygon fill="#F1F1F1" points="114.4402,585.2259,119.1111,589.8968,114.4402,594.5677,109.7693,589.8968,114.4402,585.2259" style="stroke:#181818;stroke-width:0.19461960208632215;"/></g><g id="UP.OPERATING.PROCESSING_PART"><rect fill="#F1F1F1" height="19.462" rx="4.8655" ry="4.8655" style="stroke:#181818;stroke-width:0.19461960208632215;" width="57.2182" x="132.1506" y="487.5269"/><line style="stroke:#181818;stroke-width:0.19461960208632215;" x1="132.1506" x2="189.3688" y1="498.8413" y2="498.8413"/><text fill="#000000" font-family="sans-serif" font-size="5.4493" lengthAdjust="spacing" textLength="49.4334" x="136.043" y="495.2984">PROCESSING_PART</text></g><ellipse cx="187.2279" cy="419.41" fill="#222222" rx="3.8924" ry="3.8924" style="stroke:none;stroke-width:0.3892392041726443;"/><ellipse cx="114.4402" cy="619.8682" fill="none" rx="3.8924" ry="3.8924" style="stroke:#222222;stroke-width:0.3892392041726443;"/><ellipse cx="114.6348" cy="620.0628" fill="#222222" rx="2.3354" ry="2.3354" style="stroke:none;stroke-width:0.3892392041726443;"/><!--MD5=[4b365c48994765515a284ce06aa7f6f8]
link *start*OPERATING to LOADING_PROCESS--><g id="link_*start*OPERATING_LOADING_PROCESS"><path d="M183.7443,421.3407 C180.1866,423.0689 174.71,426.1828 171.2691,430.3087 C168.2642,433.9092 165.9988,438.4983 164.3563,442.741 " fill="none" id="*start*OPERATING-to-LOADING_PROCESS" style="stroke:#181818;stroke-width:0.3892392041726443;"/><polygon fill="#181818" points="163.6439,444.66,166.3144,441.9096,164.3157,442.8334,163.3919,440.8347,163.6439,444.66" style="stroke:#181818;stroke-width:0.3892392041726443;"/><text fill="#000000" font-family="sans-serif" font-size="5.0601" lengthAdjust="spacing" textLength="36.1992" x="171.6584" y="436.1072">[ProcessEmpty]</text></g><!--MD5=[cc82c824ae22f050ad668e7c20ce5926]
link *start*OPERATING to UNLOADING_PROCESS--><g id="link_*start*OPERATING_UNLOADING_PROCESS"><path d="M190.9958,420.4454 C195.9547,421.5236 204.4712,424.2016 208.2469,430.3087 C232.804,470.0423 235.0265,497.1333 208.2469,535.4033 C205.9348,538.708 202.9182,541.3859 199.5318,543.554 " fill="none" id="*start*OPERATING-to-UNLOADING_PROCESS" style="stroke:#181818;stroke-width:0.3892392041726443;"/><polygon fill="#181818" points="197.8386,544.5777,201.6413,544.0918,199.5025,543.5682,200.0261,541.4295,197.8386,544.5777" style="stroke:#181818;stroke-width:0.3892392041726443;"/><text fill="#000000" font-family="sans-serif" font-size="5.0601" lengthAdjust="spacing" textLength="45.1517" x="227.7088" y="478.9235">[ProcessNotEmpty]</text></g><!--MD5=[a3f178933f85b92a19cc73c8d9d40f08]
link LOADING_PROCESS to PROCESSING_PART--><g id="link_LOADING_PROCESS_PROCESSING_PART"><path d="M160.7597,466.1654 C160.7597,472.0585 160.7597,479.4463 160.7597,485.4951 " fill="none" id="LOADING_PROCESS-to-PROCESSING_PART" style="stroke:#181818;stroke-width:0.3892392041726443;"/><polygon fill="#181818" points="160.7597,487.4919,162.3166,483.9887,160.7597,485.5457,159.2027,483.9887,160.7597,487.4919" style="stroke:#181818;stroke-width:0.3892392041726443;"/></g><!--MD5=[56a1263b32f9f86d3168510cc81dd10d]
link PROCESSING_PART to UNLOADING_PROCESS--><g id="link_PROCESSING_PART_UNLOADING_PROCESS"><path d="M160.7597,506.9888 C160.7597,516.1982 160.7597,530.316 160.7597,540.4323 " fill="none" id="PROCESSING_PART-to-UNLOADING_PROCESS" style="stroke:#181818;stroke-width:0.3892392041726443;"/><polygon fill="#181818" points="160.7597,542.3979,162.3166,538.8948,160.7597,540.4517,159.2027,538.8948,160.7597,542.3979" style="stroke:#181818;stroke-width:0.3892392041726443;"/><text fill="#000000" font-family="sans-serif" font-size="5.0601" lengthAdjust="spacing" textLength="46.3195" x="161.1489" y="526.8">[await process time]</text></g><!--MD5=[a8a670b53e188b34703ad6d5950d1e9a]
link UNLOADING_PROCESS to CHOICE_UNLOADING--><g id="link_UNLOADING_PROCESS_CHOICE_UNLOADING"><path d="M147.4866,563.8217 C137.7128,571.4196 125.047,581.2635 118.6012,586.273 " fill="none" id="UNLOADING_PROCESS-to-CHOICE_UNLOADING" style="stroke:#181818;stroke-width:0.3892392041726443;"/><polygon fill="#181818" points="116.9586,587.5497,120.6806,586.6317,118.496,586.3564,118.7713,584.1718,116.9586,587.5497" style="stroke:#181818;stroke-width:0.3892392041726443;"/><text fill="#000000" font-family="sans-serif" font-size="5.0601" lengthAdjust="spacing" textLength="52.1581" x="138.1838" y="576.6226">[await unloading time]</text></g><!--MD5=[e38437f5b8dd3c3d47b4a27c75e39a0e]
link CHOICE_UNLOADING to LOADING_PROCESS--><g id="link_CHOICE_UNLOADING_LOADING_PROCESS"><path d="M113.9225,585.6658 C112.5329,574.4362 109.2322,540.7826 115.6079,513.9952 C118.6362,501.2748 120.8198,498.1453 128.4528,487.5269 C133.6531,480.287 140.5854,473.2379 146.6965,467.629 " fill="none" id="CHOICE_UNLOADING-to-LOADING_PROCESS" style="stroke:#181818;stroke-width:0.3892392041726443;"/><polygon fill="#181818" points="148.2301,466.2355,144.592,467.4441,146.7915,467.5463,146.6893,469.7458,148.2301,466.2355" style="stroke:#181818;stroke-width:0.3892392041726443;"/><text fill="#000000" font-family="sans-serif" font-size="5.0601" lengthAdjust="spacing" textLength="41.6486" x="115.9972" y="519.7937">[ InportNotEmpty</text><text fill="#000000" font-family="sans-serif" font-size="5.0601" lengthAdjust="spacing" textLength="7.7848" x="115.9972" y="526.6855">&amp;&amp;</text><text fill="#000000" font-family="sans-serif" font-size="5.0601" lengthAdjust="spacing" textLength="38.9239" x="115.9972" y="533.5774">OutportNotFull ]</text></g><!--MD5=[fa989ec646aef965196b7894815456d8]
link CHOICE_UNLOADING to *end*OPERATING--><g id="link_CHOICE_UNLOADING_*end*OPERATING"><path d="M114.4402,594.5949 C114.4402,599.6901 114.4402,608.191 114.4402,613.8155 " fill="none" id="CHOICE_UNLOADING-to-*end*OPERATING" style="stroke:#181818;stroke-width:0.3892392041726443;"/><polygon fill="#181818" points="114.4402,615.8902,115.9972,612.387,114.4402,613.944,112.8833,612.387,114.4402,615.8902" style="stroke:#181818;stroke-width:0.3892392041726443;"/><text fill="#000000" font-family="sans-serif" font-size="5.0601" lengthAdjust="spacing" textLength="70.4523" x="114.8295" y="607.3725">[ InportEmpty || OutportFull ]</text></g><!--MD5=[3167d8dfba7618b340bd4b8c188eac9d]
link *start*UP to STOPPED--><g id="link_*start*UP_STOPPED"><path d="M210.3877,78.3462 C210.3877,81.4601 210.3877,86.1621 210.3877,90.6267 " fill="none" id="*start*UP-to-STOPPED" style="stroke:#181818;stroke-width:0.3892392041726443;"/><polygon fill="#181818" points="210.3877,92.6546,211.9446,89.1514,210.3877,90.7084,208.8307,89.1514,210.3877,92.6546" style="stroke:#181818;stroke-width:0.3892392041726443;"/></g><!--MD5=[aa4f426f76b3d85a3f3026cfc18a043b]
link STOPPED to CHOICE_START--><g id="link_STOPPED_CHOICE_START"><path d="M197.8542,114.1017 C195.1606,116.3748 192.3426,118.792 189.758,121.0924 C184.0128,126.1992 177.567,132.3492 173.6201,136.1599 " fill="none" id="STOPPED-to-CHOICE_START" style="stroke:#181818;stroke-width:0.3892392041726443;"/><polygon fill="#181818" points="172.1916,137.5456,175.7915,136.2275,173.5899,136.1919,173.6256,133.9903,172.1916,137.5456" style="stroke:#181818;stroke-width:0.3892392041726443;"/><text fill="#000000" font-family="sans-serif" font-size="5.0601" lengthAdjust="spacing" textLength="14.4019" x="190.1472" y="126.8909">START</text></g><!--MD5=[cf04fba4e79042eee0a6e43ff9a329d9]
link CHOICE_START to OPERATING--><g id="link_CHOICE_START_OPERATING"><path d="M166.1039,141.0487 C145.7701,143.7773 50.2274,157.6887 33.2838,180.2568 C7.0063,215.2572 14.8106,337.5328 33.2838,377.2118 C47.7363,408.2497 73.4767,434.5973 99.9878,455.3905 " fill="none" id="CHOICE_START-to-OPERATING" style="stroke:#181818;stroke-width:0.3892392041726443;"/><polygon fill="#181818" points="101.572,456.6283,99.7652,453.2472,100.0366,455.4323,97.8516,455.7037,101.572,456.6283" style="stroke:#181818;stroke-width:0.3892392041726443;"/><text fill="#000000" font-family="sans-serif" font-size="5.0601" lengthAdjust="spacing" textLength="41.6486" x="33.6731" y="273.8287">[ InportNotEmpty</text><text fill="#000000" font-family="sans-serif" font-size="5.0601" lengthAdjust="spacing" textLength="7.7848" x="33.6731" y="280.7206">&amp;&amp;</text><text fill="#000000" font-family="sans-serif" font-size="5.0601" lengthAdjust="spacing" textLength="38.9239" x="33.6731" y="287.6125">OutportNotFull ]</text></g><!--MD5=[5c50dc4e9c0374cf465611f2bf01c8f1]
link CHOICE_START to IDLE--><g id="link_CHOICE_START_IDLE"><path d="M169.7239,144.6959 C169.5059,150.9159 169.2762,163.0252 170.296,173.2505 C170.4634,174.9086 170.6386,176.5824 170.8293,178.2678 " fill="none" id="CHOICE_START-to-IDLE" style="stroke:#181818;stroke-width:0.3892392041726443;"/><polygon fill="#181818" points="171.059,180.2451,172.2045,176.5867,170.8361,178.3117,169.1111,176.9433,171.059,180.2451" style="stroke:#181818;stroke-width:0.3892392041726443;"/><text fill="#000000" font-family="sans-serif" font-size="5.0601" lengthAdjust="spacing" textLength="32.6961" x="170.6853" y="157.6408">[ InportEmpty</text><text fill="#000000" font-family="sans-serif" font-size="5.0601" lengthAdjust="spacing" textLength="5.4493" x="171.853" y="164.5327">||</text><text fill="#000000" font-family="sans-serif" font-size="5.0601" lengthAdjust="spacing" textLength="29.9714" x="171.853" y="171.4246">OutportFull ]</text></g><!--MD5=[90073fffbc82e79c59e627457c5c60c3]
link OPERATING to STOPPED--><g id="link_OPERATING_STOPPED"><path d="M278.7225,423.8427 C289.2748,409.3357 298.4608,393.6182 304.5836,377.2118 C335.1933,295.203 342.2152,259.2918 304.5836,180.2568 C290.0649,149.7638 256.785,127.4682 233.9405,115.0592 " fill="none" id="OPERATING-to-STOPPED" style="stroke:#181818;stroke-width:0.3892392041726443;"/><polygon fill="#181818" points="232.1773,114.1095,234.5224,117.1421,233.8905,115.0328,235.9998,114.4009,232.1773,114.1095" style="stroke:#181818;stroke-width:0.3892392041726443;"/><text fill="#000000" font-family="sans-serif" font-size="5.0601" lengthAdjust="spacing" textLength="12.4557" x="301.0804" y="164.6471">STOP</text></g><!--MD5=[4346f20216289b09d1c2b40e5ac8e089]
link OPERATING to IDLE--><g id="link_OPERATING_IDLE"><path d="M192.7746,391.5358 C192.7707,387.4566 192.7668,383.3851 192.7551,379.3332 " fill="none" id="OPERATING-to-IDLE" style="stroke:#181818;stroke-width:0.3892392041726443;"/><polygon fill="#181818" points="192.7513,377.348,191.2043,380.8556,192.7568,379.2942,194.3182,380.8467,192.7513,377.348" style="stroke:#181818;stroke-width:0.3892392041726443;"/></g><!--MD5=[f73100d716ce6e7b7beadc3c5b4f0ff2]
link IDLE to OPERATING--><g id="link_IDLE_OPERATING"><path d="M187.5432,377.348 C187.5316,381.3884 187.5238,385.4559 187.5238,389.5351 " fill="none" id="IDLE-to-OPERATING" style="stroke:#181818;stroke-width:0.3892392041726443;"/><polygon fill="#181818" points="187.5199,391.5358,189.0768,388.0327,187.5199,389.5896,185.9629,388.0327,187.5199,391.5358" style="stroke:#181818;stroke-width:0.3892392041726443;"/></g><!--MD5=[5b7a1d6a0aba5eb788015da42a92fdc7]
link IDLE to STOPPED--><g id="link_IDLE_STOPPED"><path d="M204.156,180.1906 C204.4245,177.8552 204.6892,175.5392 204.9383,173.2505 C207.122,153.302 208.7646,130.041 209.6481,116.1335 " fill="none" id="IDLE-to-STOPPED" style="stroke:#181818;stroke-width:0.3892392041726443;"/><polygon fill="#181818" points="209.7727,114.1484,207.9984,117.5467,209.6502,116.0907,211.1062,117.7426,209.7727,114.1484" style="stroke:#181818;stroke-width:0.3892392041726443;"/><text fill="#000000" font-family="sans-serif" font-size="5.0601" lengthAdjust="spacing" textLength="12.4557" x="208.8307" y="142.2659">STOP</text></g><!--MD5=[1484cf804706c17b6caeb7077b9bb997]
link *start to UP--><g id="link_*start_UP"><path d="M175.1576,10.163 C175.1576,14.2539 175.1576,21.7195 175.1576,31.7191 " fill="none" id="*start-to-UP" style="stroke:#181818;stroke-width:0.3892392041726443;"/><polygon fill="#181818" points="175.1576,33.7548,176.7146,30.2517,175.1576,31.8086,173.6007,30.2517,175.1576,33.7548" style="stroke:#181818;stroke-width:0.3892392041726443;"/></g><!--MD5=[ecac89f1cb9a834dd3beff1ef5c67012]
link UP to DOWN--><g id="link_UP_DOWN"><path d="M158.7512,631.8131 C158.6344,635.7016 158.5255,639.5706 158.4204,643.4124 C158.3308,646.6976 157.3694,647.694 158.4204,650.8079 C159.6114,654.3383 161.616,657.7481 163.8386,660.788 " fill="none" id="UP-to-DOWN" style="stroke:#181818;stroke-width:0.3892392041726443;"/><polygon fill="#181818" points="165.088,662.4384,164.2167,658.7052,163.9141,660.8861,161.7331,660.5835,165.088,662.4384" style="stroke:#181818;stroke-width:0.3892392041726443;"/><text fill="#000000" font-family="sans-serif" font-size="5.0601" lengthAdjust="spacing" textLength="15.1803" x="158.8096" y="649.2109">FAULT</text></g><!--MD5=[1ce488963331178650d08126837d26c2]
link DOWN to UP--><g id="link_DOWN_UP"><path d="M175.6014,662.3995 C175.7376,658.7368 175.8699,654.5914 175.9361,650.8079 C175.9945,647.5228 175.94,646.6976 175.9361,643.4124 C175.9322,640.2362 175.9283,637.0367 175.9244,633.8254 " fill="none" id="DOWN-to-UP" style="stroke:#181818;stroke-width:0.3892392041726443;"/><polygon fill="#181818" points="175.9206,631.8248,174.3636,635.3279,175.9206,633.7709,177.4775,635.3279,175.9206,631.8248" style="stroke:#181818;stroke-width:0.3892392041726443;"/><text fill="#000000" font-family="sans-serif" font-size="5.0601" lengthAdjust="spacing" textLength="32.3069" x="176.3254" y="649.2109">FAULT_CLEAR</text></g><!--MD5=[3ae6b0571e3577f600c2b0d1d2dbc9ce]
@startuml
'https://plantuml.com/state-diagram
skinparam defaultTextAlignment left
scale 350 width

[*] - -> UP
state DOWN : entry/ issue ToolDownEvent

state UP {
    state UP: entry/ ToolUpEventAction, ToolUpEvent(tool)
    state UP: PART_LOADING / LoadPartAction, PartLoadedEvt(tool, part)
    state UP: PART_UNLOADING / UnloadPartAction, PartUnloadedEvt(tool, part)

    state STOPPED
    STOPPED: entry / ToolStoppedEvent(tool)

    state CHOICE_START <<choice>>
    [*] - -> STOPPED
    STOPPED - -> CHOICE_START: START
    CHOICE_START - -> OPERATING: [ InportNotEmpty\n&&\nOutportNotFull ]
    CHOICE_START - -> IDLE: [ InportEmpty \n ||\n OutportFull ]

    OPERATING - -> STOPPED: STOP
    OPERATING - -> IDLE

    state IDLE {

        state BLOCKED_UPSTREAM: entry / ToolIdleEvent(UPSTREAM)
        state BLOCKED_DOWNSTREAM: entry / ToolIdleEvent(DOWNSTREAM)

        [*] - -> BLOCKED_UPSTREAM: [ InportEmpty ]
        [*] - -> BLOCKED_DOWNSTREAM: [ OutportFull ]
        BLOCKED_DOWNSTREAM - -> BLOCKED_UP_AND_DOWNSTREAM: [ InportEmpty ] /\n ToolIdleEvent(UPSTREAM) ]
        BLOCKED_UPSTREAM - -> BLOCKED_UP_AND_DOWNSTREAM: [ OutportFull ] /\n ToolIdleEvent(DOWNSTREAM) ]
        BLOCKED_UP_AND_DOWNSTREAM - -> BLOCKED_UPSTREAM: [ OutportNotFull ]
        BLOCKED_UP_AND_DOWNSTREAM - -> BLOCKED_DOWNSTREAM: [ InportNotEmpty ]
        BLOCKED_DOWNSTREAM - -> [*]: [ OutportNotFull ]
        BLOCKED_UPSTREAM - -> [*]: [ InputNotEmpty ]
     }

    state OPERATING {
        OPERATING: entry / ToolOperatingEvent(tool)
                state LOADING_PROCESS: PartInProcessEvent(tool, part)
                state UNLOADING_PROCESS: PartProcessedEvent(tool, part)
                state CHOICE_UNLOADING <<choice>>
                state PROCESSING_PART

                [*] - -> LOADING_PROCESS: [ProcessEmpty]
                [*] - -> UNLOADING_PROCESS: [ProcessNotEmpty]
                LOADING_PROCESS - -> PROCESSING_PART

                PROCESSING_PART - -> UNLOADING_PROCESS: [await process time]
                UNLOADING_PROCESS - -> CHOICE_UNLOADING: [await unloading time]
                CHOICE_UNLOADING - -> LOADING_PROCESS: [ InportNotEmpty \n&& \nOutportNotFull ]
                CHOICE_UNLOADING - -> [*] : [ InportEmpty || OutportFull ]
    }

    IDLE - -> OPERATING
    IDLE - -> STOPPED: STOP

}

UP - -> DOWN: FAULT
DOWN - -> UP: FAULT_CLEAR
@enduml

@startuml
skinparam defaultTextAlignment left
scale 350 width

[*] - -> UP
state DOWN : entry/ issue ToolDownEvent

state UP {
    state UP: entry/ ToolUpEventAction, ToolUpEvent(tool)
    state UP: PART_LOADING / LoadPartAction, PartLoadedEvt(tool, part)
    state UP: PART_UNLOADING / UnloadPartAction, PartUnloadedEvt(tool, part)

    state STOPPED
    STOPPED: entry / ToolStoppedEvent(tool)

    state CHOICE_START <<choice>>
    [*] - -> STOPPED
    STOPPED - -> CHOICE_START: START
    CHOICE_START - -> OPERATING: [ InportNotEmpty\n&&\nOutportNotFull ]
    CHOICE_START - -> IDLE: [ InportEmpty \n ||\n OutportFull ]

    OPERATING - -> STOPPED: STOP
    OPERATING - -> IDLE

    state IDLE {

        state BLOCKED_UPSTREAM: entry / ToolIdleEvent(UPSTREAM)
        state BLOCKED_DOWNSTREAM: entry / ToolIdleEvent(DOWNSTREAM)

        [*] - -> BLOCKED_UPSTREAM: [ InportEmpty ]
        [*] - -> BLOCKED_DOWNSTREAM: [ OutportFull ]
        BLOCKED_DOWNSTREAM - -> BLOCKED_UP_AND_DOWNSTREAM: [ InportEmpty ] /\n ToolIdleEvent(UPSTREAM) ]
        BLOCKED_UPSTREAM - -> BLOCKED_UP_AND_DOWNSTREAM: [ OutportFull ] /\n ToolIdleEvent(DOWNSTREAM) ]
        BLOCKED_UP_AND_DOWNSTREAM - -> BLOCKED_UPSTREAM: [ OutportNotFull ]
        BLOCKED_UP_AND_DOWNSTREAM - -> BLOCKED_DOWNSTREAM: [ InportNotEmpty ]
        BLOCKED_DOWNSTREAM - -> [*]: [ OutportNotFull ]
        BLOCKED_UPSTREAM - -> [*]: [ InputNotEmpty ]
     }

    state OPERATING {
        OPERATING: entry / ToolOperatingEvent(tool)
                state LOADING_PROCESS: PartInProcessEvent(tool, part)
                state UNLOADING_PROCESS: PartProcessedEvent(tool, part)
                state CHOICE_UNLOADING <<choice>>
                state PROCESSING_PART

                [*] - -> LOADING_PROCESS: [ProcessEmpty]
                [*] - -> UNLOADING_PROCESS: [ProcessNotEmpty]
                LOADING_PROCESS - -> PROCESSING_PART

                PROCESSING_PART - -> UNLOADING_PROCESS: [await process time]
                UNLOADING_PROCESS - -> CHOICE_UNLOADING: [await unloading time]
                CHOICE_UNLOADING - -> LOADING_PROCESS: [ InportNotEmpty \n&& \nOutportNotFull ]
                CHOICE_UNLOADING - -> [*] : [ InportEmpty || OutportFull ]
    }

    IDLE - -> OPERATING
    IDLE - -> STOPPED: STOP

}

UP - -> DOWN: FAULT
DOWN - -> UP: FAULT_CLEAR
@enduml

PlantUML version 1.2022.13(Sat Nov 19 14:22:17 CET 2022)
(GPL source distribution)
Java Runtime: OpenJDK Runtime Environment
JVM: OpenJDK 64-Bit Server VM
Default Encoding: UTF-8
Language: en
Country: GB
--></g></svg>