<?xml version="1.0" encoding="UTF-8" standalone="no"?><svg xmlns="http://www.w3.org/2000/svg" xmlns:xlink="http://www.w3.org/1999/xlink" contentStyleType="text/css" height="690.1318px" preserveAspectRatio="none" style="width:352px;height:690px;background:#FFFFFF;" version="1.1" viewBox="0 0 352 690" width="352.7251px" zoomAndPan="magnify"><defs/><g><ellipse cx="175.1532" cy="6.4498" fill="#222222" rx="4.0311" ry="4.0311" style="stroke:none;stroke-width:0.4031143462637059;"/><g id="DOWN"><rect fill="#F1F1F1" height="22.3374" rx="5.0389" ry="5.0389" style="stroke:#181818;stroke-width:0.20155717313185295;" width="70.545" x="139.8807" y="665.5418"/><line style="stroke:#181818;stroke-width:0.20155717313185295;" x1="139.8807" x2="210.4257" y1="677.2595" y2="677.2595"/><text fill="#000000" font-family="sans-serif" font-size="5.6436" lengthAdjust="spacing" textLength="18.1401" x="166.0831" y="673.5903">DOWN</text><text fill="#000000" font-family="sans-serif" font-size="4.8374" lengthAdjust="spacing" textLength="62.4827" x="141.8962" y="684.4462">entry/ issue ToolDownEvent</text></g><path d="M7.8607,35.0709 L342.5424,35.0709 A5.0389,5.0389 0 0 1 347.5813,40.1099 L347.5813,68.5699 L2.8218,68.5699 L2.8218,40.1099 A5.0389,5.0389 0 0 1 7.8607,35.0709 " fill="#F1F1F1" style="stroke:#F1F1F1;stroke-width:0.4031143462637059;"/><rect fill="none" height="598.6926" rx="5.0389" ry="5.0389" style="stroke:#181818;stroke-width:0.20155717313185295;" width="344.7595" x="2.8218" y="35.0709"/><line style="stroke:#181818;stroke-width:0.20155717313185295;" x1="2.8218" x2="347.5813" y1="68.5699" y2="68.5699"/><line style="stroke:#181818;stroke-width:0.20155717313185295;" x1="2.8218" x2="347.5813" y1="46.7886" y2="46.7886"/><text fill="#000000" font-family="sans-serif" font-size="5.6436" lengthAdjust="spacing" textLength="7.2561" x="171.5735" y="43.1195">UP</text><text fill="#000000" font-family="sans-serif" font-size="4.8374" lengthAdjust="spacing" textLength="99.9724" x="4.8374" y="51.9598">entry/ ToolUpEventAction, ToolUpEvent(tool)</text><text fill="#000000" font-family="sans-serif" font-size="4.8374" lengthAdjust="spacing" textLength="132.2215" x="4.8374" y="58.5484">PART_LOADING / LoadPartAction, PartLoadedEvt(tool, part)</text><text fill="#000000" font-family="sans-serif" font-size="4.8374" lengthAdjust="spacing" textLength="149.9585" x="4.8374" y="65.1369">PART_UNLOADING / UnloadPartAction, PartUnloadedEvt(tool, part)</text><g id="UP.STOPPED"><rect fill="#F1F1F1" height="22.3374" rx="5.0389" ry="5.0389" style="stroke:#181818;stroke-width:0.20155717313185295;" width="76.1886" x="155.3321" y="95.9816"/><line style="stroke:#181818;stroke-width:0.20155717313185295;" x1="155.3321" x2="231.5207" y1="107.6993" y2="107.6993"/><text fill="#000000" font-family="sans-serif" font-size="5.6436" lengthAdjust="spacing" textLength="24.59" x="181.1314" y="104.0302">STOPPED</text><text fill="#000000" font-family="sans-serif" font-size="4.8374" lengthAdjust="spacing" textLength="68.1263" x="157.3476" y="114.8861">entry / ToolStoppedEvent(tool)</text></g><g id="elem_UP_CHOICE"><polygon fill="#F1F1F1" points="171.6582,140.3242,176.4956,145.1616,171.6582,149.999,166.8208,145.1616,171.6582,140.3242" style="stroke:#181818;stroke-width:0.20155717313185295;"/></g><ellipse cx="193.4264" cy="77.0353" fill="#222222" rx="4.0311" ry="4.0311" style="stroke:none;stroke-width:0.4031143462637059;"/><path d="M80.5543,172.1702 L284.5504,172.1702 A5.0389,5.0389 0 0 1 289.5893,177.2092 L289.5893,183.8879 L75.5154,183.8879 L75.5154,177.2092 A5.0389,5.0389 0 0 1 80.5543,172.1702 " fill="#F1F1F1" style="stroke:#F1F1F1;stroke-width:0.4031143462637059;"/><rect fill="none" height="228.5932" rx="5.0389" ry="5.0389" style="stroke:#181818;stroke-width:0.20155717313185295;" width="214.0739" x="75.5154" y="172.1702"/><line style="stroke:#181818;stroke-width:0.20155717313185295;" x1="75.5154" x2="289.5893" y1="183.8879" y2="183.8879"/><text fill="#000000" font-family="sans-serif" font-size="5.6436" lengthAdjust="spacing" textLength="12.0934" x="176.5056" y="180.2188">IDLE</text><g id="UP.IDLE.BLOCKED_UPSTREAM"><rect fill="#F1F1F1" height="22.3374" rx="5.0389" ry="5.0389" style="stroke:#181818;stroke-width:0.20155717313185295;" width="83.0416" x="101.734" y="243.1457"/><line style="stroke:#181818;stroke-width:0.20155717313185295;" x1="101.734" x2="184.7755" y1="254.8634" y2="254.8634"/><text fill="#000000" font-family="sans-serif" font-size="5.6436" lengthAdjust="spacing" textLength="57.2422" x="114.6336" y="251.1943">BLOCKED_UPSTREAM</text><text fill="#000000" font-family="sans-serif" font-size="4.8374" lengthAdjust="spacing" textLength="74.9793" x="103.7495" y="262.0502">entry / ToolIdleEvent(UPSTREAM)</text></g><g id="UP.IDLE.BLOCKED_DOWNSTREAM"><rect fill="#F1F1F1" height="22.3374" rx="5.0389" ry="5.0389" style="stroke:#181818;stroke-width:0.20155717313185295;" width="91.9101" x="118.6648" y="344.3274"/><line style="stroke:#181818;stroke-width:0.20155717313185295;" x1="118.6648" x2="210.5748" y1="356.0451" y2="356.0451"/><text fill="#000000" font-family="sans-serif" font-size="5.6436" lengthAdjust="spacing" textLength="68.1263" x="130.5566" y="352.376">BLOCKED_DOWNSTREAM</text><text fill="#000000" font-family="sans-serif" font-size="4.8374" lengthAdjust="spacing" textLength="83.8478" x="120.6803" y="363.2319">entry / ToolIdleEvent(DOWNSTREAM)</text></g><g id="elem_IDLE_CHOICE"><polygon fill="#F1F1F1" points="204.5281,211.2997,209.3655,216.1371,204.5281,220.9745,199.6908,216.1371,204.5281,211.2997" style="stroke:#181818;stroke-width:0.20155717313185295;"/></g><ellipse cx="204.5281" cy="192.3533" fill="#222222" rx="4.0311" ry="4.0311" style="stroke:none;stroke-width:0.4031143462637059;"/><g id="UP.IDLE.BLOCKED_UP_AND_DOWNSTREAM"><rect fill="#F1F1F1" height="20.1557" rx="5.0389" ry="5.0389" style="stroke:#181818;stroke-width:0.20155717313185295;" width="100.3755" x="101.9355" y="294.7444"/><line style="stroke:#181818;stroke-width:0.20155717313185295;" x1="101.9355" x2="202.311" y1="306.4621" y2="306.4621"/><text fill="#000000" font-family="sans-serif" font-size="5.6436" lengthAdjust="spacing" textLength="92.3132" x="105.9667" y="302.7929">BLOCKED_UP_AND_DOWNSTREAM</text></g><ellipse cx="87.625" cy="392.7012" fill="none" rx="4.0311" ry="4.0311" style="stroke:#222222;stroke-width:0.4031143462637059;"/><ellipse cx="87.8265" cy="392.9027" fill="#222222" rx="2.4187" ry="2.4187" style="stroke:none;stroke-width:0.4031143462637059;"/><!--MD5=[07778f4581370766c28658575ceeca7b]
link *start*IDLE to IDLE_CHOICE--><g id="link_*start*IDLE_IDLE_CHOICE"><path d="M204.5281,196.449 C204.5281,199.8634 204.5281,205.0152 204.5281,209.135 " fill="none" id="*start*IDLE-to-IDLE_CHOICE" style="stroke:#181818;stroke-width:0.4031143462637059;"/><polygon fill="#181818" points="204.5281,211.1828,206.1406,207.5548,204.5281,209.1672,202.9157,207.5548,204.5281,211.1828" style="stroke:#181818;stroke-width:0.4031143462637059;"/></g><!--MD5=[52036c6eb8ad1201fb5ef70232fe9a23]
link IDLE_CHOICE to BLOCKED_UPSTREAM--><g id="link_IDLE_CHOICE_BLOCKED_UPSTREAM"><path d="M201.7345,218.2373 C194.9219,222.3854 176.9712,233.3098 162.7373,241.9727 " fill="none" id="IDLE_CHOICE-to-BLOCKED_UPSTREAM" style="stroke:#181818;stroke-width:0.4031143462637059;"/><polygon fill="#181818" points="160.8426,243.1256,164.7801,242.6166,162.5643,242.0776,163.1033,239.8618,160.8426,243.1256" style="stroke:#181818;stroke-width:0.4031143462637059;"/><text fill="#000000" font-family="sans-serif" font-size="5.2405" lengthAdjust="spacing" textLength="36.6834" x="184.7755" y="234.2357">[ InportEmpty ]</text></g><!--MD5=[034516b8d479163cde9cbd0b117042fa]
link IDLE_CHOICE to BLOCKED_DOWNSTREAM--><g id="link_IDLE_CHOICE_BLOCKED_DOWNSTREAM"><path d="M207.7813,217.7858 C211.9495,219.5313 219.1451,223.0827 223.4745,228.2305 C255.8164,266.6917 285.9613,298.2031 254.1112,337.0714 C248.524,343.8881 230.9039,348.1651 212.7557,350.8256 " fill="none" id="IDLE_CHOICE-to-BLOCKED_DOWNSTREAM" style="stroke:#181818;stroke-width:0.4031143462637059;"/><polygon fill="#181818" points="210.6555,351.128,214.4737,352.2158,212.6511,350.8454,214.0216,349.0227,210.6555,351.128" style="stroke:#181818;stroke-width:0.4031143462637059;"/><text fill="#000000" font-family="sans-serif" font-size="5.2405" lengthAdjust="spacing" textLength="14.9152" x="264.9953" y="282.2063">[ else ]</text></g><!--MD5=[bdca1cce17b5ba7f3d573cedc153eede]
link BLOCKED_DOWNSTREAM to BLOCKED_UP_AND_DOWNSTREAM--><g id="link_BLOCKED_DOWNSTREAM_BLOCKED_UP_AND_DOWNSTREAM"><path d="M177.7855,344.2509 C179.6479,342.0821 181.2886,339.6634 182.3568,337.0714 C184.8763,330.94 185.7067,327.8763 182.3568,322.1562 C181.0709,319.9672 179.3899,318.0404 177.4792,316.3473 " fill="none" id="BLOCKED_DOWNSTREAM-to-BLOCKED_UP_AND_DOWNSTREAM" style="stroke:#181818;stroke-width:0.4031143462637059;"/><polygon fill="#181818" points="175.8183,314.9807,177.5966,318.5304,177.3752,316.2608,179.6448,316.0394,175.8183,314.9807" style="stroke:#181818;stroke-width:0.4031143462637059;"/><text fill="#000000" font-family="sans-serif" font-size="5.2405" lengthAdjust="spacing" textLength="39.9083" x="184.7755" y="328.1614">[ InportEmpty ] /</text><text fill="#000000" font-family="sans-serif" font-size="5.2405" lengthAdjust="spacing" textLength="66.1108" x="185.9849" y="335.2989">ToolIdleEvent(UPSTREAM) ]</text></g><!--MD5=[bcaaea87ab6ead7ecc4dcc556f88c6d4]
link BLOCKED_UPSTREAM to BLOCKED_UP_AND_DOWNSTREAM--><g id="link_BLOCKED_UPSTREAM_BLOCKED_UP_AND_DOWNSTREAM"><path d="M156.4205,265.3936 C158.2828,267.5624 159.9235,269.9811 160.9918,272.5731 C163.6604,279.0673 161.7537,286.6297 159.0326,292.753 " fill="none" id="BLOCKED_UPSTREAM-to-BLOCKED_UP_AND_DOWNSTREAM" style="stroke:#181818;stroke-width:0.4031143462637059;"/><polygon fill="#181818" points="158.1659,294.6033,161.1587,291.9944,159.0164,292.7759,158.2349,290.6337,158.1659,294.6033" style="stroke:#181818;stroke-width:0.4031143462637059;"/><text fill="#000000" font-family="sans-serif" font-size="5.2405" lengthAdjust="spacing" textLength="37.0865" x="162.6042" y="278.5783">[ OutportFull ] /</text><text fill="#000000" font-family="sans-serif" font-size="5.2405" lengthAdjust="spacing" textLength="75.3824" x="163.8136" y="285.7158">ToolIdleEvent(DOWNSTREAM) ]</text></g><!--MD5=[5831f531a5755528ebda51ce494508b2]
link BLOCKED_UP_AND_DOWNSTREAM to BLOCKED_UPSTREAM--><g id="link_BLOCKED_UP_AND_DOWNSTREAM_BLOCKED_UPSTREAM"><path d="M122.4178,294.6678 C119.6766,292.6925 117.2539,290.3262 115.4399,287.4883 C111.8642,281.9052 112.2673,278.3941 115.4399,272.5731 C116.6008,270.4446 118.1327,268.5299 119.8822,266.8166 " fill="none" id="BLOCKED_UP_AND_DOWNSTREAM-to-BLOCKED_UPSTREAM" style="stroke:#181818;stroke-width:0.4031143462637059;"/><polygon fill="#181818" points="121.4019,265.4259,117.6393,266.6928,119.9176,266.7894,119.8209,269.0677,121.4019,265.4259" style="stroke:#181818;stroke-width:0.4031143462637059;"/><text fill="#000000" font-family="sans-serif" font-size="5.2405" lengthAdjust="spacing" textLength="43.1332" x="115.843" y="282.2063">[ OutportNotFull ]</text></g><!--MD5=[301e495d33da8f81c678eae304747ef1]
link BLOCKED_UP_AND_DOWNSTREAM to BLOCKED_DOWNSTREAM--><g id="link_BLOCKED_UP_AND_DOWNSTREAM_BLOCKED_DOWNSTREAM"><path d="M138.8487,315.0493 C136.8694,317.1616 135.1159,319.548 133.9831,322.1562 C131.3387,328.2351 130.6856,331.3189 133.9831,337.0714 C135.2287,339.2442 136.8493,341.1791 138.6955,342.8964 " fill="none" id="BLOCKED_UP_AND_DOWNSTREAM-to-BLOCKED_DOWNSTREAM" style="stroke:#181818;stroke-width:0.4031143462637059;"/><polygon fill="#181818" points="140.2959,344.2871,138.6196,340.6882,138.7762,342.9631,136.5012,343.1197,140.2959,344.2871" style="stroke:#181818;stroke-width:0.4031143462637059;"/><text fill="#000000" font-family="sans-serif" font-size="5.2405" lengthAdjust="spacing" textLength="45.955" x="134.3862" y="331.7894">[ InportNotEmpty ]</text></g><!--MD5=[306929e53be6d4806fc8853a7e46da29]
link BLOCKED_DOWNSTREAM to *end*IDLE--><g id="link_BLOCKED_DOWNSTREAM_*end*IDLE"><path d="M142.0373,366.5149 C125.0662,374.557 103.0844,384.9735 93.0469,389.7262 " fill="none" id="BLOCKED_DOWNSTREAM-to-*end*IDLE" style="stroke:#181818;stroke-width:0.4031143462637059;"/><polygon fill="#181818" points="91.2046,390.6009,95.1736,390.5018,93.0255,389.7366,93.7907,387.5885,91.2046,390.6009" style="stroke:#181818;stroke-width:0.4031143462637059;"/><text fill="#000000" font-family="sans-serif" font-size="5.2405" lengthAdjust="spacing" textLength="43.1332" x="126.3239" y="379.76">[ OutportNotFull ]</text></g><!--MD5=[61f54ccb3bbb3f6f3562a96d8b41887d]
link BLOCKED_UPSTREAM to *end*IDLE--><g id="link_BLOCKED_UPSTREAM_*end*IDLE"><path d="M120.3135,265.3453 C116.9798,267.4656 113.7508,269.8803 111.0056,272.5731 C93.2686,289.9675 90.6241,297.9129 85.2063,322.1562 C79.9497,345.6658 84.2549,374.694 86.4882,386.6988 " fill="none" id="BLOCKED_UPSTREAM-to-*end*IDLE" style="stroke:#181818;stroke-width:0.4031143462637059;"/><polygon fill="#181818" points="86.8752,388.7386,87.7839,384.8737,86.4999,386.7582,84.6154,385.4742,86.8752,388.7386" style="stroke:#181818;stroke-width:0.4031143462637059;"/><text fill="#000000" font-family="sans-serif" font-size="5.2405" lengthAdjust="spacing" textLength="43.9395" x="85.6094" y="331.7894">[ InputNotEmpty ]</text></g><path d="M114.8191,415.6513 L250.467,415.6513 A5.0389,5.0389 0 0 1 255.506,420.6902 L255.506,427.369 L109.7801,427.369 L109.7801,420.6902 A5.0389,5.0389 0 0 1 114.8191,415.6513 " fill="#F1F1F1" style="stroke:#F1F1F1;stroke-width:0.4031143462637059;"/><rect fill="none" height="214.0811" rx="5.0389" ry="5.0389" style="stroke:#181818;stroke-width:0.20155717313185295;" width="145.7258" x="109.7801" y="415.6513"/><line style="stroke:#181818;stroke-width:0.20155717313185295;" x1="109.7801" x2="255.506" y1="427.369" y2="427.369"/><text fill="#000000" font-family="sans-serif" font-size="5.6436" lengthAdjust="spacing" textLength="31.846" x="166.72" y="423.6999">OPERATING</text><g id="UP.OPERATING.LOADING_PROCESS"><rect fill="#F1F1F1" height="22.3374" rx="5.0389" ry="5.0389" style="stroke:#181818;stroke-width:0.20155717313185295;" width="89.8945" x="135.9826" y="486.6268"/><line style="stroke:#181818;stroke-width:0.20155717313185295;" x1="135.9826" x2="225.8771" y1="498.3445" y2="498.3445"/><text fill="#000000" font-family="sans-serif" font-size="5.6436" lengthAdjust="spacing" textLength="52.4049" x="154.7274" y="494.6754">LOADING_PROCESS</text><text fill="#000000" font-family="sans-serif" font-size="4.8374" lengthAdjust="spacing" textLength="81.8322" x="137.9981" y="505.5313">entry/ PartInProcessEvent(tool, part)</text></g><g id="UP.OPERATING.UNLOADING_PROCESS"><rect fill="#F1F1F1" height="22.3374" rx="5.0389" ry="5.0389" style="stroke:#181818;stroke-width:0.20155717313185295;" width="91.1038" x="148.2775" y="573.2964"/><line style="stroke:#181818;stroke-width:0.20155717313185295;" x1="148.2775" x2="239.3814" y1="585.0141" y2="585.0141"/><text fill="#000000" font-family="sans-serif" font-size="5.6436" lengthAdjust="spacing" textLength="60.8703" x="163.3943" y="581.3449">UNLOADING_PROCESS</text><text fill="#000000" font-family="sans-serif" font-size="4.8374" lengthAdjust="spacing" textLength="83.0416" x="150.2931" y="592.2008">entry/ PartProcessedEvent(tool, part)</text></g><g id="elem_CHOICE_PROCESS_EMPTY"><polygon fill="#F1F1F1" points="209.1478,454.7808,213.9852,459.6181,209.1478,464.4555,204.3104,459.6181,209.1478,454.7808" style="stroke:#181818;stroke-width:0.20155717313185295;"/></g><g id="UP.OPERATING.PROCESSING_PART"><rect fill="#F1F1F1" height="20.1557" rx="5.0389" ry="5.0389" style="stroke:#181818;stroke-width:0.20155717313185295;" width="59.2578" x="114.6175" y="530.9694"/><line style="stroke:#181818;stroke-width:0.20155717313185295;" x1="114.6175" x2="173.8753" y1="542.6871" y2="542.6871"/><text fill="#000000" font-family="sans-serif" font-size="5.6436" lengthAdjust="spacing" textLength="51.1955" x="118.6486" y="539.0179">PROCESSING_PART</text></g><ellipse cx="209.1478" cy="435.8344" fill="#222222" rx="4.0311" ry="4.0311" style="stroke:none;stroke-width:0.4031143462637059;"/><ellipse cx="193.8295" cy="621.6701" fill="none" rx="4.0311" ry="4.0311" style="stroke:#222222;stroke-width:0.4031143462637059;"/><ellipse cx="194.031" cy="621.8717" fill="#222222" rx="2.4187" ry="2.4187" style="stroke:none;stroke-width:0.4031143462637059;"/><!--MD5=[e2286423c3ab4f6f1c3d06f5b0f60749]
link *start*OPERATING to CHOICE_PROCESS_EMPTY--><g id="link_*start*OPERATING_CHOICE_PROCESS_EMPTY"><path d="M209.1478,439.93 C209.1478,443.3444 209.1478,448.4962 209.1478,452.6161 " fill="none" id="*start*OPERATING-to-CHOICE_PROCESS_EMPTY" style="stroke:#181818;stroke-width:0.4031143462637059;"/><polygon fill="#181818" points="209.1478,454.6639,210.7603,451.0358,209.1478,452.6483,207.5354,451.0358,209.1478,454.6639" style="stroke:#181818;stroke-width:0.4031143462637059;"/></g><!--MD5=[79ccf8ca06e4f8a4050828f562cc2994]
link CHOICE_PROCESS_EMPTY to LOADING_PROCESS--><g id="link_CHOICE_PROCESS_EMPTY_LOADING_PROCESS"><path d="M206.2655,461.5853 C202.8391,463.5687 197.1189,467.2612 193.4264,471.7116 C190.2498,475.5412 187.6376,480.314 185.6382,484.6999 " fill="none" id="CHOICE_PROCESS_EMPTY-to-LOADING_PROCESS" style="stroke:#181818;stroke-width:0.4031143462637059;"/><polygon fill="#181818" points="184.8199,486.5502,187.7552,483.877,185.6305,484.7048,184.8026,482.58,184.8199,486.5502" style="stroke:#181818;stroke-width:0.4031143462637059;"/><text fill="#000000" font-family="sans-serif" font-size="5.2405" lengthAdjust="spacing" textLength="37.4896" x="193.8295" y="477.7168">[ProcessEmpty]</text></g><!--MD5=[9a9d6f881016286da7b08d5515adc746]
link CHOICE_PROCESS_EMPTY to UNLOADING_PROCESS--><g id="link_CHOICE_PROCESS_EMPTY_UNLOADING_PROCESS"><path d="M213.0217,460.7469 C218.3187,461.9683 227.6387,464.9997 231.7222,471.7116 C250.1768,502.054 237.8979,518.9525 222.8537,551.1251 C219.2861,558.752 213.3845,565.9194 207.8296,571.6033 " fill="none" id="CHOICE_PROCESS_EMPTY-to-UNLOADING_PROCESS" style="stroke:#181818;stroke-width:0.4031143462637059;"/><polygon fill="#181818" points="206.2776,573.1674,209.9803,571.7347,207.7,571.7393,207.6954,569.4589,206.2776,573.1674" style="stroke:#181818;stroke-width:0.4031143462637059;"/><text fill="#000000" font-family="sans-serif" font-size="5.2405" lengthAdjust="spacing" textLength="12.4965" x="238.9783" y="522.0594">[else]</text></g><!--MD5=[a3f178933f85b92a19cc73c8d9d40f08]
link LOADING_PROCESS to PROCESSING_PART--><g id="link_LOADING_PROCESS_PROCESSING_PART"><path d="M171.6743,508.8465 C166.2726,515.1068 159.468,522.9998 153.9856,529.3529 " fill="none" id="LOADING_PROCESS-to-PROCESSING_PART" style="stroke:#181818;stroke-width:0.4031143462637059;"/><polygon fill="#181818" points="152.6231,530.9331,156.2153,529.2423,153.941,529.4081,153.7752,527.1337,152.6231,530.9331" style="stroke:#181818;stroke-width:0.4031143462637059;"/></g><!--MD5=[56a1263b32f9f86d3168510cc81dd10d]
link PROCESSING_PART to UNLOADING_PROCESS--><g id="link_PROCESSING_PART_UNLOADING_PROCESS"><path d="M139.0543,551.1936 C137.2362,556.0471 136.3252,561.7754 139.409,566.0403 C141.3883,568.7775 143.7989,571.1035 146.4958,573.0787 " fill="none" id="PROCESSING_PART-to-UNLOADING_PROCESS" style="stroke:#181818;stroke-width:0.4031143462637059;"/><polygon fill="#181818" points="148.209,574.2679,146.1408,570.8789,146.5508,573.1221,144.3076,573.5321,148.209,574.2679" style="stroke:#181818;stroke-width:0.4031143462637059;"/><text fill="#000000" font-family="sans-serif" font-size="5.2405" lengthAdjust="spacing" textLength="47.9706" x="139.8121" y="564.3864">[await process time]</text></g><!--MD5=[d97e97f8aadf993069cdd8b8cbdb75b0]
link UNLOADING_PROCESS to LOADING_PROCESS--><g id="link_UNLOADING_PROCESS_LOADING_PROCESS"><path d="M192.221,573.2762 C189.8386,557.4258 185.3802,527.7525 182.8365,510.8177 " fill="none" id="UNLOADING_PROCESS-to-LOADING_PROCESS" style="stroke:#181818;stroke-width:0.4031143462637059;"/><polygon fill="#181818" points="182.5382,508.8183,181.4829,512.6456,182.8378,510.8114,184.672,512.1663,182.5382,508.8183" style="stroke:#181818;stroke-width:0.4031143462637059;"/><text fill="#000000" font-family="sans-serif" font-size="5.2405" lengthAdjust="spacing" textLength="31.4429" x="189.3952" y="543.2229">[ FlowIsFree ]</text></g><!--MD5=[330f8133c2ce4ecb2f6de8dd5f81d094]
link UNLOADING_PROCESS to *end*OPERATING--><g id="link_UNLOADING_PROCESS_*end*OPERATING"><path d="M193.8295,595.5322 C193.8295,602.0062 193.8295,610.004 193.8295,615.3493 " fill="none" id="UNLOADING_PROCESS-to-*end*OPERATING" style="stroke:#181818;stroke-width:0.4031143462637059;"/><polygon fill="#181818" points="193.8295,617.4656,195.4419,613.8376,193.8295,615.4501,192.217,613.8376,193.8295,617.4656" style="stroke:#181818;stroke-width:0.4031143462637059;"/><text fill="#000000" font-family="sans-serif" font-size="5.2405" lengthAdjust="spacing" textLength="40.7145" x="194.2326" y="608.7289">[ FlowIsNotFree ]</text></g><!--MD5=[3167d8dfba7618b340bd4b8c188eac9d]
link *start*UP to STOPPED--><g id="link_*start*UP_STOPPED"><path d="M193.4264,81.139 C193.4264,84.3639 193.4264,89.2335 193.4264,93.8572 " fill="none" id="*start*UP-to-STOPPED" style="stroke:#181818;stroke-width:0.4031143462637059;"/><polygon fill="#181818" points="193.4264,95.9574,195.0388,92.3294,193.4264,93.9419,191.8139,92.3294,193.4264,95.9574" style="stroke:#181818;stroke-width:0.4031143462637059;"/></g><!--MD5=[468e8e0f5de07c03269dda3bd37664f3]
link STOPPED to UP_CHOICE--><g id="link_STOPPED_UP_CHOICE"><path d="M177.3421,118.2013 C175.2177,120.3297 173.3351,122.7444 172.0613,125.409 C170.0538,129.6014 170.0981,134.9144 170.5617,138.9133 " fill="none" id="STOPPED-to-UP_CHOICE" style="stroke:#181818;stroke-width:0.4031143462637059;"/><polygon fill="#181818" points="170.852,140.9813,171.9413,137.1634,170.5701,138.9855,168.7481,137.6144,170.852,140.9813" style="stroke:#181818;stroke-width:0.4031143462637059;"/><text fill="#000000" font-family="sans-serif" font-size="5.2405" lengthAdjust="spacing" textLength="14.9152" x="172.4644" y="131.4142">START</text></g><!--MD5=[bd556a2bd9060a5f276eafd44e8ae4fe]
link UP_CHOICE to OPERATING--><g id="link_UP_CHOICE_OPERATING"><path d="M167.3247,145.73 C146.4111,146.637 56.1982,151.7001 39.4367,172.1702 C7.2561,211.4699 18.1079,354.64 39.4367,400.7361 C54.0012,432.2153 81.1832,458.5265 107.9782,478.5251 " fill="none" id="UP_CHOICE-to-OPERATING" style="stroke:#181818;stroke-width:0.4031143462637059;"/><polygon fill="#181818" points="109.7438,479.8311,107.7871,476.3766,108.1238,478.632,105.8684,478.9687,109.7438,479.8311" style="stroke:#181818;stroke-width:0.4031143462637059;"/><text fill="#000000" font-family="sans-serif" font-size="5.2405" lengthAdjust="spacing" textLength="31.4429" x="39.8398" y="288.6288">[ FlowIsFree ]</text></g><!--MD5=[e27d72dedc9cb1f3b9185c5c9c0aa156]
link UP_CHOICE to IDLE--><g id="link_UP_CHOICE_IDLE"><path d="M171.6662,150.0272 C171.6945,153.9495 171.7872,159.8148 172.0613,164.9142 C172.15,166.6194 172.2467,168.3366 172.3475,170.066 " fill="none" id="UP_CHOICE-to-IDLE" style="stroke:#181818;stroke-width:0.4031143462637059;"/><polygon fill="#181818" points="172.4684,172.0977,173.8707,168.3833,172.3531,170.0854,170.6511,168.5678,172.4684,172.0977" style="stroke:#181818;stroke-width:0.4031143462637059;"/><text fill="#000000" font-family="sans-serif" font-size="5.2405" lengthAdjust="spacing" textLength="14.9152" x="172.4644" y="163.2602">[ else ]</text></g><!--MD5=[90073fffbc82e79c59e627457c5c60c3]
link OPERATING to STOPPED--><g id="link_OPERATING_STOPPED"><path d="M255.4052,459.7762 C270.8687,442.3939 285.0381,422.3067 293.3987,400.7361 C330.1063,306.0163 341.9377,261.4077 293.3987,172.1702 C279.2978,146.246 249.8422,129.1176 226.5341,119.0357 " fill="none" id="OPERATING-to-STOPPED" style="stroke:#181818;stroke-width:0.4031143462637059;"/><polygon fill="#181818" points="224.5871,118.2013,227.2942,121.1054,226.4418,118.9904,228.5568,118.1379,224.5871,118.2013" style="stroke:#181818;stroke-width:0.4031143462637059;"/><text fill="#000000" font-family="sans-serif" font-size="5.2405" lengthAdjust="spacing" textLength="12.8997" x="288.9645" y="163.2602">STOP</text></g><!--MD5=[4346f20216289b09d1c2b40e5ac8e089]
link OPERATING to IDLE--><g id="link_OPERATING_IDLE"><path d="M185.2512,415.5546 C185.2593,411.3299 185.2633,407.0892 185.2633,402.8524 " fill="none" id="OPERATING-to-IDLE" style="stroke:#181818;stroke-width:0.4031143462637059;"/><polygon fill="#181818" points="185.2593,400.7724,183.6468,404.4004,185.2593,402.7879,186.8717,404.4004,185.2593,400.7724" style="stroke:#181818;stroke-width:0.4031143462637059;"/></g><!--MD5=[f73100d716ce6e7b7beadc3c5b4f0ff2]
link IDLE to OPERATING--><g id="link_IDLE_OPERATING"><path d="M179.8212,400.7724 C179.8172,405.0091 179.8212,409.2499 179.8253,413.4785 " fill="none" id="IDLE-to-OPERATING" style="stroke:#181818;stroke-width:0.4031143462637059;"/><polygon fill="#181818" points="179.8293,415.5546,181.4314,411.9219,179.8236,413.539,178.2065,411.9312,179.8293,415.5546" style="stroke:#181818;stroke-width:0.4031143462637059;"/></g><!--MD5=[5b7a1d6a0aba5eb788015da42a92fdc7]
link IDLE to STOPPED--><g id="link_IDLE_STOPPED"><path d="M189.4839,172.1138 C190.7577,151.2204 191.9147,132.278 192.6403,120.3781 " fill="none" id="IDLE-to-STOPPED" style="stroke:#181818;stroke-width:0.4031143462637059;"/><polygon fill="#181818" points="192.7693,118.2376,190.9418,121.7622,192.6482,120.2495,194.1609,121.9559,192.7693,118.2376" style="stroke:#181818;stroke-width:0.4031143462637059;"/><text fill="#000000" font-family="sans-serif" font-size="5.2405" lengthAdjust="spacing" textLength="12.8997" x="191.8139" y="147.3372">STOP</text></g><!--MD5=[1484cf804706c17b6caeb7077b9bb997]
link *start to UP--><g id="link_*start_UP"><path d="M175.1532,10.5253 C175.1532,14.7701 175.1532,22.526 175.1532,32.8982 " fill="none" id="*start-to-UP" style="stroke:#181818;stroke-width:0.4031143462637059;"/><polygon fill="#181818" points="175.1532,35.0105,176.7656,31.3825,175.1532,32.9949,173.5407,31.3825,175.1532,35.0105" style="stroke:#181818;stroke-width:0.4031143462637059;"/></g><!--MD5=[ecac89f1cb9a834dd3beff1ef5c67012]
link UP to DOWN--><g id="link_UP_DOWN"><path d="M158.174,633.7482 C158.049,637.7874 157.9321,641.8024 157.8193,645.7892 C157.7225,649.1915 156.7309,650.2234 157.8193,653.4484 C159.0528,657.1046 161.1288,660.6359 163.4306,663.7842 " fill="none" id="UP-to-DOWN" style="stroke:#181818;stroke-width:0.4031143462637059;"/><polygon fill="#181818" points="164.7246,665.4934,163.8223,661.6271,163.5088,663.8858,161.2501,663.5724,164.7246,665.4934" style="stroke:#181818;stroke-width:0.4031143462637059;"/><text fill="#000000" font-family="sans-serif" font-size="5.2405" lengthAdjust="spacing" textLength="15.7215" x="158.2224" y="651.7944">FAULT</text></g><!--MD5=[1ce488963331178650d08126837d26c2]
link DOWN to UP--><g id="link_DOWN_UP"><path d="M175.6127,665.4531 C175.7538,661.6598 175.8909,657.3666 175.9594,653.4484 C176.0199,650.0461 175.9634,649.1915 175.9594,645.7892 C175.9554,642.4917 175.9513,639.1741 175.9473,635.8403 " fill="none" id="DOWN-to-UP" style="stroke:#181818;stroke-width:0.4031143462637059;"/><polygon fill="#181818" points="175.9433,633.7603,174.3412,637.3929,175.949,635.7758,177.5661,637.3837,175.9433,633.7603" style="stroke:#181818;stroke-width:0.4031143462637059;"/><text fill="#000000" font-family="sans-serif" font-size="5.2405" lengthAdjust="spacing" textLength="33.4585" x="176.3625" y="651.7944">FAULT_CLEAR</text></g><!--MD5=[4403f9119e0fc465c7686b1187e7d8ac]
@startuml
'https://plantuml.com/state-diagram
skinparam defaultTextAlignment left
scale 350 width

[*] - -> UP
state DOWN : entry/ issue ToolDownEvent

state UP {
    state UP: entry/ ToolUpEventAction, ToolUpEvent(tool)
    state UP: PART_LOADING / LoadPartAction, PartLoadedEvt(tool, part)
    state UP: PART_UNLOADING / UnloadPartAction, PartUnloadedEvt(tool, part)

    state STOPPED
    STOPPED: entry / ToolStoppedEvent(tool)

    state UP_CHOICE <<choice>>
    [*] - -> STOPPED
    STOPPED - -> UP_CHOICE: START
    UP_CHOICE - -> OPERATING: [ FlowIsFree ]
    UP_CHOICE - -> IDLE: [ else ]

    OPERATING - -> STOPPED: STOP
    OPERATING - -> IDLE

    state IDLE {

        state BLOCKED_UPSTREAM: entry / ToolIdleEvent(UPSTREAM)
        state BLOCKED_DOWNSTREAM: entry / ToolIdleEvent(DOWNSTREAM)
        state IDLE_CHOICE <<choice>>

        [*] - -> IDLE_CHOICE
        IDLE_CHOICE - -> BLOCKED_UPSTREAM: [ InportEmpty ]
        IDLE_CHOICE - -> BLOCKED_DOWNSTREAM: [ else ]
        BLOCKED_DOWNSTREAM - -> BLOCKED_UP_AND_DOWNSTREAM: [ InportEmpty ] /\n ToolIdleEvent(UPSTREAM) ]
        BLOCKED_UPSTREAM - -> BLOCKED_UP_AND_DOWNSTREAM: [ OutportFull ] /\n ToolIdleEvent(DOWNSTREAM) ]
        BLOCKED_UP_AND_DOWNSTREAM - -> BLOCKED_UPSTREAM: [ OutportNotFull ]
        BLOCKED_UP_AND_DOWNSTREAM - -> BLOCKED_DOWNSTREAM: [ InportNotEmpty ]
        BLOCKED_DOWNSTREAM - -> [*]: [ OutportNotFull ]
        BLOCKED_UPSTREAM - -> [*]: [ InputNotEmpty ]
     }

    state OPERATING {
        state LOADING_PROCESS: entry/ PartInProcessEvent(tool, part)
        state UNLOADING_PROCESS: entry/ PartProcessedEvent(tool, part)
        state CHOICE_PROCESS_EMPTY <<choice>>
        state PROCESSING_PART

        [*] - -> CHOICE_PROCESS_EMPTY
        CHOICE_PROCESS_EMPTY - -> LOADING_PROCESS: [ProcessEmpty]
        CHOICE_PROCESS_EMPTY - -> UNLOADING_PROCESS: [else]
        LOADING_PROCESS - -> PROCESSING_PART

        PROCESSING_PART - -> UNLOADING_PROCESS: [await process time]
        UNLOADING_PROCESS - -> LOADING_PROCESS: [ FlowIsFree ]
        UNLOADING_PROCESS - -> [*] : [ FlowIsNotFree ]
    }

    IDLE - -> OPERATING
    IDLE - -> STOPPED: STOP

}

UP - -> DOWN: FAULT
DOWN - -> UP: FAULT_CLEAR
@enduml

@startuml
skinparam defaultTextAlignment left
scale 350 width

[*] - -> UP
state DOWN : entry/ issue ToolDownEvent

state UP {
    state UP: entry/ ToolUpEventAction, ToolUpEvent(tool)
    state UP: PART_LOADING / LoadPartAction, PartLoadedEvt(tool, part)
    state UP: PART_UNLOADING / UnloadPartAction, PartUnloadedEvt(tool, part)

    state STOPPED
    STOPPED: entry / ToolStoppedEvent(tool)

    state UP_CHOICE <<choice>>
    [*] - -> STOPPED
    STOPPED - -> UP_CHOICE: START
    UP_CHOICE - -> OPERATING: [ FlowIsFree ]
    UP_CHOICE - -> IDLE: [ else ]

    OPERATING - -> STOPPED: STOP
    OPERATING - -> IDLE

    state IDLE {

        state BLOCKED_UPSTREAM: entry / ToolIdleEvent(UPSTREAM)
        state BLOCKED_DOWNSTREAM: entry / ToolIdleEvent(DOWNSTREAM)
        state IDLE_CHOICE <<choice>>

        [*] - -> IDLE_CHOICE
        IDLE_CHOICE - -> BLOCKED_UPSTREAM: [ InportEmpty ]
        IDLE_CHOICE - -> BLOCKED_DOWNSTREAM: [ else ]
        BLOCKED_DOWNSTREAM - -> BLOCKED_UP_AND_DOWNSTREAM: [ InportEmpty ] /\n ToolIdleEvent(UPSTREAM) ]
        BLOCKED_UPSTREAM - -> BLOCKED_UP_AND_DOWNSTREAM: [ OutportFull ] /\n ToolIdleEvent(DOWNSTREAM) ]
        BLOCKED_UP_AND_DOWNSTREAM - -> BLOCKED_UPSTREAM: [ OutportNotFull ]
        BLOCKED_UP_AND_DOWNSTREAM - -> BLOCKED_DOWNSTREAM: [ InportNotEmpty ]
        BLOCKED_DOWNSTREAM - -> [*]: [ OutportNotFull ]
        BLOCKED_UPSTREAM - -> [*]: [ InputNotEmpty ]
     }

    state OPERATING {
        state LOADING_PROCESS: entry/ PartInProcessEvent(tool, part)
        state UNLOADING_PROCESS: entry/ PartProcessedEvent(tool, part)
        state CHOICE_PROCESS_EMPTY <<choice>>
        state PROCESSING_PART

        [*] - -> CHOICE_PROCESS_EMPTY
        CHOICE_PROCESS_EMPTY - -> LOADING_PROCESS: [ProcessEmpty]
        CHOICE_PROCESS_EMPTY - -> UNLOADING_PROCESS: [else]
        LOADING_PROCESS - -> PROCESSING_PART

        PROCESSING_PART - -> UNLOADING_PROCESS: [await process time]
        UNLOADING_PROCESS - -> LOADING_PROCESS: [ FlowIsFree ]
        UNLOADING_PROCESS - -> [*] : [ FlowIsNotFree ]
    }

    IDLE - -> OPERATING
    IDLE - -> STOPPED: STOP

}

UP - -> DOWN: FAULT
DOWN - -> UP: FAULT_CLEAR
@enduml

PlantUML version 1.2022.13(Sat Nov 19 14:22:17 CET 2022)
(GPL source distribution)
Java Runtime: OpenJDK Runtime Environment
JVM: OpenJDK 64-Bit Server VM
Default Encoding: UTF-8
Language: en
Country: GB
--></g></svg>