<?xml version="1.0" encoding="UTF-8" standalone="no"?><svg xmlns="http://www.w3.org/2000/svg" xmlns:xlink="http://www.w3.org/1999/xlink" contentStyleType="text/css" height="691.7442px" preserveAspectRatio="none" style="width:352px;height:691px;background:#FFFFFF;" version="1.1" viewBox="0 0 352 691" width="352.7251px" zoomAndPan="magnify"><defs/><g><ellipse cx="175.1532" cy="6.4498" fill="#222222" rx="4.0311" ry="4.0311" style="stroke:none;stroke-width:0.4031143462637059;"/><g id="DOWN"><rect fill="#F1F1F1" height="22.3374" rx="5.0389" ry="5.0389" style="stroke:#181818;stroke-width:0.20155717313185295;" width="70.545" x="139.8807" y="667.1542"/><line style="stroke:#181818;stroke-width:0.20155717313185295;" x1="139.8807" x2="210.4257" y1="678.8719" y2="678.8719"/><text fill="#000000" font-family="sans-serif" font-size="5.6436" lengthAdjust="spacing" textLength="18.1401" x="166.0831" y="675.2028">DOWN</text><text fill="#000000" font-family="sans-serif" font-size="4.8374" lengthAdjust="spacing" textLength="62.4827" x="141.8962" y="686.0587">entry/ issue ToolDownEvent</text></g><path d="M7.8607,35.0709 L342.5424,35.0709 A5.0389,5.0389 0 0 1 347.5813,40.1099 L347.5813,68.5699 L2.8218,68.5699 L2.8218,40.1099 A5.0389,5.0389 0 0 1 7.8607,35.0709 " fill="#F1F1F1" style="stroke:#F1F1F1;stroke-width:0.4031143462637059;"/><rect fill="none" height="600.3051" rx="5.0389" ry="5.0389" style="stroke:#181818;stroke-width:0.20155717313185295;" width="344.7595" x="2.8218" y="35.0709"/><line style="stroke:#181818;stroke-width:0.20155717313185295;" x1="2.8218" x2="347.5813" y1="68.5699" y2="68.5699"/><line style="stroke:#181818;stroke-width:0.20155717313185295;" x1="2.8218" x2="347.5813" y1="46.7886" y2="46.7886"/><text fill="#000000" font-family="sans-serif" font-size="5.6436" lengthAdjust="spacing" textLength="7.2561" x="171.5735" y="43.1195">UP</text><text fill="#000000" font-family="sans-serif" font-size="4.8374" lengthAdjust="spacing" textLength="99.9724" x="4.8374" y="51.9598">entry/ ToolUpEventAction, ToolUpEvent(tool)</text><text fill="#000000" font-family="sans-serif" font-size="4.8374" lengthAdjust="spacing" textLength="132.2215" x="4.8374" y="58.5484">PART_LOADING / LoadPartAction, PartLoadedEvt(tool, part)</text><text fill="#000000" font-family="sans-serif" font-size="4.8374" lengthAdjust="spacing" textLength="149.9585" x="4.8374" y="65.1369">PART_UNLOADING / UnloadPartAction, PartUnloadedEvt(tool, part)</text><g id="UP.STOPPED"><rect fill="#F1F1F1" height="22.3374" rx="5.0389" ry="5.0389" style="stroke:#181818;stroke-width:0.20155717313185295;" width="76.1886" x="155.328" y="95.9816"/><line style="stroke:#181818;stroke-width:0.20155717313185295;" x1="155.328" x2="231.5166" y1="107.6993" y2="107.6993"/><text fill="#000000" font-family="sans-serif" font-size="5.6436" lengthAdjust="spacing" textLength="24.59" x="181.1273" y="104.0302">STOPPED</text><text fill="#000000" font-family="sans-serif" font-size="4.8374" lengthAdjust="spacing" textLength="68.1263" x="157.3436" y="114.8861">entry / ToolStoppedEvent(tool)</text></g><g id="elem_UP_CHOICE"><polygon fill="#F1F1F1" points="171.6542,140.3242,176.4915,145.1616,171.6542,149.999,166.8168,145.1616,171.6542,140.3242" style="stroke:#181818;stroke-width:0.20155717313185295;"/></g><ellipse cx="193.4223" cy="77.0353" fill="#222222" rx="4.0311" ry="4.0311" style="stroke:none;stroke-width:0.4031143462637059;"/><path d="M80.5503,172.1702 L284.5463,172.1702 A5.0389,5.0389 0 0 1 289.5853,177.2092 L289.5853,183.8879 L75.5114,183.8879 L75.5114,177.2092 A5.0389,5.0389 0 0 1 80.5503,172.1702 " fill="#F1F1F1" style="stroke:#F1F1F1;stroke-width:0.4031143462637059;"/><rect fill="none" height="228.5932" rx="5.0389" ry="5.0389" style="stroke:#181818;stroke-width:0.20155717313185295;" width="214.0739" x="75.5114" y="172.1702"/><line style="stroke:#181818;stroke-width:0.20155717313185295;" x1="75.5114" x2="289.5853" y1="183.8879" y2="183.8879"/><text fill="#000000" font-family="sans-serif" font-size="5.6436" lengthAdjust="spacing" textLength="12.0934" x="176.5016" y="180.2188">IDLE</text><g id="UP.IDLE.BLOCKED_UPSTREAM"><rect fill="#F1F1F1" height="22.3374" rx="5.0389" ry="5.0389" style="stroke:#181818;stroke-width:0.20155717313185295;" width="83.0416" x="101.7299" y="243.1457"/><line style="stroke:#181818;stroke-width:0.20155717313185295;" x1="101.7299" x2="184.7715" y1="254.8634" y2="254.8634"/><text fill="#000000" font-family="sans-serif" font-size="5.6436" lengthAdjust="spacing" textLength="57.2422" x="114.6296" y="251.1943">BLOCKED_UPSTREAM</text><text fill="#000000" font-family="sans-serif" font-size="4.8374" lengthAdjust="spacing" textLength="74.9793" x="103.7455" y="262.0502">entry / ToolIdleEvent(UPSTREAM)</text></g><g id="UP.IDLE.BLOCKED_DOWNSTREAM"><rect fill="#F1F1F1" height="22.3374" rx="5.0389" ry="5.0389" style="stroke:#181818;stroke-width:0.20155717313185295;" width="91.9101" x="118.6607" y="344.3274"/><line style="stroke:#181818;stroke-width:0.20155717313185295;" x1="118.6607" x2="210.5708" y1="356.0451" y2="356.0451"/><text fill="#000000" font-family="sans-serif" font-size="5.6436" lengthAdjust="spacing" textLength="68.1263" x="130.5526" y="352.376">BLOCKED_DOWNSTREAM</text><text fill="#000000" font-family="sans-serif" font-size="4.8374" lengthAdjust="spacing" textLength="83.8478" x="120.6763" y="363.2319">entry / ToolIdleEvent(DOWNSTREAM)</text></g><g id="elem_IDLE_CHOICE"><polygon fill="#F1F1F1" points="204.5241,211.2997,209.3615,216.1371,204.5241,220.9745,199.6867,216.1371,204.5241,211.2997" style="stroke:#181818;stroke-width:0.20155717313185295;"/></g><ellipse cx="204.5241" cy="192.3533" fill="#222222" rx="4.0311" ry="4.0311" style="stroke:none;stroke-width:0.4031143462637059;"/><g id="UP.IDLE.BLOCKED_UP_AND_DOWNSTREAM"><rect fill="#F1F1F1" height="20.1557" rx="5.0389" ry="5.0389" style="stroke:#181818;stroke-width:0.20155717313185295;" width="100.3755" x="101.9315" y="294.7444"/><line style="stroke:#181818;stroke-width:0.20155717313185295;" x1="101.9315" x2="202.307" y1="306.4621" y2="306.4621"/><text fill="#000000" font-family="sans-serif" font-size="5.6436" lengthAdjust="spacing" textLength="92.3132" x="105.9626" y="302.7929">BLOCKED_UP_AND_DOWNSTREAM</text></g><ellipse cx="87.6209" cy="392.7012" fill="none" rx="4.0311" ry="4.0311" style="stroke:#222222;stroke-width:0.4031143462637059;"/><ellipse cx="87.8225" cy="392.9027" fill="#222222" rx="2.4187" ry="2.4187" style="stroke:none;stroke-width:0.4031143462637059;"/><!--MD5=[07778f4581370766c28658575ceeca7b]
link *start*IDLE to IDLE_CHOICE--><g id="link_*start*IDLE_IDLE_CHOICE"><path d="M204.5241,196.449 C204.5241,199.8634 204.5241,205.0152 204.5241,209.135 " fill="none" id="*start*IDLE-to-IDLE_CHOICE" style="stroke:#181818;stroke-width:0.4031143462637059;"/><polygon fill="#181818" points="204.5241,211.1828,206.1366,207.5548,204.5241,209.1672,202.9116,207.5548,204.5241,211.1828" style="stroke:#181818;stroke-width:0.4031143462637059;"/></g><!--MD5=[52036c6eb8ad1201fb5ef70232fe9a23]
link IDLE_CHOICE to BLOCKED_UPSTREAM--><g id="link_IDLE_CHOICE_BLOCKED_UPSTREAM"><path d="M201.7305,218.2373 C194.9179,222.3854 176.9672,233.3098 162.7332,241.9727 " fill="none" id="IDLE_CHOICE-to-BLOCKED_UPSTREAM" style="stroke:#181818;stroke-width:0.4031143462637059;"/><polygon fill="#181818" points="160.8386,243.1256,164.776,242.6166,162.5603,242.0776,163.0993,239.8618,160.8386,243.1256" style="stroke:#181818;stroke-width:0.4031143462637059;"/><text fill="#000000" font-family="sans-serif" font-size="5.2405" lengthAdjust="spacing" textLength="36.6834" x="184.7715" y="234.2357">[ InportEmpty ]</text></g><!--MD5=[034516b8d479163cde9cbd0b117042fa]
link IDLE_CHOICE to BLOCKED_DOWNSTREAM--><g id="link_IDLE_CHOICE_BLOCKED_DOWNSTREAM"><path d="M207.7772,217.7858 C211.9454,219.5313 219.141,223.0827 223.4705,228.2305 C255.8123,266.6917 285.9572,298.2031 254.1072,337.0714 C248.52,343.8881 230.8999,348.1651 212.7517,350.8256 " fill="none" id="IDLE_CHOICE-to-BLOCKED_DOWNSTREAM" style="stroke:#181818;stroke-width:0.4031143462637059;"/><polygon fill="#181818" points="210.6514,351.128,214.4697,352.2158,212.6471,350.8454,214.0175,349.0227,210.6514,351.128" style="stroke:#181818;stroke-width:0.4031143462637059;"/><text fill="#000000" font-family="sans-serif" font-size="5.2405" lengthAdjust="spacing" textLength="14.9152" x="264.9912" y="282.2063">[ else ]</text></g><!--MD5=[bdca1cce17b5ba7f3d573cedc153eede]
link BLOCKED_DOWNSTREAM to BLOCKED_UP_AND_DOWNSTREAM--><g id="link_BLOCKED_DOWNSTREAM_BLOCKED_UP_AND_DOWNSTREAM"><path d="M177.7815,344.2509 C179.6439,342.0821 181.2846,339.6634 182.3528,337.0714 C184.8723,330.94 185.7027,327.8763 182.3528,322.1562 C181.0669,319.9672 179.3859,318.0404 177.4751,316.3473 " fill="none" id="BLOCKED_DOWNSTREAM-to-BLOCKED_UP_AND_DOWNSTREAM" style="stroke:#181818;stroke-width:0.4031143462637059;"/><polygon fill="#181818" points="175.8143,314.9807,177.5926,318.5304,177.3712,316.2608,179.6408,316.0394,175.8143,314.9807" style="stroke:#181818;stroke-width:0.4031143462637059;"/><text fill="#000000" font-family="sans-serif" font-size="5.2405" lengthAdjust="spacing" textLength="39.9083" x="184.7715" y="328.1614">[ InportEmpty ] /</text><text fill="#000000" font-family="sans-serif" font-size="5.2405" lengthAdjust="spacing" textLength="66.1108" x="185.9808" y="335.2989">ToolIdleEvent(UPSTREAM) ]</text></g><!--MD5=[bcaaea87ab6ead7ecc4dcc556f88c6d4]
link BLOCKED_UPSTREAM to BLOCKED_UP_AND_DOWNSTREAM--><g id="link_BLOCKED_UPSTREAM_BLOCKED_UP_AND_DOWNSTREAM"><path d="M156.4164,265.3936 C158.2788,267.5624 159.9195,269.9811 160.9877,272.5731 C163.6564,279.0673 161.7496,286.6297 159.0286,292.753 " fill="none" id="BLOCKED_UPSTREAM-to-BLOCKED_UP_AND_DOWNSTREAM" style="stroke:#181818;stroke-width:0.4031143462637059;"/><polygon fill="#181818" points="158.1619,294.6033,161.1546,291.9944,159.0124,292.7759,158.2309,290.6337,158.1619,294.6033" style="stroke:#181818;stroke-width:0.4031143462637059;"/><text fill="#000000" font-family="sans-serif" font-size="5.2405" lengthAdjust="spacing" textLength="37.0865" x="162.6002" y="278.5783">[ OutportFull ] /</text><text fill="#000000" font-family="sans-serif" font-size="5.2405" lengthAdjust="spacing" textLength="75.3824" x="163.8095" y="285.7158">ToolIdleEvent(DOWNSTREAM) ]</text></g><!--MD5=[5831f531a5755528ebda51ce494508b2]
link BLOCKED_UP_AND_DOWNSTREAM to BLOCKED_UPSTREAM--><g id="link_BLOCKED_UP_AND_DOWNSTREAM_BLOCKED_UPSTREAM"><path d="M122.4137,294.6678 C119.6726,292.6925 117.2498,290.3262 115.4358,287.4883 C111.8602,281.9052 112.2633,278.3941 115.4358,272.5731 C116.5968,270.4446 118.1286,268.5299 119.8781,266.8166 " fill="none" id="BLOCKED_UP_AND_DOWNSTREAM-to-BLOCKED_UPSTREAM" style="stroke:#181818;stroke-width:0.4031143462637059;"/><polygon fill="#181818" points="121.3979,265.4259,117.6352,266.6928,119.9135,266.7894,119.8169,269.0677,121.3979,265.4259" style="stroke:#181818;stroke-width:0.4031143462637059;"/><text fill="#000000" font-family="sans-serif" font-size="5.2405" lengthAdjust="spacing" textLength="43.1332" x="115.8389" y="282.2063">[ OutportNotFull ]</text></g><!--MD5=[301e495d33da8f81c678eae304747ef1]
link BLOCKED_UP_AND_DOWNSTREAM to BLOCKED_DOWNSTREAM--><g id="link_BLOCKED_UP_AND_DOWNSTREAM_BLOCKED_DOWNSTREAM"><path d="M138.8447,315.0493 C136.8654,317.1616 135.1118,319.548 133.9791,322.1562 C131.3347,328.2351 130.6816,331.3189 133.9791,337.0714 C135.2247,339.2442 136.8452,341.1791 138.6915,342.8964 " fill="none" id="BLOCKED_UP_AND_DOWNSTREAM-to-BLOCKED_DOWNSTREAM" style="stroke:#181818;stroke-width:0.4031143462637059;"/><polygon fill="#181818" points="140.2919,344.2871,138.6156,340.6882,138.7721,342.9631,136.4972,343.1197,140.2919,344.2871" style="stroke:#181818;stroke-width:0.4031143462637059;"/><text fill="#000000" font-family="sans-serif" font-size="5.2405" lengthAdjust="spacing" textLength="45.955" x="134.3822" y="331.7894">[ InportNotEmpty ]</text></g><!--MD5=[306929e53be6d4806fc8853a7e46da29]
link BLOCKED_DOWNSTREAM to *end*IDLE--><g id="link_BLOCKED_DOWNSTREAM_*end*IDLE"><path d="M142.0333,366.5149 C125.0622,374.557 103.0804,384.9735 93.0428,389.7262 " fill="none" id="BLOCKED_DOWNSTREAM-to-*end*IDLE" style="stroke:#181818;stroke-width:0.4031143462637059;"/><polygon fill="#181818" points="91.2006,390.6009,95.1696,390.5018,93.0214,389.7366,93.7866,387.5885,91.2006,390.6009" style="stroke:#181818;stroke-width:0.4031143462637059;"/><text fill="#000000" font-family="sans-serif" font-size="5.2405" lengthAdjust="spacing" textLength="43.1332" x="126.3199" y="379.76">[ OutportNotFull ]</text></g><!--MD5=[61f54ccb3bbb3f6f3562a96d8b41887d]
link BLOCKED_UPSTREAM to *end*IDLE--><g id="link_BLOCKED_UPSTREAM_*end*IDLE"><path d="M120.3095,265.3453 C116.9757,267.4656 113.7468,269.8803 111.0016,272.5731 C93.2645,289.9675 90.6201,297.9129 85.2022,322.1562 C79.9456,345.6658 84.2509,374.694 86.4842,386.6988 " fill="none" id="BLOCKED_UPSTREAM-to-*end*IDLE" style="stroke:#181818;stroke-width:0.4031143462637059;"/><polygon fill="#181818" points="86.8711,388.7386,87.7799,384.8737,86.4959,386.7582,84.6114,385.4742,86.8711,388.7386" style="stroke:#181818;stroke-width:0.4031143462637059;"/><text fill="#000000" font-family="sans-serif" font-size="5.2405" lengthAdjust="spacing" textLength="43.9395" x="85.6054" y="331.7894">[ InputNotEmpty ]</text></g><path d="M114.815,415.6513 L250.463,415.6513 A5.0389,5.0389 0 0 1 255.5019,420.6902 L255.5019,427.369 L109.7761,427.369 L109.7761,420.6902 A5.0389,5.0389 0 0 1 114.815,415.6513 " fill="#F1F1F1" style="stroke:#F1F1F1;stroke-width:0.4031143462637059;"/><rect fill="none" height="215.6936" rx="5.0389" ry="5.0389" style="stroke:#181818;stroke-width:0.20155717313185295;" width="145.7258" x="109.7761" y="415.6513"/><line style="stroke:#181818;stroke-width:0.20155717313185295;" x1="109.7761" x2="255.5019" y1="427.369" y2="427.369"/><text fill="#000000" font-family="sans-serif" font-size="5.6436" lengthAdjust="spacing" textLength="31.846" x="166.716" y="423.6999">OPERATING</text><g id="UP.OPERATING.LOADING_PROCESS"><rect fill="#F1F1F1" height="22.3374" rx="5.0389" ry="5.0389" style="stroke:#181818;stroke-width:0.20155717313185295;" width="89.8945" x="135.9785" y="488.2393"/><line style="stroke:#181818;stroke-width:0.20155717313185295;" x1="135.9785" x2="225.873" y1="499.957" y2="499.957"/><text fill="#000000" font-family="sans-serif" font-size="5.6436" lengthAdjust="spacing" textLength="52.4049" x="154.7233" y="496.2878">LOADING_PROCESS</text><text fill="#000000" font-family="sans-serif" font-size="4.8374" lengthAdjust="spacing" textLength="81.8322" x="137.9941" y="507.1437">entry/ PartInProcessEvent(tool, part)</text></g><g id="UP.OPERATING.UNLOADING_PROCESS"><rect fill="#F1F1F1" height="22.3374" rx="5.0389" ry="5.0389" style="stroke:#181818;stroke-width:0.20155717313185295;" width="91.1038" x="148.2735" y="574.9089"/><line style="stroke:#181818;stroke-width:0.20155717313185295;" x1="148.2735" x2="239.3774" y1="586.6265" y2="586.6265"/><text fill="#000000" font-family="sans-serif" font-size="5.6436" lengthAdjust="spacing" textLength="60.8703" x="163.3903" y="582.9574">UNLOADING_PROCESS</text><text fill="#000000" font-family="sans-serif" font-size="4.8374" lengthAdjust="spacing" textLength="83.0416" x="150.2891" y="593.8133">entry/ PartProcessedEvent(tool, part)</text></g><g id="elem_CHOICE_PROCESS_EMPTY"><polygon fill="#F1F1F1" points="209.1438,456.3932,213.9812,461.2306,209.1438,466.068,204.3064,461.2306,209.1438,456.3932" style="stroke:#181818;stroke-width:0.20155717313185295;"/></g><g id="elem_CHOICE_UNLOADING"><polygon fill="#F1F1F1" points="225.2684,431.8033,230.1057,436.6406,225.2684,441.478,220.431,436.6406,225.2684,431.8033" style="stroke:#181818;stroke-width:0.20155717313185295;"/></g><g id="UP.OPERATING.PROCESSING_PART"><rect fill="#F1F1F1" height="20.1557" rx="5.0389" ry="5.0389" style="stroke:#181818;stroke-width:0.20155717313185295;" width="59.2578" x="114.6135" y="532.5818"/><line style="stroke:#181818;stroke-width:0.20155717313185295;" x1="114.6135" x2="173.8713" y1="544.2995" y2="544.2995"/><text fill="#000000" font-family="sans-serif" font-size="5.6436" lengthAdjust="spacing" textLength="51.1955" x="118.6446" y="540.6304">PROCESSING_PART</text></g><ellipse cx="209.1438" cy="436.6406" fill="#222222" rx="4.0311" ry="4.0311" style="stroke:none;stroke-width:0.4031143462637059;"/><ellipse cx="193.8254" cy="623.2826" fill="none" rx="4.0311" ry="4.0311" style="stroke:#222222;stroke-width:0.4031143462637059;"/><ellipse cx="194.027" cy="623.4841" fill="#222222" rx="2.4187" ry="2.4187" style="stroke:none;stroke-width:0.4031143462637059;"/><!--MD5=[e2286423c3ab4f6f1c3d06f5b0f60749]
link *start*OPERATING to CHOICE_PROCESS_EMPTY--><g id="link_*start*OPERATING_CHOICE_PROCESS_EMPTY"><path d="M209.1438,440.7605 C209.1438,444.3522 209.1438,449.8749 209.1438,454.2164 " fill="none" id="*start*OPERATING-to-CHOICE_PROCESS_EMPTY" style="stroke:#181818;stroke-width:0.4031143462637059;"/><polygon fill="#181818" points="209.1438,456.2401,210.7562,452.612,209.1438,454.2245,207.5313,452.612,209.1438,456.2401" style="stroke:#181818;stroke-width:0.4031143462637059;"/></g><!--MD5=[79ccf8ca06e4f8a4050828f562cc2994]
link CHOICE_PROCESS_EMPTY to LOADING_PROCESS--><g id="link_CHOICE_PROCESS_EMPTY_LOADING_PROCESS"><path d="M206.2615,463.1978 C202.835,465.1811 197.1149,468.8737 193.4223,473.324 C190.2458,477.1536 187.6336,481.9265 185.6342,486.3124 " fill="none" id="CHOICE_PROCESS_EMPTY-to-LOADING_PROCESS" style="stroke:#181818;stroke-width:0.4031143462637059;"/><polygon fill="#181818" points="184.8158,488.1627,187.7512,485.4894,185.6264,486.3173,184.7986,484.1925,184.8158,488.1627" style="stroke:#181818;stroke-width:0.4031143462637059;"/><text fill="#000000" font-family="sans-serif" font-size="5.2405" lengthAdjust="spacing" textLength="37.4896" x="193.8254" y="479.3292">[ProcessEmpty]</text></g><!--MD5=[9a9d6f881016286da7b08d5515adc746]
link CHOICE_PROCESS_EMPTY to UNLOADING_PROCESS--><g id="link_CHOICE_PROCESS_EMPTY_UNLOADING_PROCESS"><path d="M213.0177,462.3593 C218.3146,463.5808 227.6346,466.6122 231.7182,473.324 C250.1728,503.6665 237.8939,520.565 222.8497,552.7376 C219.2821,560.3645 213.3805,567.5319 207.8256,573.2158 " fill="none" id="CHOICE_PROCESS_EMPTY-to-UNLOADING_PROCESS" style="stroke:#181818;stroke-width:0.4031143462637059;"/><polygon fill="#181818" points="206.2736,574.7799,209.9763,573.3471,207.696,573.3518,207.6913,571.0714,206.2736,574.7799" style="stroke:#181818;stroke-width:0.4031143462637059;"/><text fill="#000000" font-family="sans-serif" font-size="5.2405" lengthAdjust="spacing" textLength="12.4965" x="238.9742" y="523.6718">[else]</text></g><!--MD5=[a3f178933f85b92a19cc73c8d9d40f08]
link LOADING_PROCESS to PROCESSING_PART--><g id="link_LOADING_PROCESS_PROCESSING_PART"><path d="M171.6703,510.4589 C166.2685,516.7193 159.464,524.6123 153.9816,530.9654 " fill="none" id="LOADING_PROCESS-to-PROCESSING_PART" style="stroke:#181818;stroke-width:0.4031143462637059;"/><polygon fill="#181818" points="152.6191,532.5456,156.2113,530.8548,153.937,531.0205,153.7712,528.7462,152.6191,532.5456" style="stroke:#181818;stroke-width:0.4031143462637059;"/></g><!--MD5=[56a1263b32f9f86d3168510cc81dd10d]
link PROCESSING_PART to UNLOADING_PROCESS--><g id="link_PROCESSING_PART_UNLOADING_PROCESS"><path d="M139.0503,552.8061 C137.2322,557.6596 136.3212,563.3878 139.405,567.6528 C141.3843,570.3899 143.7949,572.7159 146.4918,574.6912 " fill="none" id="PROCESSING_PART-to-UNLOADING_PROCESS" style="stroke:#181818;stroke-width:0.4031143462637059;"/><polygon fill="#181818" points="148.205,575.8804,146.1368,572.4914,146.5468,574.7346,144.3036,575.1445,148.205,575.8804" style="stroke:#181818;stroke-width:0.4031143462637059;"/><text fill="#000000" font-family="sans-serif" font-size="5.2405" lengthAdjust="spacing" textLength="47.9706" x="139.8081" y="565.9988">[await process time]</text></g><!--MD5=[d97e97f8aadf993069cdd8b8cbdb75b0]
link UNLOADING_PROCESS to LOADING_PROCESS--><g id="link_UNLOADING_PROCESS_LOADING_PROCESS"><path d="M192.217,574.8887 C189.8346,559.0382 185.3762,529.365 182.8325,512.4302 " fill="none" id="UNLOADING_PROCESS-to-LOADING_PROCESS" style="stroke:#181818;stroke-width:0.4031143462637059;"/><polygon fill="#181818" points="182.5342,510.4307,181.4789,514.2581,182.8338,512.4239,184.668,513.7788,182.5342,510.4307" style="stroke:#181818;stroke-width:0.4031143462637059;"/><text fill="#000000" font-family="sans-serif" font-size="5.2405" lengthAdjust="spacing" textLength="31.4429" x="189.3912" y="544.8353">[ FlowIsFree ]</text></g><!--MD5=[330f8133c2ce4ecb2f6de8dd5f81d094]
link UNLOADING_PROCESS to *end*OPERATING--><g id="link_UNLOADING_PROCESS_*end*OPERATING"><path d="M193.8254,597.1446 C193.8254,603.6187 193.8254,611.6164 193.8254,616.9617 " fill="none" id="UNLOADING_PROCESS-to-*end*OPERATING" style="stroke:#181818;stroke-width:0.4031143462637059;"/><polygon fill="#181818" points="193.8254,619.0781,195.4379,615.4501,193.8254,617.0625,192.213,615.4501,193.8254,619.0781" style="stroke:#181818;stroke-width:0.4031143462637059;"/><text fill="#000000" font-family="sans-serif" font-size="5.2405" lengthAdjust="spacing" textLength="40.7145" x="194.2286" y="610.3414">[ FlowIsNotFree ]</text></g><!--MD5=[3167d8dfba7618b340bd4b8c188eac9d]
link *start*UP to STOPPED--><g id="link_*start*UP_STOPPED"><path d="M193.4223,81.139 C193.4223,84.3639 193.4223,89.2335 193.4223,93.8572 " fill="none" id="*start*UP-to-STOPPED" style="stroke:#181818;stroke-width:0.4031143462637059;"/><polygon fill="#181818" points="193.4223,95.9574,195.0348,92.3294,193.4223,93.9419,191.8099,92.3294,193.4223,95.9574" style="stroke:#181818;stroke-width:0.4031143462637059;"/></g><!--MD5=[468e8e0f5de07c03269dda3bd37664f3]
link STOPPED to UP_CHOICE--><g id="link_STOPPED_UP_CHOICE"><path d="M177.3421,118.2013 C175.2137,120.3297 173.3351,122.7444 172.0573,125.409 C170.0498,129.6014 170.0941,134.9144 170.5617,138.9133 " fill="none" id="STOPPED-to-UP_CHOICE" style="stroke:#181818;stroke-width:0.4031143462637059;"/><polygon fill="#181818" points="170.852,140.9813,171.9413,137.1634,170.5701,138.9855,168.7481,137.6144,170.852,140.9813" style="stroke:#181818;stroke-width:0.4031143462637059;"/><text fill="#000000" font-family="sans-serif" font-size="5.2405" lengthAdjust="spacing" textLength="14.9152" x="172.4604" y="131.4142">START</text></g><!--MD5=[bd556a2bd9060a5f276eafd44e8ae4fe]
link UP_CHOICE to OPERATING--><g id="link_UP_CHOICE_OPERATING"><path d="M167.3247,145.73 C146.4111,146.637 56.1982,151.7001 39.4326,172.1702 C7.2561,211.4699 18.1805,354.6037 39.4326,400.7361 C53.9891,432.3281 81.1711,458.7966 107.9661,478.9403 " fill="none" id="UP_CHOICE-to-OPERATING" style="stroke:#181818;stroke-width:0.4031143462637059;"/><polygon fill="#181818" points="109.7318,480.2584,107.7909,476.795,108.1172,479.0519,105.8603,479.3782,109.7318,480.2584" style="stroke:#181818;stroke-width:0.4031143462637059;"/><text fill="#000000" font-family="sans-serif" font-size="5.2405" lengthAdjust="spacing" textLength="31.4429" x="39.8358" y="288.6288">[ FlowIsFree ]</text></g><!--MD5=[e27d72dedc9cb1f3b9185c5c9c0aa156]
link UP_CHOICE to IDLE--><g id="link_UP_CHOICE_IDLE"><path d="M171.6662,150.0272 C171.6945,153.9495 171.7831,159.8148 172.0573,164.9142 C172.15,166.6194 172.2467,168.3366 172.3475,170.066 " fill="none" id="UP_CHOICE-to-IDLE" style="stroke:#181818;stroke-width:0.4031143462637059;"/><polygon fill="#181818" points="172.4644,172.0977,173.8673,168.3836,172.3494,170.0854,170.6476,168.5676,172.4644,172.0977" style="stroke:#181818;stroke-width:0.4031143462637059;"/><text fill="#000000" font-family="sans-serif" font-size="5.2405" lengthAdjust="spacing" textLength="14.9152" x="172.4604" y="163.2602">[ else ]</text></g><!--MD5=[90073fffbc82e79c59e627457c5c60c3]
link OPERATING to STOPPED--><g id="link_OPERATING_STOPPED"><path d="M255.4132,460.0987 C270.8767,442.5995 285.0422,422.3994 293.3947,400.7361 C329.9491,305.9558 341.9377,261.4077 293.3947,172.1702 C279.2937,146.246 249.8382,129.1176 226.5341,119.0357 " fill="none" id="OPERATING-to-STOPPED" style="stroke:#181818;stroke-width:0.4031143462637059;"/><polygon fill="#181818" points="224.5831,118.2013,227.2826,121.1125,226.4357,118.9953,228.5529,118.1484,224.5831,118.2013" style="stroke:#181818;stroke-width:0.4031143462637059;"/><text fill="#000000" font-family="sans-serif" font-size="5.2405" lengthAdjust="spacing" textLength="12.8997" x="288.9604" y="163.2602">STOP</text></g><!--MD5=[4346f20216289b09d1c2b40e5ac8e089]
link OPERATING to IDLE--><g id="link_OPERATING_IDLE"><path d="M185.2512,415.5022 C185.2593,411.3057 185.2633,407.0932 185.2593,402.8847 " fill="none" id="OPERATING-to-IDLE" style="stroke:#181818;stroke-width:0.4031143462637059;"/><polygon fill="#181818" points="185.2593,400.8167,183.6468,404.4447,185.2593,402.8323,186.8717,404.4447,185.2593,400.8167" style="stroke:#181818;stroke-width:0.4031143462637059;"/></g><!--MD5=[f73100d716ce6e7b7beadc3c5b4f0ff2]
link IDLE to OPERATING--><g id="link_IDLE_OPERATING"><path d="M179.8212,400.8167 C179.8172,405.0252 179.8172,409.2378 179.8253,413.4382 " fill="none" id="IDLE-to-OPERATING" style="stroke:#181818;stroke-width:0.4031143462637059;"/><polygon fill="#181818" points="179.8293,415.5022,181.4314,411.8695,179.8236,413.4866,178.2065,411.8787,179.8293,415.5022" style="stroke:#181818;stroke-width:0.4031143462637059;"/></g><!--MD5=[5b7a1d6a0aba5eb788015da42a92fdc7]
link IDLE to STOPPED--><g id="link_IDLE_STOPPED"><path d="M189.4839,172.1138 C190.7577,151.2204 191.9106,132.278 192.6363,120.3781 " fill="none" id="IDLE-to-STOPPED" style="stroke:#181818;stroke-width:0.4031143462637059;"/><polygon fill="#181818" points="192.7652,118.2376,190.9384,121.7625,192.6445,120.2495,194.1575,121.9557,192.7652,118.2376" style="stroke:#181818;stroke-width:0.4031143462637059;"/><text fill="#000000" font-family="sans-serif" font-size="5.2405" lengthAdjust="spacing" textLength="12.8997" x="191.8099" y="147.3372">STOP</text></g><!--MD5=[1484cf804706c17b6caeb7077b9bb997]
link *start to UP--><g id="link_*start_UP"><path d="M175.1532,10.5374 C175.1532,14.7741 175.1532,22.5018 175.1532,32.8417 " fill="none" id="*start-to-UP" style="stroke:#181818;stroke-width:0.4031143462637059;"/><polygon fill="#181818" points="175.1532,34.946,176.7656,31.318,175.1532,32.9304,173.5407,31.318,175.1532,34.946" style="stroke:#181818;stroke-width:0.4031143462637059;"/></g><!--MD5=[ecac89f1cb9a834dd3beff1ef5c67012]
link UP to DOWN--><g id="link_UP_DOWN"><path d="M158.174,635.3284 C158.049,639.3797 157.9321,643.4027 157.8193,647.4016 C157.7266,650.8039 156.7309,651.8359 157.8193,655.0608 C159.0528,658.7171 161.1288,662.2483 163.4306,665.3967 " fill="none" id="UP-to-DOWN" style="stroke:#181818;stroke-width:0.4031143462637059;"/><polygon fill="#181818" points="164.7246,667.1059,163.8223,663.2396,163.5088,665.4983,161.2501,665.1848,164.7246,667.1059" style="stroke:#181818;stroke-width:0.4031143462637059;"/><text fill="#000000" font-family="sans-serif" font-size="5.2405" lengthAdjust="spacing" textLength="15.7215" x="158.2224" y="653.4068">FAULT</text></g><!--MD5=[1ce488963331178650d08126837d26c2]
link DOWN to UP--><g id="link_DOWN_UP"><path d="M175.6127,667.0656 C175.7538,663.2723 175.8909,658.9791 175.9594,655.0608 C176.0199,651.6585 175.9634,650.8039 175.9594,647.4016 C175.9554,644.0961 175.9513,640.7704 175.9473,637.4286 " fill="none" id="DOWN-to-UP" style="stroke:#181818;stroke-width:0.4031143462637059;"/><polygon fill="#181818" points="175.9433,635.3445,174.3412,638.9771,175.949,637.3601,177.5661,638.9679,175.9433,635.3445" style="stroke:#181818;stroke-width:0.4031143462637059;"/><text fill="#000000" font-family="sans-serif" font-size="5.2405" lengthAdjust="spacing" textLength="33.4585" x="176.3625" y="653.4068">FAULT_CLEAR</text></g><!--MD5=[fe7ce367562cfc3beb6789c7a858aa33]
@startuml
'https://plantuml.com/state-diagram
skinparam defaultTextAlignment left
scale 350 width

[*] - -> UP
state DOWN : entry/ issue ToolDownEvent

state UP {
    state UP: entry/ ToolUpEventAction, ToolUpEvent(tool)
    state UP: PART_LOADING / LoadPartAction, PartLoadedEvt(tool, part)
    state UP: PART_UNLOADING / UnloadPartAction, PartUnloadedEvt(tool, part)

    state STOPPED
    STOPPED: entry / ToolStoppedEvent(tool)

    state UP_CHOICE <<choice>>
    [*] - -> STOPPED
    STOPPED - -> UP_CHOICE: START
    UP_CHOICE - -> OPERATING: [ FlowIsFree ]
    UP_CHOICE - -> IDLE: [ else ]

    OPERATING - -> STOPPED: STOP
    OPERATING - -> IDLE

    state IDLE {

        state BLOCKED_UPSTREAM: entry / ToolIdleEvent(UPSTREAM)
        state BLOCKED_DOWNSTREAM: entry / ToolIdleEvent(DOWNSTREAM)
        state IDLE_CHOICE <<choice>>

        [*] - -> IDLE_CHOICE
        IDLE_CHOICE - -> BLOCKED_UPSTREAM: [ InportEmpty ]
        IDLE_CHOICE - -> BLOCKED_DOWNSTREAM: [ else ]
        BLOCKED_DOWNSTREAM - -> BLOCKED_UP_AND_DOWNSTREAM: [ InportEmpty ] /\n ToolIdleEvent(UPSTREAM) ]
        BLOCKED_UPSTREAM - -> BLOCKED_UP_AND_DOWNSTREAM: [ OutportFull ] /\n ToolIdleEvent(DOWNSTREAM) ]
        BLOCKED_UP_AND_DOWNSTREAM - -> BLOCKED_UPSTREAM: [ OutportNotFull ]
        BLOCKED_UP_AND_DOWNSTREAM - -> BLOCKED_DOWNSTREAM: [ InportNotEmpty ]
        BLOCKED_DOWNSTREAM - -> [*]: [ OutportNotFull ]
        BLOCKED_UPSTREAM - -> [*]: [ InputNotEmpty ]
     }

    state OPERATING {
        state LOADING_PROCESS: entry/ PartInProcessEvent(tool, part)
        state UNLOADING_PROCESS: entry/ PartProcessedEvent(tool, part)
        state CHOICE_PROCESS_EMPTY <<choice>>
        state CHOICE_UNLOADING <<choice>>
        state PROCESSING_PART

        [*] - -> CHOICE_PROCESS_EMPTY
        CHOICE_PROCESS_EMPTY - -> LOADING_PROCESS: [ProcessEmpty]
        CHOICE_PROCESS_EMPTY - -> UNLOADING_PROCESS: [else]
        LOADING_PROCESS - -> PROCESSING_PART

        PROCESSING_PART - -> UNLOADING_PROCESS: [await process time]
        UNLOADING_PROCESS - -> LOADING_PROCESS: [ FlowIsFree ]
        UNLOADING_PROCESS - -> [*] : [ FlowIsNotFree ]
    }

    IDLE - -> OPERATING
    IDLE - -> STOPPED: STOP

}

UP - -> DOWN: FAULT
DOWN - -> UP: FAULT_CLEAR
@enduml

@startuml
skinparam defaultTextAlignment left
scale 350 width

[*] - -> UP
state DOWN : entry/ issue ToolDownEvent

state UP {
    state UP: entry/ ToolUpEventAction, ToolUpEvent(tool)
    state UP: PART_LOADING / LoadPartAction, PartLoadedEvt(tool, part)
    state UP: PART_UNLOADING / UnloadPartAction, PartUnloadedEvt(tool, part)

    state STOPPED
    STOPPED: entry / ToolStoppedEvent(tool)

    state UP_CHOICE <<choice>>
    [*] - -> STOPPED
    STOPPED - -> UP_CHOICE: START
    UP_CHOICE - -> OPERATING: [ FlowIsFree ]
    UP_CHOICE - -> IDLE: [ else ]

    OPERATING - -> STOPPED: STOP
    OPERATING - -> IDLE

    state IDLE {

        state BLOCKED_UPSTREAM: entry / ToolIdleEvent(UPSTREAM)
        state BLOCKED_DOWNSTREAM: entry / ToolIdleEvent(DOWNSTREAM)
        state IDLE_CHOICE <<choice>>

        [*] - -> IDLE_CHOICE
        IDLE_CHOICE - -> BLOCKED_UPSTREAM: [ InportEmpty ]
        IDLE_CHOICE - -> BLOCKED_DOWNSTREAM: [ else ]
        BLOCKED_DOWNSTREAM - -> BLOCKED_UP_AND_DOWNSTREAM: [ InportEmpty ] /\n ToolIdleEvent(UPSTREAM) ]
        BLOCKED_UPSTREAM - -> BLOCKED_UP_AND_DOWNSTREAM: [ OutportFull ] /\n ToolIdleEvent(DOWNSTREAM) ]
        BLOCKED_UP_AND_DOWNSTREAM - -> BLOCKED_UPSTREAM: [ OutportNotFull ]
        BLOCKED_UP_AND_DOWNSTREAM - -> BLOCKED_DOWNSTREAM: [ InportNotEmpty ]
        BLOCKED_DOWNSTREAM - -> [*]: [ OutportNotFull ]
        BLOCKED_UPSTREAM - -> [*]: [ InputNotEmpty ]
     }

    state OPERATING {
        state LOADING_PROCESS: entry/ PartInProcessEvent(tool, part)
        state UNLOADING_PROCESS: entry/ PartProcessedEvent(tool, part)
        state CHOICE_PROCESS_EMPTY <<choice>>
        state CHOICE_UNLOADING <<choice>>
        state PROCESSING_PART

        [*] - -> CHOICE_PROCESS_EMPTY
        CHOICE_PROCESS_EMPTY - -> LOADING_PROCESS: [ProcessEmpty]
        CHOICE_PROCESS_EMPTY - -> UNLOADING_PROCESS: [else]
        LOADING_PROCESS - -> PROCESSING_PART

        PROCESSING_PART - -> UNLOADING_PROCESS: [await process time]
        UNLOADING_PROCESS - -> LOADING_PROCESS: [ FlowIsFree ]
        UNLOADING_PROCESS - -> [*] : [ FlowIsNotFree ]
    }

    IDLE - -> OPERATING
    IDLE - -> STOPPED: STOP

}

UP - -> DOWN: FAULT
DOWN - -> UP: FAULT_CLEAR
@enduml

PlantUML version 1.2022.13(Sat Nov 19 14:22:17 CET 2022)
(GPL source distribution)
Java Runtime: OpenJDK Runtime Environment
JVM: OpenJDK 64-Bit Server VM
Default Encoding: UTF-8
Language: en
Country: GB
--></g></svg>